<?xml version="1.0" encoding="utf-8"?>
<!-- Generator: Adobe Illustrator 25.2.0, SVG Export Plug-In . SVG Version: 6.00 Build 0)  -->
<svg version="1.1" id="Layer_1" xmlns="http://www.w3.org/2000/svg" xmlns:xlink="http://www.w3.org/1999/xlink" x="0px" y="0px"
	 viewBox="0 0 303.3 303.3" style="enable-background:new 0 0 303.3 303.3;" xml:space="preserve">
<style type="text/css">
	.st0{fill:#FFFFFF;}
</style>
<path class="st0" d="M151.6,253.5c-12.7,0-23.1-10.3-23.1-23.1v-53c0-1.9,1.6-3.5,3.5-3.5s3.5,1.6,3.5,3.5v53
	c0.2,8.9,7.6,15.9,16.5,15.7c8.6-0.2,15.5-7.1,15.7-15.7v-80.5c-0.2-8.9-7.6-15.9-16.5-15.7c-8.6,0.2-15.5,7.1-15.7,15.7v12.4
	c0,1.9-1.6,3.5-3.5,3.5s-3.5-1.6-3.5-3.5v-12.4c0.3-12.7,10.8-22.9,23.6-22.6c12.4,0.3,22.3,10.2,22.6,22.6v80.5
	C174.7,243.1,164.4,253.5,151.6,253.5z"/>
<path class="st0" d="M151.7,120.1c-12.7,0-23.1-10.3-23.1-23.1c0-12.7,10.3-23.1,23.1-23.1c12.7,0,23.1,10.3,23.1,23.1c0,0,0,0,0,0
	C174.7,109.7,164.4,120,151.7,120.1z M151.7,80.9c-8.9,0-16.1,7.2-16.1,16.1s7.2,16.1,16.1,16.1c8.9,0,16.1-7.2,16.1-16.1
	C167.7,88.1,160.5,80.9,151.7,80.9z"/>
<path class="st0" d="M151.4,287.2c-12.4,0-24.8-1.8-36.7-5.5c-1.9-0.6-2.9-2.5-2.3-4.4s2.5-2.9,4.4-2.3c15.6,4.8,32,6.3,48.2,4.4
	c65.5-7.3,112.9-66.5,105.5-132c-4.9-43.8-33.4-81.3-74.3-97.7c-1.8-0.7-2.7-2.8-1.9-4.6c0.7-1.8,2.8-2.7,4.6-1.9l0,0
	c43.3,17.3,73.5,57.1,78.7,103.4c7.7,69.3-42.4,132-111.7,139.8C160.9,286.9,156.1,287.2,151.4,287.2z"/>
<path class="st0" d="M74.5,260c-0.7,0-1.5-0.2-2.1-0.7c-0.2-0.2-0.5-0.4-0.7-0.6C17.5,214.6,9.4,134.9,53.6,80.7
	C84.8,42.5,135.3,25.9,183,38.1c1.9,0.4,3.1,2.3,2.6,4.2c-0.4,1.9-2.3,3.1-4.2,2.6c-0.1,0-0.1,0-0.2,0
	c-64-16.3-129.1,22.3-145.4,86.2c-11.5,45.1,4.2,92.8,40.3,122.3c0.1,0.1,0.2,0.2,0.4,0.3c1.6,1.1,1.9,3.3,0.8,4.9
	C76.7,259.5,75.6,260,74.5,260z"/>
<path class="st0" d="M93.6,272.5c-0.5,0-0.9-0.1-1.4-0.3l-0.5-0.2c-0.8-0.2-1-0.3-3.5-1.8c-1.7-0.8-2.5-2.9-1.7-4.7
	c0.8-1.7,2.9-2.5,4.7-1.7c0.2,0.1,0.4,0.2,0.5,0.3l2,1.2c0.4,0.1,0.8,0.3,1.1,0.4c1.8,0.7,2.6,2.8,1.9,4.6
	C96.3,271.6,95,272.5,93.6,272.5L93.6,272.5z"/>
</svg>
