<svg id="Layer_1" data-name="Layer 1" xmlns="http://www.w3.org/2000/svg" viewBox="0 0 303.31 303.31"><defs><style>.cls-1{fill:#1b1b1b;}</style></defs><path class="cls-1" d="M151.65,253.48a23.11,23.11,0,0,1-23.08-23.08v-53a3.5,3.5,0,0,1,7,0v53a16.09,16.09,0,0,0,32.17,0V149.9a16.09,16.09,0,0,0-32.17,0v12.42a3.5,3.5,0,0,1-7,0V149.9a23.09,23.09,0,0,1,46.17,0v80.5A23.11,23.11,0,0,1,151.65,253.48Z"/><path class="cls-1" d="M151.66,120.05A23.08,23.08,0,1,1,174.74,97,23.11,23.11,0,0,1,151.66,120.05Zm0-39.16A16.08,16.08,0,1,0,167.74,97,16.1,16.1,0,0,0,151.66,80.89Z"/><path class="cls-1" d="M151.37,287.19a124.82,124.82,0,0,1-36.7-5.5,3.5,3.5,0,1,1,2.06-6.7,118.35,118.35,0,0,0,48.17,4.44c65.5-7.32,112.85-66.54,105.53-132a119.42,119.42,0,0,0-74.32-97.68,3.5,3.5,0,0,1,2.61-6.5,126.45,126.45,0,0,1,78.67,103.41c7.74,69.32-42.38,132-111.72,139.76A129.86,129.86,0,0,1,151.37,287.19Z"/><path class="cls-1" d="M74.47,260a3.49,3.49,0,0,1-2.07-.68c-.24-.18-.47-.37-.7-.56A126.55,126.55,0,0,1,183,38.08a3.5,3.5,0,1,1-1.73,6.78A119.54,119.54,0,0,0,76.19,253.36a3.31,3.31,0,0,0,.36.3A3.5,3.5,0,0,1,74.47,260Z"/><path class="cls-1" d="M93.62,272.45a3.45,3.45,0,0,1-1.36-.28l-.49-.19c-.76-.21-1-.34-3.51-1.83a3.5,3.5,0,1,1,3.55-6l2,1.18a11.67,11.67,0,0,1,1.14.42,3.5,3.5,0,0,1-1.36,6.73Z"/></svg>