<svg id="Layer_1" data-name="Layer 1" xmlns="http://www.w3.org/2000/svg" viewBox="0 0 303.31 303.31"><defs><style>.cls-1{fill:#1b1b1b;}</style></defs><path class="cls-1" d="M206.17,125.08a3.49,3.49,0,0,1-1.67-.43L148.35,94a3.5,3.5,0,0,1,3.4-6.12l.36.2,55.74,30.38a3.5,3.5,0,0,1-1.68,6.58Z"/><path class="cls-1" d="M230.23,151.1a3.4,3.4,0,0,1-1.65-.42l-82.33-44.26a3.5,3.5,0,1,1,3.32-6.16l82.32,44.26a3.5,3.5,0,0,1-1.66,6.58Z"/><path class="cls-1" d="M133,98.37a3.62,3.62,0,0,1-1.64-.41l-17.93-9.54a3.5,3.5,0,0,1,3.29-6.18l17.93,9.54A3.5,3.5,0,0,1,133,98.37Z"/><path class="cls-1" d="M91.55,96.69,85.42,93.3l14.89-26.95a6.36,6.36,0,0,1,8.63-2.49l31.61,17.56-3.4,6.12-31-17.23Z"/><path class="cls-1" d="M164.32,289.83,162.85,283a24.74,24.74,0,0,0,16.47-12.23L247,148.13,217.75,132l3.38-6.13L251,142.32a6.37,6.37,0,0,1,2.5,8.61l-68.05,123.2A31.76,31.76,0,0,1,164.32,289.83Z"/><path class="cls-1" d="M157.64,290.54a31.71,31.71,0,0,1-15.35-4L44.73,232.7a31.8,31.8,0,0,1-12.45-43.16L85.43,93.31l6.13,3.38L38.41,192.93a24.78,24.78,0,0,0,9.7,33.64l97.57,53.88A24.63,24.63,0,0,0,162.85,283l1.48,6.85A32.22,32.22,0,0,1,157.64,290.54Z"/><path class="cls-1" d="M138.84,88a3.5,3.5,0,0,1-3-5.22l26.51-47.14a3.5,3.5,0,0,1,6.1,3.43L141.9,86.19A3.51,3.51,0,0,1,138.84,88Z"/><path class="cls-1" d="M244.46,87.28a3.57,3.57,0,0,1-1.69-.43,3.51,3.51,0,0,1-1.37-4.76,42.35,42.35,0,1,0-74.15-40.95,3.5,3.5,0,1,1-6.13-3.39,49.36,49.36,0,1,1,86.41,47.72A3.49,3.49,0,0,1,244.46,87.28Z"/><path class="cls-1" d="M231.67,79.92a3.5,3.5,0,0,1-3-5.21A27.55,27.55,0,0,0,217.6,37a28.33,28.33,0,0,0-36.53,8.17,27.73,27.73,0,0,0-1.73,2.72,3.5,3.5,0,1,1-6.11-3.42,34.86,34.86,0,0,1,2.17-3.4A35.34,35.34,0,0,1,221,30.85a34.63,34.63,0,0,1,13.78,47.28A3.51,3.51,0,0,1,231.67,79.92Z"/><path class="cls-1" d="M150.4,94.68a3.45,3.45,0,0,1-1.74-.47,3.51,3.51,0,0,1-1.29-4.78l25.87-45a3.5,3.5,0,1,1,6.07,3.49l-25.87,45A3.49,3.49,0,0,1,150.4,94.68Z"/><path class="cls-1" d="M206.17,125.08a3.51,3.51,0,0,1-3-5.23l19.6-34.62,5.89-10.52a3.5,3.5,0,1,1,6.11,3.43l-5.9,10.53L209.22,123.3A3.49,3.49,0,0,1,206.17,125.08Z"/><path class="cls-1" d="M219.43,132.39a3.5,3.5,0,0,1-3.05-5.2l26.21-47.25a3.5,3.5,0,0,1,6.09,3.45l-.76,1.35L222.5,130.58A3.49,3.49,0,0,1,219.43,132.39Z"/><path class="cls-1" d="M163.06,245.76a202,202,0,0,1-131.5-48.67l4.56-5.32a194.92,194.92,0,0,0,126.94,47,211.13,211.13,0,0,0,37.41-3.68l1.29,6.88A218.15,218.15,0,0,1,163.06,245.76Z"/></svg>