<svg id="Layer_1" data-name="Layer 1" xmlns="http://www.w3.org/2000/svg" viewBox="0 0 303.31 303.31"><defs><style>.cls-1{fill:#1b1b1b;}</style></defs><path class="cls-1" d="M161.2,176.6a3.49,3.49,0,0,1-2-6.34,80.57,80.57,0,0,0,32.32-80.44c0-.34-.12-.64-.18-.93-.19-.94-.38-1.86-.6-2.76a3.5,3.5,0,1,1,6.81-1.62c.24,1,.45,2,.65,3,.07.35.15.71.21,1.07A87.59,87.59,0,0,1,163.23,176,3.5,3.5,0,0,1,161.2,176.6Z"/><path class="cls-1" d="M140.5,171.57a3.5,3.5,0,0,1-3.06-1.8L96.84,96.34A3.5,3.5,0,1,1,103,93l40.6,73.43a3.5,3.5,0,0,1-1.36,4.76A3.58,3.58,0,0,1,140.5,171.57Z"/><path class="cls-1" d="M241.59,190.66a3.49,3.49,0,0,1-3.16-2l-46.86-99a3.5,3.5,0,1,1,6.32-3l8.31,17.52,38.56,81.46a3.5,3.5,0,0,1-1.67,4.66A3.46,3.46,0,0,1,241.59,190.66Z"/><path class="cls-1" d="M67.43,178.38a3.51,3.51,0,0,1-3.07-5.18l20.08-36.9,18.19-32.89a3.5,3.5,0,1,1,6.11,3.41l-.45.82-17.71,32L70.51,176.55A3.53,3.53,0,0,1,67.43,178.38Z"/><path class="cls-1" d="M121.06,98.15H85a3.5,3.5,0,0,1,0-7h36.1a3.5,3.5,0,0,1,0,7Z"/><path class="cls-1" d="M113.19,174.11a3.52,3.52,0,0,1-3.33-2.41,49.32,49.32,0,0,0-14.48-21.87,3.5,3.5,0,1,1,4.6-5.27,56.36,56.36,0,0,1,16.54,25,3.5,3.5,0,0,1-2.24,4.41A3.44,3.44,0,0,1,113.19,174.11Z"/><path class="cls-1" d="M62.82,243.68a56.52,56.52,0,1,1,0-113,56,56,0,0,1,10.61,1,3.5,3.5,0,0,1-1.33,6.88,48.68,48.68,0,0,0-9.28-.87,49.52,49.52,0,1,0,48.95,57.05,3.5,3.5,0,0,1,6.92,1.05,56.52,56.52,0,0,1-55.87,47.94Z"/><path class="cls-1" d="M241.43,243.71a56.55,56.55,0,0,1-34-101.69,3.5,3.5,0,1,1,4.21,5.59,49.54,49.54,0,1,0,52.92-4.27,49.63,49.63,0,0,0-33.15-4.68A3.5,3.5,0,0,1,230,131.8a56.54,56.54,0,0,1,61.49,81.7,56.16,56.16,0,0,1-33.27,27.65A56.81,56.81,0,0,1,241.43,243.71Z"/><path class="cls-1" d="M194.1,88.84a3.47,3.47,0,0,1-3.37-2.58L187.1,75.13A3.5,3.5,0,1,1,193.75,73l3.79,11.68a3.51,3.51,0,0,1-2.74,4.14A3.39,3.39,0,0,1,194.1,88.84Z"/><path class="cls-1" d="M241.59,190.66a3.49,3.49,0,0,1-3.16-2L192.56,91.78h0l6.26-3.12a.25.25,0,0,1,0,.07L199,89l45.76,96.65a3.5,3.5,0,0,1-1.67,4.66A3.46,3.46,0,0,1,241.59,190.66Z"/><path class="cls-1" d="M194.12,88.92a3.51,3.51,0,1,1,3.43-4.24v0a3.5,3.5,0,0,1-2.75,4.12A4,4,0,0,1,194.12,88.92Z"/><path class="cls-1" d="M190.43,77.54A3.5,3.5,0,0,1,187,74.62c-.09-.52-.19-1-.31-1.45-.07-.25-.15-.53-.25-.8a12.7,12.7,0,0,0-.82-2,15.62,15.62,0,0,0-13.89-8.68H158.47a3.5,3.5,0,0,1,0-7h13.24a22.65,22.65,0,0,1,20.14,12.54,18.56,18.56,0,0,1,1.2,2.89c.12.33.25.75.37,1.19.19.72.34,1.41.47,2.16a3.5,3.5,0,0,1-2.88,4A2.9,2.9,0,0,1,190.43,77.54Z"/><path class="cls-1" d="M150.68,195.5c-.25,0-.49,0-.73,0a3.5,3.5,0,1,1,.52-7H151a8.9,8.9,0,0,0,5.83-15.25,8.42,8.42,0,0,0-2.12-1.56,8.93,8.93,0,0,0-4.53-1,5.25,5.25,0,0,0-.57.05,3.5,3.5,0,0,1-1.16-6.9,10.67,10.67,0,0,1,1.4-.14,16,16,0,0,1,8.12,1.78,16,16,0,0,1,8.51,13.37,15.91,15.91,0,0,1-15.15,16.63Z"/><path class="cls-1" d="M65,195.51a11.94,11.94,0,0,1-11.92-11.38,10.56,10.56,0,0,1,0-1.38,11.9,11.9,0,0,1,11.35-11.1,3.5,3.5,0,0,1,.33,7,4.92,4.92,0,0,0-4.7,4.6,3.58,3.58,0,0,0,0,.56,4.89,4.89,0,0,0,1.6,3.42,5,5,0,0,0,3.57,1.29,3.5,3.5,0,1,1,.32,7Z"/><path class="cls-1" d="M64.61,178.64a3.5,3.5,0,0,1-.32-7l85.43-8a3.5,3.5,0,0,1,.64,7l-85.42,8Z"/><path class="cls-1" d="M65.4,195.5a3.5,3.5,0,0,1,0-7l85.79,0a3.5,3.5,0,0,1,0,7Z"/></svg>