<svg id="Layer_1" data-name="Layer 1" xmlns="http://www.w3.org/2000/svg" viewBox="0 0 303.31 303.31"><defs><style>.cls-1{fill:#1b1b1b;}</style></defs><path class="cls-1" d="M161,285.48H135.2a35.75,35.75,0,0,1-35.63-35.71v-9.6a3.49,3.49,0,0,1,3.5-3.5h0a3.5,3.5,0,0,1,3.5,3.5v9.61a28.77,28.77,0,0,0,28.64,28.7H161a28.7,28.7,0,0,0,28.66-28.65v-8.67h0l.06-70.55a3.5,3.5,0,0,1,3.5-3.5h0a3.49,3.49,0,0,1,3.49,3.5l-.06,70.45a.81.81,0,0,1,0,.22v8.57A35.71,35.71,0,0,1,161,285.48Z"/><path class="cls-1" d="M128,72.51a3.5,3.5,0,0,1-3.5-3.5V54.47A3.5,3.5,0,0,1,128,51h0a3.5,3.5,0,0,1,3.49,3.5V69A3.49,3.49,0,0,1,128,72.51Z"/><path class="cls-1" d="M168.54,72.36a3.5,3.5,0,0,1-3.5-3.5V54.51a3.5,3.5,0,0,1,3.5-3.49h0a3.49,3.49,0,0,1,3.49,3.5V68.86A3.5,3.5,0,0,1,168.54,72.36Z"/><path class="cls-1" d="M173.2,56.73h0l-49.83,0a3.5,3.5,0,0,1-3.5-3.5l0-28.48a3.52,3.52,0,0,1,3.5-3.5h0l49.84.05a3.5,3.5,0,0,1,3.49,3.5l0,28.48A3.5,3.5,0,0,1,173.2,56.73Zm-46.33-7,42.83,0,0-21.47-42.83,0Z"/><path class="cls-1" d="M173.2,38.93h-7.12a3.5,3.5,0,1,1,0-7h7.12a3.5,3.5,0,1,1,0,7Z"/><path class="cls-1" d="M155.4,38.92h0l-32,0a3.5,3.5,0,0,1,0-7h0l32,0a3.5,3.5,0,0,1,0,7Z"/><path class="cls-1" d="M107.83,224.14c-1.58,0-3.18-.06-4.81-.18a3.5,3.5,0,1,1,.5-7c18.71,1.34,34.62-6.15,51.47-14.08,11.86-5.58,24.13-11.36,37.44-13.74l.36-.07A3.5,3.5,0,0,1,194,196l-.23.05c-12.45,2.2-23.81,7.55-35.83,13.21C142.38,216.57,126.31,224.14,107.83,224.14Zm86.45-28.23Zm0,0h0Zm0,0h0Zm0,0Z"/><path class="cls-1" d="M193.14,244.67a3.5,3.5,0,0,1-3.5-3.5h0c0-.11,0-.22,0-.33.11-1.18.16-2.38.16-3.59l.12-128.1c0-1.26-.05-2.48-.16-3.67,0,0,0-.06,0-.09A41.92,41.92,0,0,0,167,72a41,41,0,0,0-18.53-4.41h-.06a40.88,40.88,0,0,0-18.83,4.56,41.45,41.45,0,0,0-22.68,36.94l-.12,128.1c0,1,0,1.82.09,2.68a2.18,2.18,0,0,1,0,.25,3.5,3.5,0,0,1-7,.18c-.07-1-.11-2-.11-3.11l.12-128.11a48.61,48.61,0,0,1,48.51-48.49h.07a47.89,47.89,0,0,1,21.67,5.16,49,49,0,0,1,26.63,39.1.22.22,0,0,0,0,.08c.12,1.38.18,2.79.18,4.19l-.12,128.15c0,1.37-.06,2.74-.18,4.09a3.34,3.34,0,0,1,0,.43A3.5,3.5,0,0,1,193.14,244.67Z"/></svg>