<svg id="Layer_1" data-name="Layer 1" xmlns="http://www.w3.org/2000/svg" viewBox="0 0 303.31 303.31"><defs><style>.cls-1{fill:#1b1b1b;}</style></defs><path class="cls-1" d="M153.25,291.57a22.42,22.42,0,0,1-22.39-22.39,3.5,3.5,0,0,1,7,0,15.39,15.39,0,1,0,30.77,0,3.5,3.5,0,0,1,7,0A22.41,22.41,0,0,1,153.25,291.57Z"/><path class="cls-1" d="M193.09,231.21a3.46,3.46,0,0,1-2.14-.74,3.5,3.5,0,0,1-.63-4.91,10.05,10.05,0,0,0,2.13-6.19V218a10.2,10.2,0,0,0-10.17-10.17h-55.6a10,10,0,0,0-6,1.95A10.21,10.21,0,0,0,116.5,218v1.4a10.05,10.05,0,0,0,2.13,6.19,3.5,3.5,0,0,1-5.54,4.29,17,17,0,0,1-3.59-10.48V218a17.23,17.23,0,0,1,7.09-13.88,17,17,0,0,1,10.09-3.29h55.6A17.2,17.2,0,0,1,199.45,218v1.4a17,17,0,0,1-3.59,10.48A3.49,3.49,0,0,1,193.09,231.21Z"/><path class="cls-1" d="M115.86,249.27a3.48,3.48,0,0,1-2.77-1.36,17,17,0,0,1-3.59-10.47V236a17,17,0,0,1,3.59-10.48,3.5,3.5,0,0,1,5.54,4.29A10.05,10.05,0,0,0,116.5,236v1.4a10.05,10.05,0,0,0,2.13,6.19,3.5,3.5,0,0,1-2.77,5.64Z"/><path class="cls-1" d="M193.09,249.27a3.5,3.5,0,0,1-2.77-5.64,10.05,10.05,0,0,0,2.13-6.19V236a10.05,10.05,0,0,0-2.13-6.19,3.5,3.5,0,0,1,5.54-4.29A17,17,0,0,1,199.45,236v1.4a17,17,0,0,1-3.59,10.47A3.46,3.46,0,0,1,193.09,249.27Z"/><path class="cls-1" d="M182.28,272.68h-55.6A17.2,17.2,0,0,1,109.5,255.5v-1.39a17,17,0,0,1,3.59-10.48,3.5,3.5,0,0,1,5.54,4.28,10.08,10.08,0,0,0-2.13,6.2v1.39a10.2,10.2,0,0,0,10.18,10.18h55.6a10.19,10.19,0,0,0,10.17-10.18v-1.39a10.08,10.08,0,0,0-2.13-6.2,3.5,3.5,0,1,1,5.54-4.28,17,17,0,0,1,3.59,10.48v1.39A17.19,17.19,0,0,1,182.28,272.68Z"/><path class="cls-1" d="M93.29,148.66a3.49,3.49,0,0,1-3-1.63,78.62,78.62,0,0,1,4.88-99.24,3.5,3.5,0,0,1,5.2,4.69A71.63,71.63,0,0,0,96.07,143a2,2,0,0,1,.2.3l.13.22a3.6,3.6,0,0,1,.39,1.6A3.51,3.51,0,0,1,93.29,148.66Z"/><path class="cls-1" d="M213.92,148.8a3.5,3.5,0,0,1-3.5-3.5,3.42,3.42,0,0,1,.36-1.54,3.3,3.3,0,0,1,.34-.57,71.67,71.67,0,0,0,6.82-11.11h0l0-.07v0a70.86,70.86,0,0,0,7.32-31.58A71.65,71.65,0,0,0,114.18,40.62a3.5,3.5,0,1,1-3.86-5.84A78.66,78.66,0,0,1,224.25,135.1s0,0,0,.06h0a78.74,78.74,0,0,1-7.4,12.09A3.49,3.49,0,0,1,213.92,148.8Z"/><path class="cls-1" d="M118.65,210.42a3.5,3.5,0,0,1-3.45-2.92c-3.57-21.06-15.53-44.56-24.93-60.56,0-.08-.09-.16-.13-.24l0-.06a3.5,3.5,0,0,1,6.17-3.29,1.74,1.74,0,0,1,.11.18c9.69,16.51,22,40.75,25.72,62.81a3.51,3.51,0,0,1-2.87,4A4,4,0,0,1,118.65,210.42Z"/><path class="cls-1" d="M201.11,173.17a3.44,3.44,0,0,1-1.46-.32,3.5,3.5,0,0,1-1.71-4.65c3.63-7.87,8-16.13,12.9-24.57a3.5,3.5,0,0,1,6.21,3.23l-.11.21c-4.84,8.28-9.09,16.37-12.65,24.07A3.5,3.5,0,0,1,201.11,173.17Z"/><path class="cls-1" d="M189,209.55a3.14,3.14,0,0,1-.61-.05,3.51,3.51,0,0,1-2.85-4.05A128.09,128.09,0,0,1,191,185.09a3.5,3.5,0,0,1,6.6,2.34,120.79,120.79,0,0,0-5.21,19.22A3.5,3.5,0,0,1,189,209.55Z"/><path class="cls-1" d="M221.08,137.12a3.5,3.5,0,0,1-3.5-3.5,3.65,3.65,0,0,1,1.06-2.54,3.51,3.51,0,1,1,2.44,6Z"/><path class="cls-1" d="M154.07,207.8a3.5,3.5,0,0,1-3.5-3.5V146.81a3.5,3.5,0,0,1,7,0V204.3A3.5,3.5,0,0,1,154.07,207.8Z"/><path class="cls-1" d="M169.67,231.62H117.11a3.5,3.5,0,0,1,0-7h52.56a3.5,3.5,0,0,1,0,7Z"/><path class="cls-1" d="M142.57,249.68H118.75a3.5,3.5,0,0,1,0-7h23.82a3.5,3.5,0,0,1,0,7Z"/><path class="cls-1" d="M175.15,118.66a3.5,3.5,0,0,1-2.23-6.2l.85-.69,8.54-6.81a3.5,3.5,0,0,1,4.37,5.47l-9.31,7.44A3.51,3.51,0,0,1,175.15,118.66Z"/><path class="cls-1" d="M153,137.27a3.51,3.51,0,0,1-2.23-.8L121,111.72a3.51,3.51,0,0,1-1.2-3.38A64.44,64.44,0,0,1,152.31,64.4a3.5,3.5,0,1,1,3.35,6.15,57.45,57.45,0,0,0-28.59,37.14l26,21.57,6.35-5,1.87-1.54a3.5,3.5,0,1,1,4.46,5.39l-1.92,1.59-8.6,6.84A3.53,3.53,0,0,1,153,137.27Z"/><path class="cls-1" d="M154,177.71a3.5,3.5,0,0,1-3.5-3.5V67.47a3.5,3.5,0,0,1,7,0V174.21A3.5,3.5,0,0,1,154,177.71Z"/><path class="cls-1" d="M154,177.71a3.5,3.5,0,0,1-1.68-6.58,57.44,57.44,0,0,0,30.13-50.29,56.3,56.3,0,0,0-1.36-12.37A57.5,57.5,0,0,0,154,71.5a57.38,57.38,0,0,0-27.36,38.21,3.5,3.5,0,1,1-6.86-1.37A64.41,64.41,0,0,1,152.31,64.4a3.5,3.5,0,0,1,3.35,0,64.56,64.56,0,0,1,32.25,42.54,63.33,63.33,0,0,1,1.53,13.9,64.42,64.42,0,0,1-33.78,56.44A3.46,3.46,0,0,1,154,177.71Z"/><path class="cls-1" d="M154,177.71a3.49,3.49,0,0,1-1.67-.43,64.42,64.42,0,0,1-33.78-56.44,63.19,63.19,0,0,1,1.24-12.51A64.41,64.41,0,0,1,152.31,64.4a3.5,3.5,0,1,1,3.35,6.15,57.44,57.44,0,0,0-29,39.16,56.24,56.24,0,0,0-1.1,11.13,57.44,57.44,0,0,0,30.13,50.29,3.5,3.5,0,0,1-1.68,6.58Z"/></svg>