<svg id="Layer_1" data-name="Layer 1" xmlns="http://www.w3.org/2000/svg" viewBox="0 0 303.31 303.31"><defs><style>.cls-1{fill:#1b1b1b;}</style></defs><path class="cls-1" d="M146.81,186.7a4,4,0,0,1-1.91-.49,36,36,0,0,1,17.51-67.69c.66,0,1.32,0,2,.07a4,4,0,1,1-.47,8c-.52,0-1,0-1.57,0a28,28,0,0,0-13.62,52.67,4,4,0,0,1-1.92,7.51Z"/><path class="cls-1" d="M166.94,190.25a4,4,0,0,1-.58-8,28.06,28.06,0,0,0,22-37.79,4,4,0,1,1,7.46-2.88,36.06,36.06,0,0,1-28.27,48.59A4,4,0,0,1,166.94,190.25Z"/><path class="cls-1" d="M181.36,132.91a4,4,0,0,1-2.42-.82l-.24-.18-.19-.11a4,4,0,0,1,3.9-7,6.94,6.94,0,0,1,1.38.91,4,4,0,0,1-2.43,7.19Zm-2.2-.78h0Zm3.31-7.28-2,3.48,2-3.48Zm-.21-.1.11,0Z"/></svg>