<?xml version="1.0" encoding="utf-8"?>
<!-- Generator: Adobe Illustrator 25.2.0, SVG Export Plug-In . SVG Version: 6.00 Build 0)  -->
<svg version="1.1" id="Layer_1" xmlns="http://www.w3.org/2000/svg" xmlns:xlink="http://www.w3.org/1999/xlink" x="0px" y="0px"
	 viewBox="0 0 324.5 324.5" style="enable-background:new 0 0 324.5 324.5;" xml:space="preserve">
<style type="text/css">
	.st0{fill:#FFFFFF;}
</style>
<path class="st0" d="M268.2,84.6c-1.9,0.1-3.6-1.5-3.6-3.4c-0.1-1.9,1.5-3.6,3.4-3.6l24-1.6l14.5-44.6L261.9,46l-1.6,24
	c-0.1,1.9-1.8,3.4-3.7,3.3c-1.9-0.1-3.4-1.8-3.3-3.7l0,0l1.8-26.3c0.1-1.4,1.1-2.7,2.4-3.1l53.4-17.4c1.8-0.6,3.8,0.4,4.4,2.2
	c0.2,0.7,0.2,1.5,0,2.2l-17.4,53.4c-0.4,1.3-1.7,2.3-3.1,2.4l-26.3,1.8L268.2,84.6z"/>
<path class="st0" d="M67.1,284.8c-0.9,0-1.8-0.4-2.5-1l-10.4-10.4c-0.7-0.7-1-1.5-1-2.5c0-0.9,0.4-1.8,1-2.5l28-28
	c1.3-1.4,3.5-1.5,4.9-0.2c0.7,0.7,1.1,1.6,1.1,2.6l0,0c0,0.9-0.4,1.8-1,2.5l-25.6,25.6l5.5,5.5L93,250.4c1.4-1.3,3.6-1.3,4.9,0.1
	c1.3,1.4,1.3,3.6-0.1,4.9l-28.2,28.3C68.9,284.4,68,284.8,67.1,284.8z"/>
<path class="st0" d="M245.6,106.2h-0.2c-1-0.1-1.9-0.5-2.5-1.3c-3-3.7-6.2-7.2-9.7-10.4c-1.4-1.3-1.5-3.5-0.2-4.9
	c0,0,0.1-0.1,0.1-0.1l8.3-8.3c1.4-1.4,3.6-1.4,5,0c1.4,1.4,1.4,3.6,0,5l-5.8,5.8c1.8,1.8,3.6,3.7,5.3,5.6l6-6c1.4-1.4,3.6-1.4,4.9,0
	c1.4,1.4,1.4,3.6,0,4.9l-8.7,8.7C247.5,105.9,246.6,106.3,245.6,106.2z"/>
<path class="st0" d="M256,97.7c-0.7,0-1.5,0-2.2-0.2c-1.9-0.3-3.2-2.1-3-4c0.3-1.9,2.1-3.2,4-3c0.4,0.1,0.8,0.1,1.2,0.1
	c4.8,0,8.7-3.9,8.8-8.7c0-0.2,0-0.4,0-0.6c-0.3-4.4-3.8-7.9-8.1-8.2H256c-4.8,0-8.8,3.9-8.8,8.7c0,0.4,0,0.8,0.1,1.2
	c0.3,1.9-1.1,3.7-3,4s-3.7-1.1-4-3c-0.1-0.7-0.2-1.5-0.2-2.2c0-8.7,7-15.8,15.7-15.8c0,0,0,0,0,0c0.4,0,0.7,0,1.1,0
	c7.9,0.5,14.1,6.8,14.6,14.7c0,0.3,0,0.7,0,1C271.8,90.6,264.7,97.7,256,97.7C256,97.7,256,97.7,256,97.7z"/>
<path class="st0" d="M57.5,84.6h-0.2L31,82.9c-1.4-0.1-2.6-1-3.1-2.4l-0.1-0.4l-17.3-53c-0.6-1.8,0.4-3.8,2.2-4.4
	c0.7-0.2,1.5-0.2,2.2,0l53.4,17.4c1.4,0.4,2.3,1.7,2.4,3.1l1.8,26.3c0.1,1.9-1.3,3.6-3.3,3.7s-3.6-1.3-3.7-3.3l-1.6-24L19.2,31.4
	l14.5,44.6l24,1.6c1.9,0.1,3.4,1.7,3.4,3.6C61.1,83.2,59.5,84.7,57.5,84.6L57.5,84.6z"/>
<path class="st0" d="M80.1,106.2c-0.9,0-1.8-0.3-2.5-1L69,96.6c-1.4-1.4-1.4-3.6,0-5s3.6-1.4,5,0l8.7,8.7c1.4,1.4,1.4,3.6,0.1,4.9
	C82,105.9,81.1,106.3,80.1,106.2L80.1,106.2z"/>
<path class="st0" d="M90.2,95.5c-0.9,0-1.8-0.3-2.5-1l-8.3-8.3c-1.4-1.4-1.4-3.6,0-5s3.6-1.4,5,0l8.3,8.3c1.4,1.4,1.4,3.6,0.1,4.9
	C92.1,95.1,91.2,95.5,90.2,95.5L90.2,95.5z"/>
<path class="st0" d="M258.7,284.8c-0.9,0-1.8-0.4-2.5-1l-28.4-28.4c-1.4-1.4-1.4-3.6,0-5c1.4-1.4,3.6-1.4,5,0l0,0l26,26l5.5-5.5
	l-25.6-25.6c-1.4-1.4-1.4-3.6,0-4.9s3.6-1.4,4.9,0l28.1,28.1c0.6,0.7,1,1.5,1,2.5c0,0.9-0.4,1.8-1,2.5l-10.4,10.4
	C260.5,284.5,259.6,284.8,258.7,284.8z"/>
<path class="st0" d="M69.8,97.7c-8.7,0-15.7-7-15.8-15.7c0-0.4,0-0.7,0-1.1c0.5-7.9,6.8-14.2,14.7-14.7c0.3,0,0.7,0,1,0
	c8.7,0,15.8,7,15.8,15.7c0,0,0,0,0,0c0,0.7-0.1,1.5-0.2,2.2c-0.3,1.9-2.1,3.2-4,3c-1.9-0.3-3.2-2.1-3-4c0.1-0.4,0.1-0.8,0.1-1.2
	c0-4.8-3.9-8.8-8.8-8.8h-0.6c-4.4,0.3-7.9,3.7-8.2,8.1c0,0.2,0,0.4,0,0.6c0,4.8,3.9,8.8,8.8,8.8c0.4,0,0.8,0,1.2-0.1
	c1.9-0.3,3.7,1.1,4,3c0.3,1.9-1.1,3.7-3,4C71.3,97.7,70.5,97.7,69.8,97.7z"/>
<path class="st0" d="M198.6,161.2c-1.7,0-3.2-1.2-3.4-2.9c-0.1-0.4-0.2-0.7-0.2-1.1s-0.1-0.4-0.2-0.6v-0.1c0-0.2-0.1-0.4-0.2-0.6
	l-0.1-0.3l0,0c0-0.1,0-0.2-0.1-0.2v-0.1v-0.1c0-0.1,0-0.1,0-0.1l0,0l-0.4-1.2c0,0,0-0.1-0.1-0.3s0-0.1,0-0.1l-0.1-0.2l-0.1-0.3
	c0-0.1,0-0.1,0-0.1c-0.1-0.2-0.1-0.4-0.2-0.6c-0.2-0.7-0.4-1.3-0.6-1.9c-0.1-0.2-0.1-0.4-0.2-0.6c0,0,0-0.1,0-0.1l-0.1-0.3
	c-0.1-0.2-0.2-0.4-0.2-0.6c-0.2-0.5-0.4-1-0.6-1.5c0-0.1,0-0.1-0.1-0.2c0-0.1,0-0.1-0.1-0.1c-0.1-0.3-0.3-0.7-0.5-1.1l-0.1-0.2
	l-0.1-0.1l0,0l-0.1-0.3l-0.8-1.6c-0.2-0.4-0.4-0.7-0.5-1s-0.4-0.7-0.6-1.1s-0.4-0.7-0.6-1l-0.5-0.8l-0.1-0.1l-0.3-0.6l0,0l0,0
	c-0.1-0.1-0.1-0.2-0.2-0.3c-0.1-0.1-0.2-0.3-0.2-0.4l-0.1-0.1c-0.1-0.2-0.3-0.5-0.4-0.7l-0.1-0.1l-0.1-0.2l-0.1-0.1l-0.1-0.2
	l-0.3-0.5c-0.9-1.3-1.8-2.7-2.8-3.9c-0.5-0.6-1-1.3-1.5-1.9s-1-1.2-1.6-1.8s-1-1.1-1.5-1.6c-0.1-0.1-0.2-0.2-0.3-0.3l-0.1-0.1
	l-0.8-0.8l-0.7-0.7l-0.5-0.5l-0.6-0.6l-0.3-0.3v-0.1l-0.1-0.1l-0.3-0.3l-0.2-0.2c-0.2-0.2-0.4-0.3-0.6-0.5l-1.1-0.9l-0.1-0.1
	c-3.1-2.5-6.3-4.8-9.8-6.8c-1.7-1-2.3-3.1-1.3-4.8c1-1.7,3.1-2.3,4.8-1.3c3.8,2.1,7.3,4.6,10.7,7.4l0.2,0.1l1.2,1l0.7,0.6l0.3,0.3
	l0.2,0.2l0.1,0.1l0.1,0.1l0.3,0.3c0.3,0.2,0.5,0.5,0.8,0.8l0.4,0.4l0.7,0.7l0.9,0.9l0.1,0.1l0.1,0.1c0.6,0.7,1.2,1.3,1.9,2
	s1.2,1.3,1.8,2s1.1,1.4,1.7,2.1c1.1,1.4,2.2,2.9,3.1,4.4l0.3,0.5l0.1,0.2l0,0l0.1,0.1l0.2,0.4c0.2,0.3,0.3,0.5,0.5,0.8
	s0.3,0.5,0.4,0.7s0.1,0.2,0.2,0.3c0.1,0.2,0.3,0.5,0.4,0.7s0.4,0.6,0.5,0.9s0.4,0.7,0.6,1.1s0.4,0.8,0.6,1.2s0.4,0.8,0.6,1.2
	s0.6,1.1,0.8,1.7v0.1v0.1l0.1,0.2l0.1,0.1l0,0l0.1,0.3c0.2,0.4,0.4,0.8,0.6,1.2v0.1l0.1,0.2c0.2,0.5,0.4,1,0.6,1.6
	c0.1,0.2,0.2,0.5,0.3,0.8l0,0c0,0,0.1,0.1,0.1,0.1c0.1,0.3,0.2,0.7,0.4,1c0.2,0.6,0.5,1.3,0.7,1.9c0.1,0.2,0.1,0.4,0.2,0.7
	s0.1,0.4,0.2,0.6v0.1c0,0.1,0.1,0.1,0.1,0.2c0.1,0.1,0.1,0.3,0.1,0.4c0,0,0,0.1,0,0.1l0.1,0.4c0.1,0.2,0.1,0.4,0.2,0.7l0,0v0.1
	c0,0.1,0.1,0.2,0.1,0.3l0,0l0.1,0.2l0.1,0.4l0.2,0.8c0.1,0.3,0.1,0.6,0.2,0.8c0.1,0.4,0.2,0.9,0.3,1.3c0.1,0.2,0.1,0.5,0.1,0.7
	C202.1,159.7,200.5,161.3,198.6,161.2C198.6,161.3,198.6,161.3,198.6,161.2z M194.3,155.1c0,0,0,0.1,0,0.1
	C194.3,155.1,194.3,155.1,194.3,155.1z M201,153.1C201,153.1,201,153.1,201,153.1L201,153.1z M196.9,142.1L196.9,142.1z"/>
<path class="st0" d="M163,191L163,191c-1.9,0-3.5-1.6-3.5-3.5c0,0,0,0,0,0l0.4-35.6c0-1.9,1.6-3.5,3.5-3.5c1.9,0,3.5,1.6,3.5,3.5
	l0,0l-0.4,35.6C166.5,189.5,164.9,191,163,191C163,191,163,191,163,191z"/>
<path class="st0" d="M128.1,161.3c-0.3,0-0.5,0-0.8-0.1c-1.9-0.4-3.1-2.3-2.7-4.2c0,0,0,0,0,0v-0.2c0.3-1.1,0.6-2.3,1-3.5
	c0-0.1,0-0.1,0-0.2c4.3-14.7,13.1-27.6,25.2-37c3.7-2.9,7.6-5.4,11.7-7.6c1-0.6,2.3-0.6,3.4,0c3.8,2.1,7.3,4.6,10.7,7.4l0.2,0.2
	l0.5,0.4l0.8,0.7c0.2,0.1,0.4,0.3,0.6,0.5s0.2,0.2,0.4,0.3l0.2,0.2l0.1,0.1l0.1,0.1l0.3,0.3c0.3,0.2,0.5,0.5,0.8,0.8l0.4,0.4
	l0.7,0.7l0.9,0.9l0.3,0.3c1.2,1.3,2.4,2.6,3.5,3.9c0.6,0.7,1.1,1.4,1.7,2.1c1.1,1.4,2.2,2.9,3.1,4.4l0.4,0.6l0.1,0.2l0.1,0.1
	l0.2,0.4c0.2,0.3,0.3,0.5,0.5,0.8s0.3,0.5,0.4,0.7s0.1,0.2,0.2,0.3c0.1,0.2,0.3,0.5,0.4,0.7s0.4,0.6,0.5,0.9s0.4,0.7,0.6,1.1
	s0.4,0.8,0.6,1.2s0.4,0.8,0.6,1.2s0.6,1.1,0.8,1.7v0.1v0.1l0.1,0.2l0.1,0.1l0,0l0.1,0.3c0.2,0.4,0.4,0.8,0.6,1.2v0.1l0.1,0.2
	c0.2,0.5,0.4,1,0.6,1.6c0.1,0.2,0.2,0.5,0.3,0.7c0,0,0,0.1,0,0.1c0,0,0,0.1,0.1,0.1c0.1,0.3,0.2,0.7,0.4,1c0.2,0.6,0.5,1.3,0.7,1.9
	c0.1,0.2,0.1,0.4,0.2,0.7s0.1,0.4,0.2,0.6v0.1c0,0.1,0.1,0.1,0.1,0.2c0.1,0.1,0.1,0.3,0.1,0.4c0,0,0,0.1,0,0.1l0.1,0.4
	c0.1,0.2,0.1,0.4,0.2,0.7l0,0v0.1c0,0.1,0.1,0.2,0.1,0.3l0,0l0.1,0.2l0.1,0.4l0.2,0.8c0.1,0.3,0.1,0.6,0.2,0.8
	c0.1,0.4,0.2,0.9,0.3,1.3c0.1,0.2,0.1,0.5,0.1,0.7c0,1.9-1.6,3.5-3.5,3.5c-1.7,0-3.2-1.2-3.5-2.9c-0.1-0.4-0.2-0.7-0.2-1.1
	s-0.1-0.4-0.2-0.6v-0.1c0-0.2-0.1-0.4-0.2-0.6l-0.1-0.3l0,0c0-0.1,0-0.2-0.1-0.2v-0.1V155c0-0.1,0-0.1,0-0.1l0,0l-0.4-1.2
	c0,0,0-0.1-0.1-0.3s0-0.1,0-0.1l-0.1-0.2l-0.1-0.3c0-0.1,0-0.1,0-0.1c-0.1-0.2-0.1-0.4-0.2-0.6c-0.2-0.7-0.4-1.3-0.6-1.9l-0.3-0.8
	v-0.1l-0.1-0.1c-0.1-0.2-0.2-0.4-0.2-0.6c-0.2-0.5-0.4-1-0.6-1.5c0-0.1,0-0.1-0.1-0.2c0-0.1,0-0.1-0.1-0.1c-0.1-0.3-0.3-0.7-0.5-1.1
	l-0.1-0.2l-0.1-0.1l0,0l-0.1-0.3l-0.8-1.6c-0.2-0.4-0.4-0.7-0.5-1s-0.4-0.7-0.6-1.1s-0.4-0.7-0.6-1l-0.5-0.8l-0.1-0.1l-0.3-0.6l0,0
	l0,0c-0.1-0.1-0.1-0.2-0.2-0.3c-0.1-0.1-0.2-0.3-0.2-0.4l-0.1-0.1c-0.1-0.2-0.3-0.5-0.4-0.7l-0.1-0.1l-0.1-0.2l-0.1-0.1l-0.1-0.2
	l-0.3-0.5c-0.9-1.3-1.9-2.7-2.8-4c-0.5-0.6-1-1.3-1.5-1.9c-1-1.2-2.1-2.5-3.2-3.6l-0.1-0.1l-0.1-0.1l-0.8-0.8l-0.7-0.7l-0.5-0.5
	l-0.6-0.6l-0.3-0.3v-0.1l-0.1-0.1l-0.3-0.3l-0.2-0.2c0,0-0.1-0.1-0.1-0.1l-0.4-0.4l-0.7-0.6l-0.4-0.3l-0.1-0.1
	c-2.6-2.1-5.3-4.1-8.1-5.8c-3.2,1.8-6.2,3.8-9,6c-10.8,8.5-18.8,20.1-22.7,33.3c0,0.1-0.1,0.2-0.1,0.2c-0.4,1.1-0.6,2.3-0.9,3.2v0.1
	C131.2,160.2,129.8,161.3,128.1,161.3z M194.3,155.1c0,0,0,0.1,0,0.1C194.3,155.1,194.3,155.1,194.3,155.1z M201,153.1L201,153.1
	L201,153.1z M196.9,142.1L196.9,142.1z M186.1,137L186.1,137z M186.1,136.9L186.1,136.9C186.1,136.9,186.1,136.9,186.1,136.9
	L186.1,136.9z"/>
<path class="st0" d="M198.6,161.2c-1.7,0-3.2-1.2-3.4-2.9c-0.1-0.4-0.2-0.7-0.2-1.1s-0.1-0.4-0.2-0.6v-0.1c0-0.2-0.1-0.4-0.2-0.6
	l-0.1-0.3l0,0c0-0.1,0-0.2-0.1-0.2v-0.1v-0.1c0-0.1,0-0.1,0-0.1l0,0l-0.4-1.2c0,0,0-0.1-0.1-0.3s0-0.1,0-0.1l-0.1-0.2l-0.1-0.3
	c0-0.1,0-0.1,0-0.1c-0.1-0.2-0.1-0.4-0.2-0.6c-0.2-0.7-0.4-1.3-0.6-1.9l-0.3-0.8l0,0l-0.1-0.2l0,0c-0.1-0.2-0.2-0.4-0.2-0.6
	c-0.2-0.5-0.4-1-0.6-1.5c0-0.1,0-0.1-0.1-0.2c0-0.1,0-0.1-0.1-0.1l-0.6-1.3l-0.1-0.1l0,0l-0.1-0.3l-0.8-1.6c-0.2-0.4-0.4-0.7-0.5-1
	s-0.4-0.7-0.6-1.1s-0.4-0.7-0.6-1l-0.5-0.8l-0.1-0.1l-0.3-0.6l0,0l0,0c-0.1-0.1-0.1-0.2-0.2-0.3c-0.1-0.1-0.2-0.3-0.2-0.4l-0.1-0.1
	c-0.1-0.2-0.3-0.5-0.4-0.7l-0.1-0.1l-0.1-0.2l-0.1-0.1l-0.1-0.2l-0.4-0.5c-0.9-1.3-1.8-2.7-2.8-3.9c-0.5-0.6-1-1.3-1.5-1.9
	s-1.1-1.2-1.6-1.8s-1-1.1-1.5-1.6c-0.1-0.1-0.2-0.2-0.3-0.3l-0.1-0.1l-0.8-0.8l-0.7-0.7l-0.5-0.5l-0.6-0.6l-0.3-0.3v-0.1l-0.1-0.1
	l-0.3-0.3l-0.2-0.2c-0.2-0.2-0.4-0.3-0.6-0.5l-1.1-0.9l-0.1-0.1c-3.1-2.5-6.3-4.8-9.8-6.8c-1.7-1-2.3-3.1-1.3-4.8
	c1-1.7,3.1-2.3,4.8-1.3c3.8,2.1,7.3,4.6,10.7,7.4l0.2,0.1l1.2,1l0.7,0.6l0.3,0.3l0.2,0.2l0.1,0.1l0.1,0.1l0.3,0.3
	c0.3,0.2,0.5,0.5,0.8,0.8l0.4,0.4l0.7,0.7l0.9,0.9l0.1,0.1l0.1,0.1c0.6,0.7,1.2,1.3,1.9,2s1.2,1.3,1.8,2s1.1,1.4,1.7,2.1
	c1.1,1.4,2.2,2.9,3.1,4.4l0.4,0.6l0.1,0.1l0,0l0.1,0.1l0.2,0.4c0.2,0.3,0.3,0.5,0.5,0.8s0.3,0.5,0.4,0.7s0.1,0.2,0.2,0.3
	c0.1,0.2,0.3,0.5,0.4,0.7s0.4,0.6,0.5,0.9s0.4,0.7,0.6,1.1s0.4,0.8,0.6,1.2s0.4,0.8,0.6,1.2s0.6,1.1,0.8,1.7v0.1v0.1l0.1,0.2
	l0.1,0.1l0,0c0.2,0.5,0.5,1,0.7,1.5v0.1l0.1,0.2c0.2,0.5,0.4,1,0.6,1.6c0.1,0.2,0.2,0.5,0.3,0.8l0,0c0,0.1,0,0.1,0.1,0.2l0.3,0.9
	c0.3,0.7,0.5,1.4,0.7,2c0.1,0.2,0.1,0.4,0.2,0.7s0.1,0.4,0.2,0.6v0.1c0,0.1,0.1,0.1,0.1,0.2c0.1,0.1,0.1,0.3,0.1,0.4
	c0,0,0,0.1,0,0.1l0.1,0.4c0.1,0.2,0.1,0.4,0.2,0.7l0,0v0.1c0,0.1,0.1,0.2,0.1,0.3l0,0l0.1,0.2l0.1,0.4l0.2,0.8
	c0.1,0.3,0.1,0.6,0.2,0.8c0.1,0.4,0.2,0.9,0.3,1.3c0.1,0.2,0.1,0.5,0.1,0.7C202.1,159.7,200.5,161.3,198.6,161.2
	C198.6,161.2,198.6,161.2,198.6,161.2z M194.3,155.1c0,0,0,0.1,0,0.1C194.3,155.1,194.3,155.1,194.3,155.1z M201,153.1
	C201,153.1,201,153.1,201,153.1L201,153.1z M196.9,142.1L196.9,142.1z"/>
<path class="st0" d="M221.1,203.3c-0.7,0-1.4-0.2-1.9-0.6c-1.6-1.1-2.1-3.2-1-4.9c5.1-7.6,7.8-16.6,7.7-25.7c0-0.3,0-0.7,0-1
	s0-0.7,0-1.1s0-0.7-0.1-1c0-0.1,0-0.1,0-0.2c0-0.3,0-0.6-0.1-0.9s-0.1-0.8-0.1-1.1c-0.1-1.3-0.4-2.7-0.6-4.1s-0.6-2.7-1-4
	c-0.6-1.9,0.5-3.8,2.4-4.4s3.8,0.5,4.4,2.4c0.4,1.6,0.8,3.1,1.1,4.6s0.6,3.2,0.7,4.7c0,0.4,0.1,0.8,0.1,1.2s0.1,0.8,0.1,1.2
	s0.1,0.8,0.1,1.2s0,0.8,0,1.2s0,0.8,0,1.2c0,10.5-3.1,20.8-8.9,29.6C223.3,202.7,222.3,203.3,221.1,203.3z"/>
<path class="st0" d="M189.3,199.3c-1.8,0-3.3-1.4-3.5-3.2l-1.1-10c-0.2-1.9,1.2-3.6,3.2-3.8c1.9-0.2,3.6,1.2,3.8,3.2l0,0l0.2,2.1
	l0.9,7.9c0,0.1,0,0.3,0,0.4C192.8,197.7,191.2,199.3,189.3,199.3L189.3,199.3z"/>
<path class="st0" d="M165.3,223.3c-1.9,0-3.5-1.6-3.5-3.5c0-0.9,0.4-1.8,1-2.5l35-35c1.4-1.4,3.6-1.4,5,0c1.4,1.4,1.4,3.6,0,5
	l-35,35C167.2,222.9,166.3,223.3,165.3,223.3z"/>
<path class="st0" d="M165.3,223.3c-1.5,0-2.9-1-3.4-2.5c-0.8-2.7-1.4-5.5-1.8-8.4c-0.1-0.5-0.1-1-0.2-1.6c-1.1-11,1.2-22,6.6-31.6
	c0-0.1,0.1-0.1,0.1-0.2c2.3-4.1,5.2-7.9,8.6-11.3c2.7-2.8,5.8-5.2,9.1-7.3c0.9-0.6,1.6-1,2.3-1.4h0.1c3.5-2,7.2-3.5,11-4.6h0.1
	c6.7-1.9,13.6-2.6,20.6-1.9c3.4,0.3,6.7,1,9.9,1.9c1.1,0.3,2,1.2,2.4,2.4c0.4,1.6,0.8,3.1,1.1,4.6s0.6,3.1,0.7,4.7l0.1,1.2l0.1,1.2
	c0,0.3,0.1,0.8,0.1,1.2s0,0.8,0,1.2s0,0.8,0,1.2c0,10.5-3.1,20.8-8.9,29.5c-1,1.6-3.2,2.1-4.8,1.1c-1-0.6-1.6-1.8-1.6-3l0,0
	c0-0.7,0.2-1.4,0.6-2c5.1-7.6,7.8-16.6,7.7-25.7c0-0.3,0-0.7,0-1s0-0.7,0-1.1s0-0.7-0.1-1s-0.1-0.8-0.1-1.1l-0.1-1.1
	c-0.1-1.3-0.4-2.7-0.6-4c-0.1-0.7-0.3-1.4-0.5-2.2c-2.2-0.6-4.5-1-6.8-1.2c-6-0.7-12.1-0.1-17.9,1.5l-0.3,0.1c-3.3,1-6.4,2.3-9.4,4
	l-0.1,0.1c-0.6,0.3-1.2,0.7-1.9,1.1c-2.9,1.8-5.5,3.9-7.9,6.3c-3,3-5.5,6.3-7.5,9.9c0,0.1-0.1,0.1-0.1,0.2
	c-4.6,8.3-6.6,17.9-5.6,27.4c0.1,0.4,0.1,0.9,0.2,1.3c0.3,2.5,0.8,4.9,1.5,7.3c0.5,1.9-0.5,3.8-2.4,4.4
	C166,223.2,165.7,223.3,165.3,223.3z"/>
<path class="st0" d="M179.7,225.3h-0.5c-5,0-10-0.8-14.9-2.2c-1.9-0.6-2.9-2.5-2.4-4.4s2.5-2.9,4.4-2.4c4.2,1.2,8.6,1.9,13,1.9h0.4
	c12.3,0.1,24.1-4.8,32.7-13.5c2.1-2.1,4-4.4,5.7-6.9l0.1-0.1c5.1-7.6,7.8-16.6,7.7-25.7c0-0.3,0-0.7,0-1s0-0.7,0-1.1s0-0.7-0.1-1
	c0-0.1,0-0.1,0-0.2c0-0.3,0-0.6-0.1-0.9s-0.1-0.8-0.1-1.1c-0.1-1.3-0.4-2.7-0.6-4.1s-0.6-2.7-1-4c-0.6-1.9,0.5-3.8,2.4-4.4
	s3.8,0.5,4.4,2.4c0.4,1.6,0.8,3.1,1.1,4.6s0.6,3.2,0.7,4.7c0,0.4,0.1,0.8,0.1,1.2s0.1,0.8,0.1,1.2s0.1,0.8,0.1,1.2s0,0.8,0,1.2
	s0,0.8,0,1.2c0,10.5-3,20.7-8.8,29.5c0,0.1-0.1,0.1-0.1,0.1C214.2,216.5,197.6,225.4,179.7,225.3L179.7,225.3z"/>
<path class="st0" d="M104.8,203.1c-1.2,0-2.3-0.6-2.9-1.6c-7.1-10.8-10.1-23.7-8.5-36.5c0.1-0.6,0.2-1.1,0.2-1.7
	c0-0.3,0.1-0.7,0.2-1.1c0.2-1.2,0.5-2.5,0.8-3.8c0.2-0.6,0.3-1.3,0.5-1.9c0.6-1.9,2.5-2.9,4.4-2.4c1.9,0.6,2.9,2.5,2.4,4.4l0,0
	c-0.2,0.5-0.3,1.1-0.4,1.6c-0.3,1.1-0.5,2.2-0.7,3.3c-0.1,0.3-0.1,0.6-0.2,0.9c-0.1,0.5-0.2,1-0.2,1.5c-1.5,11.1,1.2,22.4,7.3,31.7
	c1.1,1.6,0.6,3.8-1,4.9C106.2,202.9,105.5,203.1,104.8,203.1L104.8,203.1z"/>
<path class="st0" d="M136.7,199.1h-0.4c-1.9-0.2-3.3-2-3.1-3.9l1.1-9.9c0.2-1.9,1.9-3.4,3.8-3.2s3.4,1.9,3.2,3.8l-0.2,2l-0.9,8
	C140,197.8,138.5,199.1,136.7,199.1z"/>
<path class="st0" d="M160.6,223.1c-0.9,0-1.8-0.4-2.5-1l-36.2-36.2c-1.4-1.4-1.4-3.6,0-5c1.4-1.4,3.6-1.4,5,0l36.2,36.2
	c1.4,1.4,1.4,3.6,0,5C162.5,222.7,161.6,223.1,160.6,223.1L160.6,223.1z"/>
<path class="st0" d="M160.6,223.1c-0.3,0-0.7-0.1-1-0.1c-1.8-0.5-2.9-2.5-2.4-4.3c0,0,0,0,0,0c0.6-2.1,1.1-4.2,1.4-6.4
	c0.1-0.4,0.1-0.8,0.1-1.2c1.1-8.9-0.3-17.9-4.2-26l-0.1-0.1c-2.2-4.6-5.2-8.8-8.8-12.4c-2.4-2.4-5-4.5-7.9-6.3
	c-10.8-6.8-24-8.9-36.4-5.8c-0.4,1.4-0.7,2.9-0.9,4.3c0,0,0,0.1,0,0.1c-0.1,0.3-0.1,0.6-0.1,0.9v0.3c0,0.1,0,0.2,0,0.3
	c0,0.3-0.1,0.6-0.1,0.9s0,0.4-0.1,0.6c0,0.1,0,0.1,0,0.2c0,0.3,0,0.6-0.1,0.9c0,0.5,0,1-0.1,1.5s0,1.1,0,1.7
	c0,9.1,2.7,18.1,7.7,25.7c1.1,1.6,0.7,3.8-0.8,4.9c-1.6,1.1-3.8,0.7-4.9-0.8c-0.1-0.1-0.1-0.2-0.2-0.3c-5.8-8.7-8.9-19-8.9-29.5
	c0-0.6,0-1.3,0-1.9s0-1.1,0.1-1.6c0-0.4,0-0.7,0.1-1s0-0.5,0.1-0.8s0.1-0.8,0.1-1.2c0-0.2,0-0.4,0.1-0.6s0.1-0.7,0.2-1.1
	c0.4-2.4,0.9-4.7,1.6-7.1c0.3-1.1,1.2-2,2.4-2.4c14.8-4.5,30.9-2.3,44,6c3.3,2.1,6.3,4.5,9.1,7.3c4.1,4.1,7.5,8.9,10.1,14.1l0.1,0.2
	c1.3,2.6,2.3,5.3,3.1,8c2.1,7.1,2.8,14.6,1.8,22c-0.1,0.4-0.1,0.9-0.2,1.4c-0.4,2.5-0.9,4.9-1.6,7.3
	C163.5,222,162.2,223,160.6,223.1z"/>
<path class="st0" d="M146.3,225.1C116.9,225.2,93,201.4,93,172c0-5.3,0.8-10.5,2.3-15.5c0.6-1.9,2.5-2.9,4.4-2.4
	c1.9,0.6,2.9,2.5,2.4,4.4l0,0c-4,13.3-1.8,27.6,5.8,39.1c1.7,2.5,3.6,4.9,5.8,7c12.1,12,29.8,16.4,46.1,11.6
	c1.9-0.6,3.8,0.5,4.4,2.4s-0.5,3.8-2.4,4.4C156.7,224.4,151.5,225.1,146.3,225.1z"/>
<path class="st0" d="M162.7,280.8c-10.9,0-21.7-1.6-32.1-4.8c-2.1-0.6-3.3-2.9-2.6-5c0.6-2.1,2.9-3.3,5-2.6
	c32.5,9.9,67.7,3.1,94.2-18.1l0.1-0.1l0.3-0.3l0.2-0.1c3.7-3,7.1-6.2,10.4-9.7c38.6-41.5,36.3-106.5-5.3-145.1
	c-9.3-8.6-20-15.4-31.7-20.1c-2.1-0.8-3-3.2-2.2-5.2c0.8-2.1,3.2-3,5.2-2.2c56.7,22.7,84.3,87.2,61.6,143.9
	c-5.1,12.6-12.4,24.2-21.7,34.2c-3.5,3.7-7.2,7.2-11.1,10.4c-0.3,0.2-0.5,0.5-0.8,0.7c-16.3,13.1-36.1,21.3-56.9,23.6
	C171,280.6,166.8,280.8,162.7,280.8z"/>
<path class="st0" d="M95.9,257.2c-0.8,0-1.7-0.3-2.3-0.8c-0.2-0.2-0.4-0.3-0.6-0.5c-3.9-3.2-7.7-6.7-11.1-10.4
	C40.2,200.7,42.8,130.7,87.6,89c26.5-24.6,63.3-34.8,98.7-27.1c2.2,0.5,3.5,2.6,3.1,4.8c-0.5,2.2-2.6,3.5-4.8,3.1l0,0
	C129.1,57.8,74.4,93,62.5,148.5c-8.1,37.7,5.6,76.9,35.5,101.3l0.1,0.1l0.2,0.2c1.8,1.3,2.2,3.8,0.8,5.6
	C98.4,256.6,97.2,257.2,95.9,257.2L95.9,257.2z"/>
<path class="st0" d="M112.6,268c-0.5,0-1.1-0.1-1.6-0.3l-0.3-0.1c-0.8-0.2-1-0.4-3.3-1.7c-1.9-1.2-2.4-3.6-1.3-5.5
	c1.1-1.8,3.5-2.4,5.3-1.4l1.7,1c0.3,0.1,0.7,0.2,1,0.4c2,0.9,3,3.2,2.1,5.2C115.6,267.1,114.2,268,112.6,268L112.6,268z"/>
</svg>
