<?xml version="1.0" encoding="utf-8"?>
<!-- Generator: Adobe Illustrator 25.2.0, SVG Export Plug-In . SVG Version: 6.00 Build 0)  -->
<svg version="1.1" id="Layer_1" xmlns="http://www.w3.org/2000/svg" xmlns:xlink="http://www.w3.org/1999/xlink" x="0px" y="0px"
	 viewBox="0 0 303.3 303.3" style="enable-background:new 0 0 303.3 303.3;" xml:space="preserve">
<style type="text/css">
	.st0{fill:#FFFFFF;}
</style>
<path class="st0" d="M217.7,246.9c-2.2,0-4-1.8-4-4c0-1.2,0.6-2.4,1.5-3.1c44.2-35.3,51.3-99.7,16-143.9
	c-11-13.8-25.5-24.5-41.9-31.1c-2-0.8-3-3.2-2.2-5.2c0.8-2,3.2-3,5.2-2.2c56.6,22.7,84.1,86.9,61.4,143.5
	c-7.1,17.7-18.6,33.2-33.5,45.1C219.5,246.6,218.6,246.9,217.7,246.9z"/>
<path class="st0" d="M84.7,247c-0.9,0-1.8-0.3-2.5-0.9C34.6,208,26.9,138.6,65,90.9c27.1-33.9,71.6-48.8,113.6-38
	c2.1,0.6,3.4,2.7,2.9,4.9s-2.7,3.4-4.9,2.9C121.8,46.7,66,79.8,52,134.6c-9.9,39,3.8,80.1,35.2,105.3c1.7,1.4,2,3.9,0.6,5.6
	C87.1,246.4,86,247,84.7,247L84.7,247z"/>
<path class="st0" d="M202.9,169.1c-0.7,0-1.4-0.2-1.9-0.6c-1.6-1.1-2.1-3.2-1-4.9c4.4-6.7,6.8-14.5,6.8-22.5c0-0.3,0-0.6,0-0.9
	s0-0.6,0-0.9s0-0.6-0.1-0.9s0-0.7-0.1-0.9s-0.1-0.6-0.1-0.9c-0.3-2.4-0.7-4.8-1.4-7.1c-0.6-1.9,0.5-3.8,2.4-4.4s3.8,0.5,4.4,2.4
	c0.8,2.7,1.4,5.5,1.7,8.3c0,0.3,0.1,0.7,0.1,1s0.1,0.8,0.1,1.2s0.1,0.7,0.1,1.1s0,0.7,0,1.1s0,0.7,0,1.1c0,9.4-2.7,18.6-7.9,26.4
	C205.2,168.5,204.1,169.1,202.9,169.1z"/>
<path class="st0" d="M174.8,165.6c-1.8,0-3.3-1.4-3.5-3.2l-1-8.8c-0.2-1.9,1.2-3.6,3.2-3.8c1.9-0.2,3.6,1.2,3.8,3.2l0.2,1.8l0.8,6.9
	c0,0.1,0,0.3,0,0.4C178.2,164,176.7,165.6,174.8,165.6z"/>
<path class="st0" d="M153.6,186.8c-1.9,0-3.5-1.6-3.5-3.5c0-0.9,0.4-1.8,1-2.5l30.9-30.9c1.4-1.4,3.6-1.4,5,0c1.4,1.4,1.4,3.6,0,5
	L156,185.8C155.4,186.4,154.5,186.8,153.6,186.8z"/>
<path class="st0" d="M153.6,186.8c-1.6,0-2.9-1-3.4-2.5c-5-16.8-0.4-34.9,11.9-47.3c2.5-2.5,5.2-4.6,8.1-6.5
	c11.7-7.4,26-9.3,39.2-5.4c1.1,0.3,2,1.2,2.4,2.4c0.8,2.7,1.4,5.5,1.7,8.3c0,0.3,0.1,0.7,0.1,1s0.1,0.8,0.1,1.2s0.1,0.7,0.1,1.1
	s0,0.7,0,1.1s0,0.7,0,1.1c0,9.4-2.7,18.6-7.9,26.4c-1.1,1.6-3.3,2-4.9,1s-2-3.3-1-4.9c4.4-6.7,6.8-14.5,6.8-22.5c0-0.3,0-0.6,0-0.9
	s0-0.6,0-1s0-0.6-0.1-0.9s0-0.6-0.1-0.9s-0.1-0.6-0.1-0.9c-0.2-1.8-0.5-3.5-0.9-5.3c-10.8-2.7-22.2-0.8-31.6,5.1
	c-2.5,1.6-4.8,3.4-6.9,5.5c-10.5,10.6-14.4,26.1-10.1,40.4c0.5,1.9-0.5,3.8-2.4,4.3c0,0,0,0,0,0
	C154.3,186.8,153.9,186.8,153.6,186.8z"/>
<path class="st0" d="M166.3,188.6c-4.6,0-9.2-0.7-13.7-2c-1.9-0.6-2.9-2.5-2.4-4.4s2.5-2.9,4.4-2.4c14.3,4.3,29.8,0.4,40.4-10.1
	c7.6-7.6,11.9-17.9,11.8-28.7c0-0.3,0-0.6,0-0.9s0-0.6,0-1s0-0.6-0.1-0.9s0-0.6-0.1-0.9s-0.1-0.6-0.1-0.9c-0.3-2.4-0.7-4.8-1.4-7.1
	c-0.6-1.9,0.5-3.8,2.4-4.4s3.8,0.5,4.4,2.4c0.8,2.7,1.4,5.5,1.7,8.3c0,0.3,0.1,0.7,0.1,1s0.1,0.8,0.1,1.2s0.1,0.7,0.1,1.1
	s0,0.7,0,1.1s0,0.7,0,1.1c0,9.4-2.7,18.6-7.9,26.4c-1.7,2.6-3.7,5-5.9,7.2C191,183.6,178.9,188.6,166.3,188.6z"/>
<path class="st0" d="M100,168.2c-1.2,0-2.3-0.6-2.9-1.6c-6.4-9.6-9-21.2-7.6-32.6c0.1-0.5,0.1-1,0.2-1.5c0-0.3,0.1-0.6,0.2-1
	c0.2-1.1,0.4-2.2,0.7-3.4c0.2-0.6,0.3-1.1,0.5-1.7c0.6-1.9,2.5-2.9,4.4-2.4s2.9,2.5,2.4,4.4c-0.1,0.5-0.3,1-0.4,1.4
	c-0.2,1-0.5,1.9-0.6,2.9c0,0.3-0.1,0.5-0.1,0.8c-0.1,0.5-0.1,0.9-0.2,1.3c-1.3,9.7,1,19.6,6.4,27.8c1.1,1.6,0.6,3.8-1,4.9
	C101.3,168,100.7,168.2,100,168.2z"/>
<path class="st0" d="M128.2,164.7c-0.1,0-0.3,0-0.4,0c-1.9-0.2-3.3-2-3.1-3.9l1-8.8c0.2-1.9,1.9-3.4,3.8-3.2
	c1.9,0.2,3.4,1.9,3.2,3.8l-0.2,1.8l-0.8,7.1C131.5,163.4,130,164.7,128.2,164.7z"/>
<path class="st0" d="M149.4,185.9c-0.9,0-1.8-0.3-2.5-1l-32.1-32.1c-1.4-1.4-1.4-3.6,0-5c1.4-1.4,3.6-1.4,5,0l0,0l32.1,32.1
	c1.4,1.3,1.4,3.6,0.1,4.9c0,0,0,0-0.1,0.1C151.2,185.6,150.3,185.9,149.4,185.9z"/>
<path class="st0" d="M149.4,185.9c-0.3,0-0.7,0-1-0.1c-1.9-0.5-2.9-2.5-2.4-4.3c0,0,0,0,0,0c4.3-14.3,0.4-29.8-10.1-40.4
	c-2.1-2.1-4.4-3.9-6.9-5.5c-9.4-5.9-20.8-7.8-31.6-5.1c-2.8,11.1-0.7,22.9,5.6,32.4c1.1,1.6,0.6,3.8-1,4.9c-1.6,1.1-3.8,0.6-4.9-1
	c-7.9-11.8-10.1-26.5-6-40.1c0.3-1.1,1.2-2,2.4-2.4c13.2-3.9,27.6-2,39.2,5.4c2.9,1.9,5.6,4,8.1,6.5c12.3,12.4,16.9,30.6,11.9,47.3
	C152.3,184.9,150.9,185.9,149.4,185.9z"/>
<path class="st0" d="M136.7,187.7c-12.6,0-24.8-5-33.7-13.9c-2.2-2.2-4.2-4.6-5.9-7.2c-7.9-11.8-10.1-26.5-6-40.1
	c0.6-1.9,2.5-2.9,4.4-2.4s2.9,2.5,2.4,4.4c-3.4,11.6-1.5,24.2,5.2,34.2c1.5,2.2,3.1,4.3,5,6.1c10.6,10.5,26.1,14.4,40.4,10.1
	c1.9-0.6,3.8,0.5,4.4,2.4s-0.5,3.8-2.4,4.4C145.9,187,141.3,187.7,136.7,187.7z"/>
<path class="st0" d="M151.2,205.7c-1.9,0-3.5-1.6-3.5-3.5v-17.3c0-1.9,1.6-3.5,3.5-3.5s3.5,1.6,3.5,3.5l0,0v17.3
	C154.8,204.1,153.2,205.7,151.2,205.7z"/>
<path class="st0" d="M81.6,260.9c-1.8,0-3.4-1.4-3.5-3.2c0-0.1,0-0.3,0-0.4V257c0-9.7,3.8-18.9,10.6-25.8
	c7.5-7.6,17.8-11.9,28.5-11.9h1.2c1.9,0.1,3.5,1.7,3.4,3.6s-1.7,3.5-3.6,3.4h-1c-8.8,0-17.3,3.5-23.5,9.8
	c-5.5,5.6-8.6,13.1-8.6,20.9v0.1c0,0.1,0,0.2,0,0.3C85.1,259.3,83.5,260.9,81.6,260.9C81.6,260.9,81.6,260.9,81.6,260.9z"/>
<path class="st0" d="M220.9,260.9c-0.2,0-0.4,0-0.6,0c-1.8-0.3-3.1-1.9-2.9-3.7v-0.1c0-7.8-3.1-15.4-8.6-20.9
	c-6.2-6.3-14.7-9.8-23.5-9.8c-0.6,0-1.2,0-1.8,0c-1.9,0.1-3.6-1.4-3.7-3.3s1.4-3.6,3.3-3.7c0.7,0,1.4-0.1,2.1-0.1
	c10.7,0,21,4.2,28.5,11.9c6.8,6.9,10.6,16.1,10.6,25.8v0.2c0,0.3,0,0.5-0.1,0.8C224,259.7,222.6,260.9,220.9,260.9z M217.4,256.8
	L217.4,256.8z"/>
<path class="st0" d="M183.3,226.4c-1.4,0-2.6-0.8-3.2-2c-5.2-11-16.7-18.1-29.3-18.1s-24.1,7.1-29.3,18.1c-0.8,1.7-2.9,2.5-4.7,1.7
	c-1.7-0.8-2.5-2.9-1.7-4.7l0,0c6.3-13.4,20.3-22.1,35.7-22.1s29.3,8.7,35.7,22.1c0.8,1.8,0.1,3.8-1.7,4.7
	C184.3,226.3,183.8,226.4,183.3,226.4L183.3,226.4z"/>
<path class="st0" d="M165.1,274.8h-27.7c-1.9,0-3.5-1.6-3.5-3.5s1.6-3.5,3.5-3.5h27.7c1.9,0,3.5,1.6,3.5,3.5S167,274.8,165.1,274.8z
	"/>
<path class="st0" d="M81.6,260.9c-1.8,0-3.4-1.4-3.5-3.2c0-0.1,0-0.3,0-0.4V257c0-1.9,1.6-3.5,3.5-3.5s3.5,1.6,3.5,3.5v0.1
	c0,0.1,0,0.2,0,0.3C85.1,259.3,83.5,260.9,81.6,260.9C81.6,260.9,81.6,260.9,81.6,260.9z"/>
<path class="st0" d="M220.9,260.9c-0.2,0-0.4,0-0.6,0c-1.8-0.3-3.1-1.9-2.9-3.7v-0.1c0-1.9,1.6-3.5,3.5-3.5s3.5,1.6,3.5,3.5v0.2
	c0,0.3,0,0.5-0.1,0.8C224,259.7,222.6,260.9,220.9,260.9z M217.4,256.8L217.4,256.8z"/>
</svg>
