<?xml version="1.0" encoding="utf-8"?>
<!-- Generator: Adobe Illustrator 25.2.0, SVG Export Plug-In . SVG Version: 6.00 Build 0)  -->
<svg version="1.1" id="Layer_1" xmlns="http://www.w3.org/2000/svg" xmlns:xlink="http://www.w3.org/1999/xlink" x="0px" y="0px"
	 viewBox="0 0 324.9 324.9" style="enable-background:new 0 0 324.9 324.9;" xml:space="preserve">
<style type="text/css">
	.st0{fill:#FFFFFF;}
</style>
<path class="st0" d="M268.4,88.1c-1.9,0.1-3.6-1.5-3.6-3.4c-0.1-1.9,1.5-3.6,3.4-3.6l24.2-1.6l14.7-45l-45,14.7l-1.6,24.1
	c-0.1,1.9-1.8,3.4-3.7,3.3c-1.9-0.1-3.4-1.8-3.3-3.7l1.8-26.5c0.1-1.4,1.1-2.7,2.4-3.1l0.5-0.1l53.3-17.4c1.3-0.4,2.6-0.1,3.6,0.9
	c0.9,0.9,1.3,2.3,0.9,3.6l-17.5,53.8c-0.4,1.4-1.7,2.3-3.1,2.4l-26.5,1.8H268.4z"/>
<path class="st0" d="M246.1,109.4c-1.9,0-3.5-1.6-3.5-3.5c0-0.9,0.4-1.8,1-2.5l8.3-8.3c1.4-1.4,3.6-1.4,5,0c1.4,1.4,1.4,3.6,0,5
	l-8.3,8.3C248,109,247.1,109.4,246.1,109.4z"/>
<path class="st0" d="M236.1,98.4c-1.9,0-3.5-1.6-3.5-3.5c0-0.9,0.4-1.8,1-2.5l7.8-7.8c1.4-1.4,3.6-1.4,5,0s1.4,3.6,0,5l-7.8,7.8
	C238,98.1,237.1,98.5,236.1,98.4z"/>
<path class="st0" d="M256.1,101.3c-0.7,0-1.5,0-2.2-0.2c-1.9-0.3-3.2-2.1-3-4c0.3-1.9,2.1-3.2,4-3c0.4,0.1,0.8,0.1,1.3,0.1
	c4.9,0,8.9-3.9,8.9-8.8c0,0,0,0,0,0c0-0.2,0-0.4,0-0.6v-0.1c-0.3-4.4-3.8-7.9-8.2-8.2h-0.6c-4.9,0-8.8,4-8.9,8.8
	c0,0.4,0,0.8,0.1,1.2c0.3,1.9-1.1,3.7-3,4s-3.7-1.1-4-3c-0.1-0.7-0.2-1.5-0.1-2.2c0-8.7,7.1-15.8,15.8-15.8c0.4,0,0.7,0,1.1,0
	c7.9,0.5,14.2,6.8,14.7,14.8l0,0c0,0.3,0,0.7,0,1C272,94.1,264.9,101.2,256.1,101.3C256.2,101.3,256.1,101.3,256.1,101.3z"/>
<path class="st0" d="M56.2,88.1H56l-26.5-1.8c-1.4-0.1-2.7-1.1-3.1-2.4L8.8,30.1c-0.6-1.8,0.4-3.8,2.2-4.4c0.7-0.2,1.5-0.2,2.2,0
	L67,43.3c1.4,0.4,2.3,1.7,2.4,3.1l1.8,26.5c0.1,1.9-1.3,3.6-3.3,3.7c-1.9,0.1-3.6-1.3-3.7-3.3l-1.6-24.1l-45-14.7l14.7,45l24.2,1.6
	c1.9,0.1,3.4,1.7,3.4,3.6C59.8,86.7,58.2,88.2,56.2,88.1L56.2,88.1z"/>
<path class="st0" d="M88.9,98.8c-0.9,0-1.8-0.3-2.5-1l-8.2-8.2c-1.4-1.4-1.4-3.6,0-5s3.6-1.4,5,0l8.2,8.2c1.4,1.3,1.4,3.6,0.1,4.9
	c0,0,0,0-0.1,0.1C90.7,98.5,89.8,98.8,88.9,98.8z"/>
<path class="st0" d="M79,109.9c-0.9,0-1.8-0.3-2.5-1l-8.7-8.7c-1.4-1.4-1.4-3.6,0-5s3.6-1.4,5,0l8.7,8.7c1.4,1.4,1.4,3.6,0,5
	C80.9,109.5,80,109.9,79,109.9L79,109.9z"/>
<path class="st0" d="M68.5,101.3c-8.7,0-15.8-7.1-15.9-15.8c0-0.4,0-0.7,0-1.1c0.6-7.9,6.9-14.2,14.8-14.7c0.3,0,0.7,0,1.1,0
	c8.7,0,15.8,7.1,15.8,15.8c0,0.7-0.1,1.5-0.2,2.2c-0.3,1.9-2.1,3.2-4,3c-1.9-0.3-3.2-2.1-3-4c0.1-0.4,0.1-0.8,0.1-1.2
	c0-4.9-4-8.8-8.8-8.8H68c-4.4,0.3-8,3.8-8.3,8.2c0,0.2,0,0.4,0,0.6c0,4.9,4,8.8,8.8,8.8c0.4,0,0.8,0,1.2-0.1c1.9-0.3,3.7,1.1,4,3
	c0.3,1.9-1.1,3.7-3,4C70.1,101.2,69.3,101.3,68.5,101.3z"/>
<path class="st0" d="M12.6,319c-0.9,0-1.8-0.4-2.5-1c-0.9-0.9-1.3-2.3-0.9-3.6l17.5-53.8c0.4-1.4,1.7-2.3,3.1-2.4l26.5-1.8
	c1.9-0.1,3.6,1.3,3.7,3.3c0.1,1.9-1.3,3.6-3.3,3.7L32.8,265l-14.7,45l45-14.7l1.6-24.2c0.1-1.9,1.8-3.4,3.7-3.3
	c1.9,0.1,3.4,1.8,3.3,3.7l-1.8,26.5c-0.1,1.4-1.1,2.7-2.4,3.1l-0.4,0.1l-53.3,17.4C13.4,318.9,13,319,12.6,319z"/>
<path class="st0" d="M70.8,250.4c-1.9,0-3.5-1.5-3.5-3.5c0-1,0.4-1.9,1.1-2.5l8.3-8.3c1.4-1.4,3.6-1.4,4.9,0s1.4,3.6,0,4.9l0,0
	l-8.3,8.3C72.6,250,71.7,250.3,70.8,250.4z"/>
<path class="st0" d="M81.2,260.8c-0.9,0-1.8-0.4-2.5-1c-1.4-1.4-1.4-3.6,0-4.9c0,0,0,0,0,0l7.8-7.8c1.4-1.4,3.6-1.4,5,0s1.4,3.6,0,5
	l-7.8,7.8C83.1,260.5,82.2,260.9,81.2,260.8z"/>
<path class="st0" d="M69,274.9c-0.4,0-0.7,0-1.1,0c-7.9-0.6-14.2-6.9-14.7-14.8c0-0.3,0-0.7,0-1c0-8.7,7.1-15.9,15.8-15.9
	c0.7,0,1.4,0.1,2.1,0.2c1.9,0.2,3.3,2,3.1,3.9s-2,3.3-3.9,3.1c-0.2,0-1-0.1-1.4-0.1c-4.9,0-8.8,4-8.8,8.9c0,0.2,0,0.4,0,0.6
	c0.3,4.4,3.8,8,8.2,8.3H69c4.9,0,8.8-4,8.8-8.8c0-0.4,0-0.8-0.1-1.2c0-0.2,0-0.3,0-0.5c-0.1-1.9,1.4-3.6,3.3-3.7s3.6,1.4,3.7,3.3
	c0.1,0.7,0.1,1.4,0.1,2.1C84.9,267.9,77.7,274.9,69,274.9z"/>
<path class="st0" d="M313,319c-0.4,0-0.7-0.1-1.1-0.2l-53.8-17.5c-1.4-0.4-2.3-1.7-2.4-3.1l-1.8-26.5c-0.1-1.9,1.3-3.6,3.3-3.7
	c1.9-0.1,3.6,1.3,3.7,3.3l1.6,24.2l45,14.7l-14.7-45l-24.2-1.6c-1.9-0.1-3.4-1.8-3.3-3.7c0.1-1.9,1.8-3.4,3.7-3.3l26.5,1.8
	c1.4,0.1,2.7,1,3.1,2.4l17.5,53.8c0.6,1.8-0.4,3.8-2.2,4.4C313.8,318.9,313.4,319,313,319z"/>
<path class="st0" d="M254.9,250.4c-0.9,0-1.8-0.4-2.5-1l-0.1-0.1l-8.7-8.7c-1.4-1.4-1.4-3.6,0-5s3.6-1.4,5,0l8.8,8.8
	c1.4,1.4,1.4,3.6,0.1,4.9c0,0,0,0-0.1,0.1C256.8,250.1,255.9,250.4,254.9,250.4z"/>
<path class="st0" d="M244.4,260.8c-0.9,0-1.8-0.4-2.5-1l-8.1-8.1c-1.4-1.4-1.4-3.6,0-5c1.4-1.4,3.6-1.4,5,0l8.1,8.1
	c1.4,1.4,1.4,3.6,0,5C246.2,260.5,245.3,260.9,244.4,260.8L244.4,260.8z"/>
<path class="st0" d="M256.6,274.9c-8.7,0-15.8-7.1-15.9-15.8c0-0.7,0-1.5,0.1-2.2c0.1-1.9,1.8-3.4,3.7-3.3s3.4,1.8,3.3,3.7
	c0,0.2,0,0.3,0,0.5c-0.1,0.4-0.1,0.8-0.1,1.2c0,4.9,4,8.8,8.9,8.8h0.6c4.4-0.3,8-3.8,8.3-8.2c0-0.2,0-0.4,0-0.6c0-4.9-4-8.9-8.9-8.9
	c-0.2,0-0.6,0.1-0.9,0.1h-0.2c-1.9,0.3-3.7-1-4-2.9c-0.3-1.9,1-3.7,2.9-4h0.1c0.7-0.1,1.4-0.2,2.1-0.2c8.8,0,15.8,7.1,15.9,15.9
	c0,0.4,0,0.7,0,1.1c-0.6,7.9-6.9,14.2-14.8,14.7C257.3,274.9,256.9,274.9,256.6,274.9z"/>
<path class="st0" d="M92.9,295.7c-2.2,0-4-1.8-4-4c0-0.7,0.2-1.4,0.5-2l4.8-8.2c1.2-1.9,3.7-2.4,5.5-1.2c1.8,1.1,2.4,3.4,1.4,5.2
	l-4.8,8.2C95.7,294.9,94.3,295.7,92.9,295.7z"/>
<path class="st0" d="M227.2,61.7c-2.2,0-4-1.8-4-4c0-0.7,0.2-1.3,0.5-1.9l4.1-7.5c0.9-2,3.2-3,5.3-2.1c2,0.9,3,3.2,2.1,5.3
	c-0.1,0.2-0.2,0.4-0.3,0.6l-4.1,7.5C230,60.9,228.7,61.7,227.2,61.7z"/>
<path class="st0" d="M184.6,46.2c-0.2,0-0.4,0-0.7,0c-2.2-0.4-3.6-2.4-3.3-4.6c0,0,0,0,0,0l5.3-31.4c0.4-2.2,2.5-3.6,4.6-3.2
	c2.1,0.4,3.6,2.4,3.3,4.6l-5.3,31.4C188.2,44.8,186.5,46.2,184.6,46.2z"/>
<path class="st0" d="M138.3,309.6c-0.2,0-0.4,0-0.6,0c-2.2-0.3-3.7-2.4-3.4-4.5l0.9-6.1c0.3-2.2,2.4-3.7,4.6-3.4
	c2.2,0.3,3.7,2.4,3.4,4.6l-0.9,6.1C142,308.2,140.3,309.6,138.3,309.6z"/>
<path class="st0" d="M284.7,130.1c-2.2,0-4-1.8-4-4c0-1.7,1.1-3.2,2.6-3.8l12.8-4.6c2.1-0.8,4.4,0.3,5.1,2.4
	c0.8,2.1-0.3,4.4-2.4,5.1l0,0l-12.8,4.6C285.6,130.1,285.2,130.1,284.7,130.1z"/>
<path class="st0" d="M33.3,221.9c-2.2,0-4-1.8-4-4c0-1.6,1-3.1,2.5-3.7l5.8-2.4c2-0.8,4.4,0.2,5.2,2.2c0.8,2-0.2,4.4-2.2,5.2
	l-5.8,2.4C34.4,221.8,33.9,221.9,33.3,221.9z"/>
<path class="st0" d="M290.6,152.1c-2.2,0-4-1.8-4-4c0-1.9,1.4-3.6,3.3-3.9l27.3-4.5c2.2-0.4,4.2,1.1,4.6,3.3
	c0.4,2.2-1.1,4.2-3.3,4.6l-27.4,4.5C291,152.1,290.8,152.1,290.6,152.1z"/>
<path class="st0" d="M7,202.1c-2.2,0-4-1.8-4-4c0-1.9,1.4-3.6,3.3-3.9l26.2-4.6c2.2-0.4,4.3,1,4.7,3.2c0.4,2.2-1,4.3-3.2,4.7
	L7.7,202C7.5,202.1,7.2,202.1,7,202.1z"/>
<path class="st0" d="M302,175.4h-0.2l-9.5-0.6c-2.2-0.1-3.9-2-3.8-4.2s2-3.9,4.2-3.8l9.5,0.6c2.2,0.1,3.9,1.9,3.9,4.1
	S304.2,175.5,302,175.4z"/>
<path class="st0" d="M31.3,174.8h-0.1L19,174.4c-2.2-0.1-3.9-1.9-3.9-4.1c0.1-2.2,1.9-3.9,4.1-3.9l12.1,0.4c2.2,0,4,1.9,3.9,4.1
	C35.3,173.1,33.5,174.9,31.3,174.8z"/>
<path class="st0" d="M317.9,231.6c-0.5,0-0.9-0.1-1.4-0.2l-33.2-12.1c-2.1-0.8-3.1-3-2.4-5.1c0.8-2.1,3-3.1,5.1-2.4l33.2,12.1
	c2.1,0.8,3.1,3,2.4,5.1C321.1,230.5,319.6,231.6,317.9,231.6L317.9,231.6z"/>
<path class="st0" d="M39.2,130.1c-0.5,0-1-0.1-1.4-0.3l-27-10.3c-2-0.9-3-3.2-2.1-5.2c0.8-1.9,3-2.9,5-2.2l27,10.3
	c2.1,0.8,3.1,3.1,2.3,5.2C42.3,129.1,40.8,130.2,39.2,130.1z"/>
<path class="st0" d="M280.8,243.1c-0.6,0-1.3-0.2-1.8-0.4l-5.7-2.9c-2-1-2.7-3.4-1.7-5.4c1-2,3.4-2.7,5.4-1.7l0,0l5.7,2.9
	c2,1,2.7,3.4,1.7,5.4C283.7,242.2,282.3,243.1,280.8,243.1z"/>
<path class="st0" d="M48.8,109.5c-0.5,0-1-0.1-1.5-0.3l-4.4-1.8c-2.1-0.8-3-3.2-2.2-5.3c0.8-2.1,3.2-3,5.3-2.2l4.4,1.8
	c2,0.8,3,3.2,2.2,5.2C52,108.5,50.5,109.5,48.8,109.5L48.8,109.5z"/>
<path class="st0" d="M237.6,306c-1.4,0-2.7-0.8-3.5-2l-10.4-18c-1.1-1.9-0.4-4.4,1.5-5.5s4.4-0.4,5.5,1.5l10.4,18
	c1.1,1.9,0.4,4.4-1.5,5.5C239,305.8,238.3,306,237.6,306L237.6,306z"/>
<path class="st0" d="M96.6,61.7c-1.4,0-2.7-0.7-3.4-1.9l-4.7-7.5c-1.2-1.9-0.6-4.3,1.3-5.5s4.3-0.6,5.5,1.3l4.7,7.5
	c1.2,1.9,0.6,4.3-1.3,5.5C98.1,61.5,97.4,61.7,96.6,61.7z"/>
<path class="st0" d="M186.9,317.8c-2,0-3.6-1.4-3.9-3.4l-2.3-14.3c-0.3-2.2,1.2-4.2,3.3-4.6c2.2-0.3,4.2,1.2,4.6,3.3l2.2,14.3
	c0.3,2.2-1.1,4.2-3.3,4.6C187.3,317.8,187.1,317.8,186.9,317.8z"/>
<path class="st0" d="M139.2,46.2c-2,0-3.7-1.5-3.9-3.4l-4.9-33.4c-0.4-2.2,1-4.3,3.2-4.7c2.2-0.4,4.3,1,4.7,3.2c0,0.1,0,0.2,0,0.3
	l4.9,33.4c0.3,2.2-1.2,4.2-3.4,4.5C139.6,46.2,139.4,46.2,139.2,46.2L139.2,46.2z"/>
<path class="st0" d="M161.9,323.6c-2.2,0-4-1.8-4-4v-18.1c0-2.2,1.8-4,4-4s4,1.8,4,4v18.1C165.9,321.8,164.1,323.6,161.9,323.6z"/>
<path class="st0" d="M161.9,44.2c-2.1,0-3.9-1.7-4-3.8l-0.3-7.2c-0.1-2.2,1.6-4.1,3.8-4.2c2.2-0.1,4.1,1.6,4.2,3.8l0.3,7.2
	c0.1,2.2-1.6,4.1-3.8,4.2H161.9z"/>
<path class="st0" d="M268.6,163c-0.1-0.2-0.2-0.3-0.3-0.5c-1.8-0.2-2.5-1.6-3.5-2.9c-3.8-4.8-6.2-4.8-10.3-0.2
	c-1.4,1.6-2.8,3.4-4.2,5.1c-1.3-1-2.2-2.4-2.3-4.1c-2.5-0.9-1.5-3.8-2.8-5.3l-3.8-2.4c-4.1-1.2-7.8-4-12.3-3.5
	c-1.6,1.7-1.8,4.2-0.5,6.1c0.8,1.3,3.1,2.3,1.5,4.4s-4,2-6.1,1.4c-3.6-1-5.9-4.2-8.5-6.6c-0.9-0.8-0.2-2.1,0.8-2.9
	c0.7-1.6,1.3-3.2,2-4.8c0.4-4.5-2-6.4-6.2-6.6c-1.8-0.2-3.5-0.2-5.3-0.1c-3.1,0.2-5.3-0.4-7.2-3.4c-2.7-4.1-5.6-4.2-9.8-1.4
	c-2.5,1.7-4.4,4.7-8.5,5c1.4-3.5,5-5.3,4.9-8.9c-0.1-3.8-3.8-5.2-6-7.9c2.2-0.9,3.2,0.4,4.2,1.2c10.9,7.9,25,2.5,27.9-10.7
	c0.8-3.8-0.6-6.6-3.8-8.5s-5.5-0.1-7.6,2.1c-1.8,1.8-3.3,4-5.7,5.1c-0.6,0.5-1.5,0.3-2-0.3c0,0,0-0.1-0.1-0.1
	c-0.5-0.8,0.3-1.2,0.6-1.6c3.4-3.9,6.7-7.8,10.1-11.6c1.9-2.1,4.3-3.1,6.9-1.9c2.4,1.1,2.5,3.4,2.3,5.8c-0.4,2.8,1.1,5.5,3.8,6.6
	c2.8,1.3,4.9,0.1,6.9-1.7c4.4-4,8.4-8.4,15.2-7.9c0.6,0,1.3-0.1,1.9-0.3c-0.5-0.5-0.9-1-1.4-1.5s-1-1-1.5-1.5s-1.1-1.2-1.7-1.7
	c-0.4-0.4-0.9-0.8-1.3-1.2l0,0c-1.7,0.9-3.5,1.5-5.4,1.6c-3.2,0.2-6.2,4-9.7,6.6c-0.3-5.8-2.6-9.9-8.2-11.3
	c-6.2-1.6-10.6,1.3-14.3,5.8c-1.9,2.2-3.5,4.6-5.5,6.7c-4,4.1-8.7,7.9-4.6,14.8c-0.6-0.1-1.2-0.2-1.8-0.3c-4.1-1.8-7.9-1.9-10.5,2.4
	s-1.3,7.7,2.4,10.4c2.6,1.9,0.4,2.8-0.5,4c-3.8,4.9-3.7,6.9,0.5,11.2c5.2,2.6,9.6,0.7,13.5-2.9c2.1-1.9,3.7-2.9,5.4,0.4
	c1.4,2.8,4.2,3.5,7,3.2c2.5-0.2,5,0.7,6.7,2.5c-1.1,1.6-3,2.4-4.9,2c-4.9-0.6-9.7-0.1-14.6-1.6c-8.6-2.7-12.6-0.5-16.4,7.6
	c-0.5,1-1.1,1.9-1.8,2.7l-4.2,6.7c-0.1,1.7-0.2,3.3-0.4,5c1.9,10.7,7.2,15,16,13.2c6.5-1.4,8.3,0.1,8.6,6.9
	c0.2,5.8-0.5,11.5,0.5,17.3c0.9,5,3.2,8.9,8.3,10s8.5-2.1,11.1-6c2.6-4,4.9-8.2,8.1-11.9c2-2.2,2.5-5.4,1.4-8.2
	c-1-2.6-0.2-4.1,1.5-5.9c2-2,3.9-4.3,5.4-6.7c2.7-4.3,0.9-7.6-4.1-7.9c-1.4-0.1-2.9,0.6-3.8-1.1c-1.6-1.2-2.5-3-2.7-4.9
	c1.6,1.7,3.4,2.1,5.1,2.7l9.4-2.4l3.8-3.2c0.8-1.4,0.2-4.1,2-4.3s2.3,2.2,3,3.8c0.9,1.8,1.8,3.7,2.8,5.5c3.2,5.6,5,6,10.3,2.6
	c0.3-0.6,0.6-1.1,0.9-1.7c3.7-5.1,3.7-5.1,8.5-1c1.7,0.6,3.4,1.2,5,1.8C268.9,167.6,268.8,165.2,268.6,163z M204.5,113.9
	c-0.1,4.1-1.9,6.5-5.2,7.2c-4.4,0.9-9.1,2.5-12.1-3.5C194.1,121.5,199.5,118.9,204.5,113.9L204.5,113.9z M221.2,179.2
	c-1.4,1.6-2.6,3.1-4,4.4c-2.6,2.6-3.6,5.6-2.2,9.2c1,2.1,0.4,4.6-1.4,6.1c-3.1,2.9-4.5,7-6.9,10.4c-1,1.4-2,3.3-4,2.9
	c-2.2-0.4-2.8-2.5-3.1-4.4c-0.8-3.6-0.4-7.3-0.5-11c0.1-3.2,0-6.4-0.4-9.6c-1.3-7.5-6.4-10.9-13.9-9.6c-7.7,1.2-9.2,0.1-10.3-8
	c0.3-1.7,1.3-3.3,2.9-4.2c0.8-1.3,1.6-2.6,2.4-3.9c2.9-7.1,5.2-8.1,11.6-4.8l3.2,0.6c1.8,0.1,3.6,0.2,5.4,0.3c0.6,0,1.2-0.1,1.9-0.1
	c7.8,0.2,7.8,0.2,9.2,7.9c0.5,1.9,0.9,3.8,1.4,5.8C214.6,174.4,216.8,177.8,221.2,179.2L221.2,179.2z"/>
<path class="st0" d="M146.2,191.8c-5.4-0.3-8.8-3.3-12.1-6.9c-2.7-2.9-6.2-4.4-9.9-5.8c-4.1-0.8-8.1-1.4-12,0.8
	c-1.2,0.7-3.2,0-3.1-1.2c0.2-2.9-2.1-3.9-3.2-5.6l-4.3-3.1c-0.2,0-0.3,0-0.5-0.1c-2.1-0.9-4.6-2.2-3-4.6c1.4-2,3.6-0.4,5,1.2l2.8,2
	l4.1-0.6c4.3-4.7,5.9-10.9,8.5-16.5c1.9-3.9,3.8-7.5,8.7-8.9s5.9-5.6,3.4-10c-1.4-2.4-3.6-4.2-6.1-5.2c-3.9-1.5-7.4-3.8-10.3-6.8
	c-1.2-1.3-2.7-2.5-4.7-1.7c-2.2,0.9-2.1,2.9-2.1,4.9c0,3.4,0.7,6.8-0.5,10.3c-7.6-4.9-7.9-6.3-3.4-13.2c1.2-1.7,2.2-3.5,3-5.4
	c1.9-4.7,0.1-7.5-4.9-7.6c-4.5-0.1-9-0.1-13.5,0l-3,0.1l-2.8,0.1c-1.6,0-3.1,0.1-4.6,0l0,0c-1.6,2.1-3.1,4.2-4.5,6.4l0,0
	c2.5,0.1,5,0.2,7.5,0.2h2.8H86c4.3-0.1,8.5,0,13,0c-0.4,2.6-2,4.3-3.3,6c-3.4,4.2-2.8,8.2,0,12.3c1.9,3,4.6,5.4,7.7,7.1
	c5.6,3,9.8,0.8,10.5-5.6c0.2-1.3,0.2-2.5,0.4-4.4c3.9,2.1,8,2.7,10.9,6.5c-7,1.2-9.9,6.4-12.4,11.9c-0.5,1.1-1,2.4-1.5,3.5
	c-3.6,8.2-3.6,8.2-11.8,5.5c-2.1,0.5-4.2,1.3-5.9,2.6c-6.7,7.9,0.3,12.6,4.3,18.3c-4.3-2.7-9.1-4.5-10.9-9.7c-2.3-2.1-3-5.3-4.8-7.7
	c-5.2-4.9-7.1-11-7.8-18c-0.2-2.1-0.6-4.2-1.4-6.2l0,0c-1.4-3.6-3.7-6.7-6.6-9.2l0,0c-1,2.2-1.9,4.3-2.8,6.6l0,0
	c2.2,2.4,3.7,5.5,4.1,8.7c0.1,0.6,0.2,1.1,0.3,1.7c0.3,1.9,0.6,3.8,0.9,5.7c0.3,1.6,0.6,3.3,0.8,4.9c0.9,1.4,2,2.8,1.9,4.6
	c2.7,1.2,3.8,3.8,5.5,6c1.5,1.8,2.2,4.1,3,6.2c7,9,14.7,16.6,28.1,12.1c-3.2,7.7-1.6,14.1,3.4,19.9c3,3.4,3.5,7.3,2.2,11.6
	c-1.7,5.2-3.2,10.4-4.5,15.7c-1.7,7.4,0.8,13.2,7.1,17.4c3.7,2.5,7.5,1.6,7.7-2.5c0.1-8.4,3.8-16.3,10.1-21.8
	c0.6-0.7,1.1-1.6,1.4-2.5c2-3.9,3.5-8.2,8.6-9.6c1-0.3,2-1.7,2.4-2.8c1.5-3.5,2.7-7.2,3.8-10.9C151.2,195.1,149.8,192,146.2,191.8z
	 M143.1,199.3c-1.7,3.1-0.8,8-6,8.9c-1.6,0.4-2.9,1.6-3.5,3.1c-3,6.4-7.1,12.2-12,17.3c-3,3.1-3.3,7.6-3.4,12.2
	c-3.8-2.6-3.2-5.7-2.5-8.6c1.1-4.7,2.4-9.3,3.9-13.9c2.4-7,1.5-13.1-3.1-18.9c-4.2-5.4-4.8-10-1.9-13c2.4-2.5,8.1-1.9,12.9,1.7
	s8,9.5,14.9,9.8C143.2,197.8,143.4,198.6,143.1,199.3L143.1,199.3z"/>
<line class="st0" x1="48.9" y1="211.8" x2="70.9" y2="201.7"/>
<line class="st0" x1="53" y1="222.7" x2="81.4" y2="214.9"/>
<line class="st0" x1="204.5" y1="288.6" x2="195.9" y2="244.2"/>
<line class="st0" x1="230.5" y1="270.8" x2="204.5" y2="242.9"/>
<path class="st0" d="M162.1,283.2c-11,0-21.9-1.6-32.3-4.8c-2.1-0.6-3.3-2.9-2.6-5s2.9-3.3,5-2.6c54.7,16.7,112.5-14.1,129.2-68.8
	c15.7-51.4-10.6-106.2-60.4-126.2c-2-0.8-3-3.2-2.2-5.2c0.8-2,3.2-3,5.2-2.2c57.1,22.9,84.9,87.8,62,144.9
	c-15.3,38.1-50.3,64.7-91.1,69.3C170.6,283,166.4,283.2,162.1,283.2z"/>
<path class="st0" d="M97.7,261.6c-0.9,0-1.7-0.3-2.4-0.8c-3.3-2.5-6.4-5.2-9.4-8c-9.7-9.1-17.7-19.9-23.5-31.8
	c-2.1-4.3-4-8.8-5.5-13.3c-2.6-7.6-4.3-15.5-5.2-23.5c-3.3-29.1,5-58.3,23.2-81.3C93.3,79.4,120.3,64.3,150,61
	c10.4-1.2,20.8-0.9,31.1,0.9c2.2,0.3,3.8,2.3,3.5,4.5s-2.3,3.8-4.5,3.5c-0.1,0-0.2,0-0.4-0.1c-9.5-1.6-19.3-1.8-28.9-0.8
	c-56.8,6.3-97.7,57.5-91.3,114.3c0.8,7.4,2.5,14.7,4.8,21.8c1.4,4.2,3.1,8.3,5.1,12.3c5.4,11.1,12.9,21.1,21.9,29.6
	c2.8,2.6,5.7,5.1,8.7,7.4c1.8,1.3,2.1,3.8,0.8,5.6C100.1,261,99,261.6,97.7,261.6L97.7,261.6z"/>
<path class="st0" d="M111.7,270.4c-0.5,0-1.1-0.1-1.6-0.3l-0.3-0.1c-0.8-0.2-1-0.4-3.3-1.7c-1.9-1.1-2.6-3.5-1.6-5.4
	s3.5-2.6,5.4-1.6c0.1,0,0.1,0.1,0.2,0.1l1.7,1c0.3,0.1,0.7,0.2,1,0.4c2,0.9,3,3.2,2.1,5.2C114.8,269.4,113.3,270.4,111.7,270.4
	L111.7,270.4z"/>
</svg>
