<svg id="Layer_1" data-name="Layer 1" xmlns="http://www.w3.org/2000/svg" viewBox="0 0 303.31 303.31"><defs><style>.cls-1{fill:#1b1b1b;}</style></defs><path class="cls-1" d="M153.41,286.71a81.26,81.26,0,0,1-57.9-23.89L64.4,231.72A126.3,126.3,0,0,1,51.25,69.17a3.5,3.5,0,1,1,5.68,4.09C23.27,120,28.61,186,69.35,226.77l31.11,31.1a75.12,75.12,0,0,0,105.91,0l11.69-11.69a1.59,1.59,0,0,1,.13-.13,3.5,3.5,0,1,1,5,4.93l-11.85,11.84A81.32,81.32,0,0,1,153.41,286.71Z"/><path class="cls-1" d="M266.63,192.5a3.45,3.45,0,0,1-1.32-.26,3.5,3.5,0,0,1-1.92-4.56A118.89,118.89,0,0,0,76.56,52,3.5,3.5,0,1,1,72,46.69,125.91,125.91,0,0,1,269.88,190.32,3.52,3.52,0,0,1,266.63,192.5Z"/><path class="cls-1" d="M102.24,167.48c-23.62,0-42.83-15.11-42.83-33.68s19.21-33.68,42.83-33.68,42.84,15.11,42.84,33.68S125.86,167.48,102.24,167.48Zm0-60.36c-19.76,0-35.83,12-35.83,26.68s16.07,26.68,35.83,26.68,35.84-12,35.84-26.68S122,107.12,102.24,107.12Z"/><path class="cls-1" d="M205.64,167.48c-23.63,0-42.84-15.11-42.84-33.68s19.21-33.68,42.84-33.68,42.83,15.11,42.83,33.68S229.26,167.48,205.64,167.48Zm0-60.36c-19.77,0-35.84,12-35.84,26.68s16.07,26.68,35.84,26.68,35.83-12,35.83-26.68S225.4,107.12,205.64,107.12Z"/><path class="cls-1" d="M193,232.88a3.5,3.5,0,0,1-2.48-6A32.16,32.16,0,0,0,198,215.62h0c0-.06.05-.13.08-.19a29.55,29.55,0,0,0,1.07-3.75h0a3.5,3.5,0,0,1,7,.38,4.07,4.07,0,0,1,0,.47v0a2.2,2.2,0,0,1-.06.37,36.09,36.09,0,0,1-1.44,5,2,2,0,0,1-.11.26,39,39,0,0,1-9,13.61A3.46,3.46,0,0,1,193,232.88Z"/><path class="cls-1" d="M153.43,247.91c-23.58,0-44-11.81-50.91-29.4l-.06-.14a35.75,35.75,0,0,1-1.69-6h0a3.39,3.39,0,0,1-.07-.7,3.51,3.51,0,0,1,3.5-3.52,3.48,3.48,0,0,1,3.47,3.08,29.14,29.14,0,0,0,1.3,4.54l0,.06h0c5.72,14.74,24,25,44.42,25a56.69,56.69,0,0,0,27.42-6.78,3.5,3.5,0,1,1,3.39,6.12A63.62,63.62,0,0,1,153.43,247.91Zm-45.72-36.23Zm-.17-1h0Zm0,0h0Z"/><path class="cls-1" d="M153.43,208.56a64.36,64.36,0,0,1-28.29-6.35c-1.21-.59-2.38-1.21-3.49-1.86a3.5,3.5,0,0,1,1.65-6.58,3.61,3.61,0,0,1,1.79.48h0c1,.58,2,1.14,3.13,1.68a59.27,59.27,0,0,0,50.17.12l.18-.09c1.29-.63,2.32-1.18,3.23-1.72h0a3.55,3.55,0,0,1,1.82-.51,3.5,3.5,0,0,1,1.66,6.58c-1,.6-2.13,1.2-3.49,1.87l-.18.09A64.46,64.46,0,0,1,153.43,208.56Z"/><path class="cls-1" d="M105.75,220.65a3.5,3.5,0,0,1-3.15-2,17.43,17.43,0,0,1-1.86-6.47l0-.31c0-.41,0-.83,0-1.31a17.63,17.63,0,0,1,9.83-15.86,17.94,17.94,0,0,1,14-.74h0l.1,0a16.65,16.65,0,0,1,4.14,2.23,3.5,3.5,0,0,1-4.17,5.62,9.6,9.6,0,0,0-2.48-1.31l-.15-.06a10.37,10.37,0,0,0-3.6-.63,10.49,10.49,0,0,0-4.74,1.11,10.66,10.66,0,0,0-6,9.6c0,.24,0,.48,0,.71,0,.07,0,.14,0,.21a10.32,10.32,0,0,0,1.14,4,3.5,3.5,0,0,1-3.1,5.13Z"/><path class="cls-1" d="M201.23,220.35a3.5,3.5,0,0,1-3.5-3.5,3.63,3.63,0,0,1,.37-1.58h0a10.67,10.67,0,0,0,1-3.43h0a.19.19,0,0,1,0-.08.68.68,0,0,1,0-.15c0-.33,0-.67,0-1a10.73,10.73,0,0,0-5.54-9.38,10.87,10.87,0,0,0-8.71-.73.47.47,0,0,1-.15.06,9.55,9.55,0,0,0-2.57,1.38h0l-.11.08a3.5,3.5,0,0,1-4.47-5.36,3.6,3.6,0,0,1,.47-.39,16.76,16.76,0,0,1,4.25-2.27l.09,0h0A17.91,17.91,0,0,1,197,195.09a17.71,17.71,0,0,1,9.15,15.5,18,18,0,0,1-.09,1.81h0s0,.09,0,.13,0,.09,0,.14a17.85,17.85,0,0,1-1.58,5.52A3.48,3.48,0,0,1,201.23,220.35Z"/><path class="cls-1" d="M102.25,167.48a3.5,3.5,0,0,1,0-7c.36,0,.72,0,1.07,0a3.5,3.5,0,1,1,.22,7Z"/><path class="cls-1" d="M153.78,230a38,38,0,0,1-25.28-9.61,3.5,3.5,0,1,1,4.66-5.23,31,31,0,0,0,41.49-.22,3.5,3.5,0,1,1,4.71,5.18A38,38,0,0,1,153.78,230Z"/><path class="cls-1" d="M194.09,137.3a3.5,3.5,0,0,1-2.35-6.09,20.77,20.77,0,0,1,27.77-.15,3.5,3.5,0,0,1-4.66,5.23,13.77,13.77,0,0,0-18.41.1A3.48,3.48,0,0,1,194.09,137.3Z"/><path class="cls-1" d="M90.7,137.3a3.5,3.5,0,0,1-2.36-6.09,20.77,20.77,0,0,1,27.77-.15,3.5,3.5,0,1,1-4.65,5.23,13.77,13.77,0,0,0-18.41.1A3.48,3.48,0,0,1,90.7,137.3Z"/><path class="cls-1" d="M239.64,260.34a35.29,35.29,0,0,1-7.55-.79c-7.83-1.73-13.49-6.07-15.92-12.21a17.77,17.77,0,0,1-1.14-8.41c.68-7.08,5.29-14.34,12.64-19.91a3.5,3.5,0,1,1,4.23,5.57c-5.8,4.4-9.41,9.87-9.9,15a10.77,10.77,0,0,0,.67,5.15c1.56,3.92,5.44,6.74,10.93,8,6,1.32,13,.57,19.82-2.13,10.57-4.19,18.23-12.22,19.08-20a11,11,0,0,0-.66-5.32,10.33,10.33,0,0,0-1.2-2.19,3.5,3.5,0,0,1,5.7-4.07,17.35,17.35,0,0,1,2,3.67,17.82,17.82,0,0,1,1.12,8.68c-1.14,10.42-10.35,20.53-23.46,25.73A44.71,44.71,0,0,1,239.64,260.34Z"/><path class="cls-1" d="M247.12,247.93a18.05,18.05,0,0,1-7.84-1.76c-12-5.74-15.1-23.49-7-40.41s23.82-25.68,35.84-19.94h0c12,5.73,15.09,23.48,7,40.4C268.7,239.64,257.48,247.93,247.12,247.93Zm13.27-56.82c-7.63,0-16.73,7-21.81,17.67-6.18,12.93-4.48,27.16,3.71,31.07s20.33-3.71,26.5-16.64,4.48-27.17-3.71-31.08A10.88,10.88,0,0,0,260.39,191.11Z"/><path class="cls-1" d="M235.5,242.16a3.5,3.5,0,0,1-3.31-4.64,51.34,51.34,0,0,1,2.24-5.41c5.35-11.21,11.77-15.37,17.44-19,5.36-3.48,10.42-6.76,14.92-16.19a44.15,44.15,0,0,0,1.89-4.55,3.5,3.5,0,1,1,6.61,2.29,50.55,50.55,0,0,1-2.18,5.28c-5.35,11.21-11.77,15.37-17.44,19-5.36,3.48-10.43,6.76-14.93,16.18a44.65,44.65,0,0,0-1.93,4.68A3.5,3.5,0,0,1,235.5,242.16Z"/><path class="cls-1" d="M89.36,187.86a3.49,3.49,0,0,1-2.44-1,3.33,3.33,0,0,1-.72-.91,3.53,3.53,0,1,1,3.16,1.9Z"/><path class="cls-1" d="M62.56,193.94a3.49,3.49,0,0,1-3-1.62,3.43,3.43,0,0,1-.53-1.48,3.6,3.6,0,0,1,.05-1.18,3.51,3.51,0,1,1,3.43,4.28Z"/><path class="cls-1" d="M81.92,208.88A3.46,3.46,0,0,1,79,207.32a3.58,3.58,0,0,1-.53-2.67,3.51,3.51,0,1,1,5.38,3.65A3.54,3.54,0,0,1,81.92,208.88Z"/><path class="cls-1" d="M184.33,69.87a3.5,3.5,0,0,1-3.5-3.5,3.66,3.66,0,0,1,.41-1.65,3.56,3.56,0,0,1,.69-1,3.5,3.5,0,0,1,5.58,4.09v0A3.5,3.5,0,0,1,184.33,69.87Z"/><path class="cls-1" d="M208.85,65.21a3.46,3.46,0,0,1-.78-.09,3.61,3.61,0,0,1-2.38-1.86,3.51,3.51,0,1,1,3.16,1.95Z"/><path class="cls-1" d="M205.36,86.66a3.48,3.48,0,0,1-1-.15,3.58,3.58,0,0,1-1.42-.83,3.81,3.81,0,0,1-.73-1,3.52,3.52,0,1,1,3.16,1.94Z"/></svg>