<svg id="Layer_1" data-name="Layer 1" xmlns="http://www.w3.org/2000/svg" viewBox="0 0 303.31 303.31"><defs><style>.cls-1{fill:#1e1e1c;}</style></defs><path class="cls-1" d="M99.77,139.13a21.36,21.36,0,0,1-6.58-41.69,3.5,3.5,0,1,1,2.15,6.66,14.37,14.37,0,1,0,9.84,27,3.5,3.5,0,1,1,2.66,6.47A21.22,21.22,0,0,1,99.77,139.13Z"/><path class="cls-1" d="M162.47,69A3.46,3.46,0,0,1,160,68,3.5,3.5,0,1,1,165,68h0A3.48,3.48,0,0,1,162.47,69Z"/><path class="cls-1" d="M259.2,182.84a3.49,3.49,0,0,1-2.55-5.89,71.67,71.67,0,0,0-73-117.58c-1.45.43-3,.94-4.82,1.63a3.5,3.5,0,0,1-2.45-6.55c2-.75,3.69-1.32,5.29-1.79a78.66,78.66,0,0,1,80.1,129.08A3.51,3.51,0,0,1,259.2,182.84Z"/><path class="cls-1" d="M240.14,203.2a3.49,3.49,0,0,1-2.55-5.89l19-20.36a3.5,3.5,0,0,1,5.11,4.78L242.7,202.09A3.48,3.48,0,0,1,240.14,203.2Z"/><path class="cls-1" d="M106.51,137.81a3.5,3.5,0,0,1-1.74-6.54l.09-.05.16-.09,22.75-11.47,15.29-7.88a3.5,3.5,0,0,1,3.2,6.23L131,125.89l-22.7,11.46A3.54,3.54,0,0,1,106.51,137.81Z"/><path class="cls-1" d="M131.35,85.1a3.5,3.5,0,0,1-1.61-6.61L176,54.62a3.5,3.5,0,1,1,3.22,6.21L133,84.71A3.43,3.43,0,0,1,131.35,85.1Z"/><path class="cls-1" d="M94.26,104.27a3.5,3.5,0,0,1-1.61-6.61l22-11.38a3.5,3.5,0,1,1,3.22,6.22l-22,11.38A3.6,3.6,0,0,1,94.26,104.27Z"/><path class="cls-1" d="M140.84,69a3.5,3.5,0,1,1,2.47-6h0a3.49,3.49,0,0,1,0,5A3.44,3.44,0,0,1,140.84,69Z"/><path class="cls-1" d="M44.11,182.84a3.52,3.52,0,0,1-2.56-1.1A78.67,78.67,0,0,1,121.68,52.67c1.58.46,3.26,1,5.26,1.78A3.5,3.5,0,1,1,124.49,61c-1.84-.69-3.36-1.2-4.79-1.62A71.66,71.66,0,0,0,46.66,177a3.49,3.49,0,0,1-2.55,5.89Z"/><path class="cls-1" d="M151.66,74.62a3.6,3.6,0,0,1-1.61-.39L124.11,60.84a3.5,3.5,0,0,1,3.21-6.22L153.26,68a3.5,3.5,0,0,1-1.6,6.61Z"/><path class="cls-1" d="M149.56,287.23a21.32,21.32,0,0,1-14.87-6l-.22-.22c-.17-.17-.37-.38-.53-.56l-.43-.46a3.5,3.5,0,0,1,5.15-4.75l.45.48c.1.12.21.24.31.34l.18.19a14.31,14.31,0,0,0,17.44,1.9,14.06,14.06,0,0,0,4.82-4.85A14.43,14.43,0,0,0,163,260.71a3.5,3.5,0,0,1,6.54-2.51,21.48,21.48,0,0,1-1.64,18.63,20.83,20.83,0,0,1-7.21,7.26A21.17,21.17,0,0,1,149.56,287.23Z"/><path class="cls-1" d="M137.13,282.18a3.48,3.48,0,0,1-2.48-1l-.17-.18-.09-.08L66.63,208.46,39.85,179.84A3.5,3.5,0,0,1,45,175.06l94.65,101.15a3.51,3.51,0,0,1-2.48,6Z"/><path class="cls-1" d="M173.83,264.65a21.32,21.32,0,0,1-14.88-6l-.12-.12-.1-.11c-.18-.17-.36-.37-.52-.54l-.07-.07c-.19-.2-.37-.4-.54-.61a3.5,3.5,0,0,1,5.51-4.33l.13.14.13.14a2.28,2.28,0,0,0,.21.22l.2.2.11.13a14.33,14.33,0,0,0,17.42,1.87,13.38,13.38,0,0,0,2.33-1.75,14.08,14.08,0,0,0,2.49-3.09,14.43,14.43,0,0,0,1.12-12.55,3.5,3.5,0,0,1,6.53-2.51,21.45,21.45,0,0,1-1.63,18.63,20.56,20.56,0,0,1-3.73,4.63,20.9,20.9,0,0,1-3.48,2.63A21.26,21.26,0,0,1,173.83,264.65Z"/><path class="cls-1" d="M161.4,259.6a3.52,3.52,0,0,1-2.56-1.11l-50.31-53.76a3.51,3.51,0,0,1,5.12-4.79L164,253.7a3.51,3.51,0,0,1-2.55,5.9Z"/><path class="cls-1" d="M198.09,242.06a21.48,21.48,0,0,1-9.05-2,21.26,21.26,0,0,1-5.82-4l-.12-.11-.1-.11-.53-.55-.06-.07a8,8,0,0,1-.54-.62,3.5,3.5,0,0,1,5.5-4.32l.13.14.14.14a2.28,2.28,0,0,0,.21.22l.19.2.12.12a14.05,14.05,0,0,0,3.85,2.65,14.34,14.34,0,0,0,13.57-.77,14,14,0,0,0,4.81-4.84,14.42,14.42,0,0,0,1.13-12.56,3.5,3.5,0,0,1,6.53-2.51,21.43,21.43,0,0,1-1.64,18.64,20.24,20.24,0,0,1-3.72,4.63,21.55,21.55,0,0,1-14.6,5.76Z"/><path class="cls-1" d="M185.66,237a3.5,3.5,0,0,1-2.55-1.1L132.8,182.14a3.5,3.5,0,0,1,5.11-4.78l50.3,53.76a3.49,3.49,0,0,1-2.55,5.89Z"/><path class="cls-1" d="M222.36,219.48a21.3,21.3,0,0,1-14.87-6l-.12-.12-.1-.11c-.17-.16-.34-.34-.5-.51s-.4-.43-.59-.66a3.5,3.5,0,0,1,5.42-4.44l.28.32.24.25.19.18.11.12a14.29,14.29,0,0,0,17.42,1.88,13.15,13.15,0,0,0,2.34-1.76,13.75,13.75,0,0,0,2.49-3.08,14.41,14.41,0,0,0-1.81-17.22,7.07,7.07,0,0,0-.73-.7,3.5,3.5,0,0,1,4.48-5.38,12.57,12.57,0,0,1,1.36,1.3,21.42,21.42,0,0,1,2.71,25.57,20.75,20.75,0,0,1-7.22,7.26A21.16,21.16,0,0,1,222.36,219.48Z"/><path class="cls-1" d="M234.38,188.39a3.51,3.51,0,0,1-2.56-1.1l-47.34-50.6a3.5,3.5,0,1,1,5.11-4.79l47.34,50.6a3.49,3.49,0,0,1-2.55,5.89Z"/><path class="cls-1" d="M209.93,214.43a3.48,3.48,0,0,1-2.56-1.11l-50.3-53.76a3.5,3.5,0,1,1,5.11-4.78l50.3,53.76a3.49,3.49,0,0,1-.16,4.94A3.44,3.44,0,0,1,209.93,214.43Z"/><path class="cls-1" d="M185.32,137.82a56,56,0,0,1-43.38-20.73,3.5,3.5,0,1,1,5.45-4.39,48.7,48.7,0,0,0,54.06,15.37,47.85,47.85,0,0,0,13.51-7.3,3.5,3.5,0,0,1,4.27,5.54,54.77,54.77,0,0,1-15.47,8.37,55.69,55.69,0,0,1-16.62,3.11C186.54,137.81,185.93,137.82,185.32,137.82Z"/><path class="cls-1" d="M194.18,57a3.5,3.5,0,0,1,0-7h0a3.5,3.5,0,1,1,0,7Z"/></svg>