<svg id="Layer_1" data-name="Layer 1" xmlns="http://www.w3.org/2000/svg" viewBox="0 0 303.31 303.31"><defs><style>.cls-1{fill:#1b1b1b;}</style></defs><path class="cls-1" d="M223.42,156.4a3.41,3.41,0,0,1-.55-.05,3.5,3.5,0,0,1-2.91-4l.2-1.28L222,138.46a3.5,3.5,0,1,1,6.93,1l-2,14A3.5,3.5,0,0,1,223.42,156.4Z"/><path class="cls-1" d="M260.68,205.46a3.5,3.5,0,0,1-1.19-.2l-43-15.51a3.52,3.52,0,0,1-2.27-3.81l.21-1.42,1.58-11.31.48-3a3.5,3.5,0,1,1,6.91,1.11l-.47,2.91-1.38,9.88L259.87,198A68.28,68.28,0,0,0,281,146a3.5,3.5,0,0,1,7-.23A75.26,75.26,0,0,1,263,204.58,3.49,3.49,0,0,1,260.68,205.46Z"/><path class="cls-1" d="M157.29,224.24a3.5,3.5,0,0,1-1.74-6.54l.07,0,18.53-10.91.21-.13,108.33-63.74a3.5,3.5,0,1,1,3.55,6L178.12,212.53l-.21.13-18.78,11.05-.11.06A3.41,3.41,0,0,1,157.29,224.24Z"/><path class="cls-1" d="M176.13,213.14a3.5,3.5,0,0,1-3.5-3.38,75.24,75.24,0,0,1,36.8-67.44,73.87,73.87,0,0,1,14.92-6.7,75.41,75.41,0,0,1,61.91,7.27,3.5,3.5,0,0,1,1.7,2.89,75.26,75.26,0,0,1-25,58.8,3.5,3.5,0,0,1-4.66-5.23A68.18,68.18,0,0,0,281,147.93a68.37,68.37,0,0,0-54.51-5.64A67,67,0,0,0,213,148.35a68.26,68.26,0,0,0-33.35,61.18,3.51,3.51,0,0,1-3.39,3.61Z"/><path class="cls-1" d="M213.38,223.48a76,76,0,0,1-39-10.83,3.5,3.5,0,1,1,3.6-6A67.79,67.79,0,0,0,281,146a3.5,3.5,0,0,1,7-.23,75.26,75.26,0,0,1-25,58.8,74.33,74.33,0,0,1-49.62,18.9Z"/><path class="cls-1" d="M91.17,156.4a3.5,3.5,0,0,1-3.45-3l-.2-1.28-1.81-12.73a3.5,3.5,0,1,1,6.93-1l2,13.89a3.49,3.49,0,0,1-2.91,4A3.41,3.41,0,0,1,91.17,156.4Z"/><path class="cls-1" d="M53.91,205.46a3.49,3.49,0,0,1-2.33-.88,75.26,75.26,0,0,1-24.95-58.8,3.5,3.5,0,0,1,7,.23A68.28,68.28,0,0,0,54.72,198L93,184.13l-1.39-9.95-.46-2.84a3.5,3.5,0,1,1,6.91-1.11l.47,2.91,1.8,12.8a3.52,3.52,0,0,1-2.27,3.81L55.1,205.26A3.5,3.5,0,0,1,53.91,205.46Z"/><path class="cls-1" d="M157.33,224.26a3.48,3.48,0,0,1-1.43-.31,2.87,2.87,0,0,1-.39-.2L94.88,188.06l-.25-.16-66.27-39a3.5,3.5,0,1,1,3.55-6L98.42,182l.24.16,60.24,35.46a3.54,3.54,0,0,1,1.55,4.7A3.5,3.5,0,0,1,157.33,224.26ZM96.65,185.05h0Z"/><path class="cls-1" d="M138.46,213.14h-.11a3.51,3.51,0,0,1-3.39-3.61,68.26,68.26,0,0,0-33.35-61.18,67.17,67.17,0,0,0-13.5-6.06,68.35,68.35,0,0,0-54.52,5.64,68.18,68.18,0,0,0,22.66,51.42,3.5,3.5,0,0,1-4.66,5.23,75.26,75.26,0,0,1-25-58.8,3.5,3.5,0,0,1,1.7-2.89,75.39,75.39,0,0,1,61.92-7.26,73.45,73.45,0,0,1,14.91,6.69A75.24,75.24,0,0,1,142,209.76,3.5,3.5,0,0,1,138.46,213.14Z"/><path class="cls-1" d="M101.21,223.48a74.32,74.32,0,0,1-49.63-18.91,75.25,75.25,0,0,1-24.95-58.79,3.5,3.5,0,0,1,7,.23,68.26,68.26,0,0,0,22.62,53.34A67.48,67.48,0,0,0,67,207.19a68.26,68.26,0,0,0,69.68-.55,3.5,3.5,0,1,1,3.6,6A76,76,0,0,1,101.21,223.48Z"/><path class="cls-1" d="M132.92,104.34a3.46,3.46,0,0,1-2.22-.8l-1-.82-10-7.94a3.5,3.5,0,0,1,4.36-5.48l11.05,8.84a3.5,3.5,0,0,1-2.23,6.2Z"/><path class="cls-1" d="M159,126.25a3.47,3.47,0,0,1-2.19-.77l-1.12-.9-9-7.1-2.32-1.92a3.5,3.5,0,1,1,4.46-5.4l2.27,1.88,7.81,6.2,31.33-26a68.34,68.34,0,0,0-34.07-44.52,3.5,3.5,0,1,1,3.35-6.15,75.3,75.3,0,0,1,38,51.32,3.51,3.51,0,0,1-1.2,3.38L161.2,125.45A3.53,3.53,0,0,1,159,126.25Z"/><path class="cls-1" d="M157.85,173.88h0a3.5,3.5,0,0,1-3.5-3.5V44.67a3.5,3.5,0,0,1,3.5-3.5h0a3.5,3.5,0,0,1,3.5,3.5V170.38A3.5,3.5,0,0,1,157.85,173.88Z"/><path class="cls-1" d="M157.84,173.87a3.38,3.38,0,0,1-1.67-.43,75.24,75.24,0,0,1-39.45-65.92,73.57,73.57,0,0,1,1.79-16.25A75.38,75.38,0,0,1,156.18,41.6a3.5,3.5,0,0,1,3.35,0,75.24,75.24,0,0,1,38,51.33,3.5,3.5,0,1,1-6.86,1.37,68.21,68.21,0,0,0-32.83-45.61A68.35,68.35,0,0,0,125.34,92.8a66.54,66.54,0,0,0-1.62,14.72,68.26,68.26,0,0,0,35.8,59.78,3.5,3.5,0,0,1-1.68,6.57Z"/><path class="cls-1" d="M157.85,173.87a3.5,3.5,0,0,1-1.68-6.57A68.24,68.24,0,0,0,192,107.52a67.1,67.1,0,0,0-1.3-13.21,68.27,68.27,0,0,0-34.5-46.56,3.5,3.5,0,1,1,3.35-6.15,75.24,75.24,0,0,1,38,51.33A73.37,73.37,0,0,1,199,107.52a75.23,75.23,0,0,1-39.46,65.92A3.35,3.35,0,0,1,157.85,173.87Z"/><path class="cls-1" d="M157.35,267.59a3.5,3.5,0,0,1-3.5-3.5v-96a3.5,3.5,0,0,1,7,0v96A3.49,3.49,0,0,1,157.35,267.59Z"/></svg>