<?xml version="1.0" encoding="utf-8"?>
<!-- Generator: Adobe Illustrator 25.2.0, SVG Export Plug-In . SVG Version: 6.00 Build 0)  -->
<svg version="1.1" id="Layer_1" xmlns="http://www.w3.org/2000/svg" xmlns:xlink="http://www.w3.org/1999/xlink" x="0px" y="0px"
	 viewBox="0 0 303.3 303.3" style="enable-background:new 0 0 303.3 303.3;" xml:space="preserve">
<style type="text/css">
	.st0{fill:#020202;}
</style>
<path class="st0" d="M158.7,200.1c-30.4,0-55.1-24.7-55.1-55.1s24.7-55,55.1-55s55.1,24.7,55.1,55.1l0,0
	C213.7,175.5,189.1,200.1,158.7,200.1z M158.7,97c-26.6,0-48.1,21.5-48.1,48.1s21.5,48.1,48.1,48.1s48.1-21.5,48.1-48.1l0,0
	C206.7,118.5,185.2,97,158.7,97L158.7,97z"/>
<path class="st0" d="M158.5,287.1c-60,0-111.8-42-124.2-100.7c-0.3-1.9,1-3.7,2.9-4c1.8-0.3,3.6,0.8,4,2.6
	c13.7,64.8,77.3,106.3,142.2,92.6c44-9.3,79.2-42.5,91-85.9c0.5-2,1.1-4.1,1.5-6.2c0.4-1.9,2.3-3.1,4.2-2.7c1.9,0.4,3.1,2.3,2.7,4.2
	c-0.5,2.3-1,4.5-1.6,6.6C265.7,249.9,214.3,287.1,158.5,287.1z"/>
<path class="st0" d="M80.6,259.3c-1.9,0-3.5-1.6-3.5-3.5l0,0v-30.9c0-23.7,19.2-42.9,42.9-42.9h6.8c1.9,0,3.5,1.6,3.5,3.5
	s-1.6,3.5-3.5,3.5H120c-19.8,0-35.9,16.1-35.9,35.9v30.9C84.1,257.7,82.6,259.3,80.6,259.3L80.6,259.3z"/>
<path class="st0" d="M236.8,259.1c-1.9,0-3.5-1.6-3.5-3.5v-30.7c0-19.8-16.1-35.9-35.9-35.9h-6.8c-1.9,0-3.5-1.6-3.5-3.5
	s1.6-3.5,3.5-3.5h6.8c23.7,0,42.9,19.2,42.9,42.9v30.7C240.3,257.6,238.7,259.1,236.8,259.1L236.8,259.1z"/>
<path class="st0" d="M209.5,185.5c-4.7,0-9.5-0.6-14.1-1.8c-1.9-0.5-3-2.4-2.5-4.3s2.4-3,4.3-2.5c4,1.1,8.1,1.6,12.3,1.6
	c10.8,0,21.3-3.6,29.8-10.3l0.2-0.1c20.8-16.5,24.2-46.8,7.6-67.6s-46.8-24.2-67.6-7.6c-1.8,1.4-3.5,3-5.1,4.7
	c-1.3,1.4-3.5,1.5-4.9,0.2s-1.5-3.5-0.2-4.9l0,0c20.8-22.2,55.6-23.3,77.8-2.5s23.3,55.6,2.5,77.8c-1.9,2-3.9,3.9-6.1,5.6
	c-0.1,0-0.1,0.1-0.2,0.1C233.8,181.4,221.8,185.6,209.5,185.5z"/>
<path class="st0" d="M279.3,189.7c-1.1,0-2.1-0.5-2.8-1.4c-6.8-8.8-17.2-13.9-28.3-13.9h-6.8c-1.9,0-3.5-1.6-3.5-3.5
	s1.6-3.5,3.5-3.5h6.8c13.3,0,25.8,6.1,33.9,16.6c1.2,1.5,0.9,3.7-0.6,4.9C280.8,189.5,280.1,189.7,279.3,189.7z"/>
<path class="st0" d="M144.9,98.8c-1,0-1.9-0.4-2.6-1.1c-9.1-9.8-21.9-15.3-35.2-15.4c-10.1,0-19.9,3.2-28.1,9.1
	c-1.6,1.1-3.8,0.8-4.9-0.8s-0.8-3.8,0.8-4.9l0,0c9.4-6.8,20.6-10.5,32.2-10.4c15.3,0,29.9,6.4,40.3,17.6c1.3,1.4,1.2,3.6-0.2,4.9
	C146.6,98.5,145.8,98.9,144.9,98.8L144.9,98.8z"/>
<path class="st0" d="M107.1,185.5c-30.4,0-55.1-24.7-55-55.1c0-10.2,2.8-20.2,8.2-28.9c1-1.6,3.2-2.1,4.8-1.1s2.1,3.2,1.1,4.8
	c-13.9,22.6-6.9,52.2,15.7,66.2c11.4,7,25.2,9,38.1,5.4c1.9-0.5,3.8,0.6,4.3,2.4c0.5,1.9-0.6,3.8-2.4,4.3
	C117.1,184.8,112.1,185.5,107.1,185.5z"/>
<path class="st0" d="M37.7,189.2c-1.9,0-3.5-1.6-3.5-3.5c0-0.8,0.3-1.6,0.8-2.2c8.1-10.2,20.4-16.1,33.4-16.1h6.8
	c1.9,0,3.5,1.6,3.5,3.5s-1.6,3.5-3.5,3.5h-6.8c-10.9,0-21.2,4.9-28,13.4C39.7,188.7,38.7,189.2,37.7,189.2z"/>
<path class="st0" d="M121.3,281.3c-1.9,0-3.5-1.6-3.5-3.5v-31.6c0-1.9,1.6-3.5,3.5-3.5s3.5,1.6,3.5,3.5v31.6
	C124.8,279.8,123.3,281.3,121.3,281.3z"/>
<path class="st0" d="M194.7,281.7c-1.9,0-3.5-1.6-3.5-3.5v-32c0-1.9,1.6-3.5,3.5-3.5s3.5,1.6,3.5,3.5v32
	C198.2,280.1,196.6,281.7,194.7,281.7z"/>
<path class="st0" d="M94.8,58.6c-1.9,0-3.5-1.6-3.5-3.5c0-1.2,0.6-2.4,1.7-3c39.2-23.4,88-23.9,127.7-1.4c1.7,1,2.3,3.1,1.3,4.8
	s-3.1,2.3-4.8,1.3C179.7,35.5,133.7,36,96.6,58.1C96.1,58.4,95.4,58.6,94.8,58.6z"/>
</svg>
