<svg id="Layer_1" data-name="Layer 1" xmlns="http://www.w3.org/2000/svg" viewBox="0 0 303.31 303.31"><defs><style>.cls-1{fill:#1b1b1b;}</style></defs><path class="cls-1" d="M120.51,62.71a4,4,0,0,1-4-4,4.13,4.13,0,0,1,.08-.78,4.05,4.05,0,0,1,.23-.75,4.52,4.52,0,0,1,.36-.69,4.92,4.92,0,0,1,.5-.61,4.07,4.07,0,0,1,3.61-1.09,4,4,0,0,1,1.44.6,4.09,4.09,0,0,1,.61.49,4.92,4.92,0,0,1,.5.61,4.52,4.52,0,0,1,.36.69,4.05,4.05,0,0,1,.23.75,4.13,4.13,0,0,1,.08.78,4,4,0,0,1-1.17,2.83,4.92,4.92,0,0,1-.61.5,4.58,4.58,0,0,1-.69.37,3.81,3.81,0,0,1-.75.22A3.44,3.44,0,0,1,120.51,62.71Z"/><path class="cls-1" d="M183,84H42.13a4,4,0,0,1,0-8H183a4,4,0,0,1,0,8Z"/><path class="cls-1" d="M100.51,62.71a4,4,0,0,1-4-4,4.13,4.13,0,0,1,.08-.78,4.05,4.05,0,0,1,.23-.75,4.52,4.52,0,0,1,.36-.69,4.92,4.92,0,0,1,.5-.61,4.07,4.07,0,0,1,3.61-1.09,4,4,0,0,1,1.44.6,4.09,4.09,0,0,1,.61.49,4.92,4.92,0,0,1,.5.61,4.52,4.52,0,0,1,.36.69,4.05,4.05,0,0,1,.23.75,4.13,4.13,0,0,1,.08.78,4,4,0,0,1-1.17,2.83,4.92,4.92,0,0,1-.61.5,4.58,4.58,0,0,1-.69.37,3.81,3.81,0,0,1-.75.22A3.44,3.44,0,0,1,100.51,62.71Z"/><path class="cls-1" d="M158.43,244a66.57,66.57,0,0,1-66.49-66.49,4,4,0,0,1,1.23-2.88l2.21-2.12a4.06,4.06,0,0,1,2.92-1.12c9.79.36,15.31,3,20.18,5.3s9.59,4.56,19.1,4.56,14.18-2.22,19.12-4.56c5.26-2.51,11.23-5.34,22.55-5.34a44.71,44.71,0,0,1,22.34,5.35c4.42,2.15,8.6,4.18,16.58,4.5a4,4,0,0,1,2.94,1.48l2.06,2.54a4,4,0,0,1,.84,3.16A66.21,66.21,0,0,1,158.43,244ZM100,179.52a58.48,58.48,0,0,0,115.77,9.57c-8.35-.65-13.27-3-17.66-5.17-4.81-2.34-9.35-4.55-18.84-4.55s-14.18,2.22-19.12,4.56c-5.26,2.5-11.23,5.34-22.55,5.34s-17.27-2.84-22.54-5.34C110.85,181.94,106.87,180.05,100,179.52Z"/><path class="cls-1" d="M137.58,189.27c-11.31,0-17.27-2.84-22.54-5.34-4.57-2.17-8.88-4.22-17-4.52a4,4,0,0,1-2.84-1.34l-2.08-2.33a4,4,0,0,1-1-2.94,66.47,66.47,0,0,1,132.78,4.73c0,2-.1,4-.29,6.09a4,4,0,0,1-1.33,2.62l-2.24,2a4,4,0,0,1-2.79,1c-9.91-.33-15.36-3-20.17-5.31s-9.35-4.55-18.84-4.55-14.18,2.22-19.12,4.56C154.87,186.43,148.9,189.27,137.58,189.27Zm83.06-6h0ZM100.27,171.52c8.58.61,13.67,3,18.21,5.19,4.93,2.34,9.59,4.56,19.1,4.56s14.18-2.22,19.12-4.56c5.26-2.51,11.23-5.34,22.55-5.34a44.71,44.71,0,0,1,22.34,5.35c4.16,2,8.11,3.94,15.2,4.43.08-1.23.12-2.44.12-3.62a58.47,58.47,0,0,0-116.64-6Z"/><path class="cls-1" d="M258.93,275.16H55a17.65,17.65,0,0,1-17.63-17.64V45.79A17.64,17.64,0,0,1,55,28.16h204a17.65,17.65,0,0,1,17.63,17.63V257.52A17.65,17.65,0,0,1,258.93,275.16ZM55,35.16A10.63,10.63,0,0,0,44.34,45.79V257.52A10.64,10.64,0,0,0,55,268.16h204a10.65,10.65,0,0,0,10.63-10.64V45.79a10.64,10.64,0,0,0-10.63-10.63Z"/><circle class="cls-1" cx="73.95" cy="58.05" r="6"/><path class="cls-1" d="M74,68.05a10,10,0,1,1,10-10A10,10,0,0,1,74,68.05Zm0-12a2,2,0,1,0,2,2A2,2,0,0,0,74,56.05Z"/><path class="cls-1" d="M258.45,83.55h-51.1c-6.06,0-11-4.64-11-10.35V63c0-1.6,0-4.38.11-5a3.5,3.5,0,0,1,6.94.92c0,.58,0,3.42,0,4.07V73.2c0,1.82,1.82,3.35,4,3.35h51.1a3.5,3.5,0,0,1,0,7Z"/></svg>