<svg id="Layer_1" data-name="Layer 1" xmlns="http://www.w3.org/2000/svg" viewBox="0 0 303.31 303.31"><defs><style>.cls-1{fill:#1b1b1b;}</style></defs><path class="cls-1" d="M240.89,230.34H64.16A26.93,26.93,0,0,1,38,209.91l0-.22L22.24,124.62a27.37,27.37,0,0,1-.76-7.57,3.5,3.5,0,1,1,7,.28,21,21,0,0,0,.59,5.72l.05.2,15.71,85.06a19.93,19.93,0,0,0,19.34,15H240.89a19.93,19.93,0,0,0,19.35-15L276,123.05a20.46,20.46,0,0,0,.61-5.72,3.5,3.5,0,1,1,7-.28,27.61,27.61,0,0,1-.77,7.57l-15.75,85.29A26.94,26.94,0,0,1,240.89,230.34Zm22.77-21.28h0Z"/><path class="cls-1" d="M293.23,120.69H69.89a3.5,3.5,0,1,1,0-7H290.65v-5.37A13.87,13.87,0,0,0,276.8,94.47H29.5a13.87,13.87,0,0,0-13.85,13.85v5.37H54.52a3.5,3.5,0,1,1,0,7H13.07a4.43,4.43,0,0,1-4.42-4.42v-8A20.88,20.88,0,0,1,29.5,87.47H276.8a20.88,20.88,0,0,1,20.85,20.85v8A4.43,4.43,0,0,1,293.23,120.69Z"/><path class="cls-1" d="M181.36,141.64H121.19c-11.66,0-21.59-10.63-22.61-24.2a3.5,3.5,0,0,1,7-.52c.75,9.94,7.61,17.72,15.63,17.72h60.17c8,0,14.89-7.78,15.63-17.72a3.5,3.5,0,0,1,7,.52C203,131,193,141.64,181.36,141.64Z"/><path class="cls-1" d="M108,188l-.33,0-48.3-4.45a3.5,3.5,0,0,1,.64-7l48.3,4.45a3.5,3.5,0,0,1-.31,7Z"/><path class="cls-1" d="M128.36,209.51c-8.74,0-16.92-3-21.39-7.89a11.33,11.33,0,0,1-3.28-8.77l.79-8.63v-.1l.79-8.52c.72-7.86,10.54-13.19,22.84-12.41a3.5,3.5,0,0,1-.44,7c-8.71-.56-15.13,2.76-15.43,6.07l-1.59,17.25a4.56,4.56,0,0,0,1.47,3.4c2.57,2.8,8.58,5.62,16.23,5.62h.12l90-.4c8.57,0,13-3.08,13.44-5.9.38-2.32-1.93-5.57-7.93-7.63a30.47,30.47,0,0,0-4.17-1.09l-26.29-5a3.5,3.5,0,0,1,1.31-6.88l26.3,5a35.89,35.89,0,0,1,5.13,1.34c8.67,3,13.6,9,12.55,15.39-.88,5.39-6.73,11.7-20.31,11.76l-90,.4Z"/><path class="cls-1" d="M65.69,205.44a3.5,3.5,0,0,1-2-6.39,67.63,67.63,0,0,1,44-12,3.5,3.5,0,0,1-.56,7,60.64,60.64,0,0,0-39.47,10.8A3.43,3.43,0,0,1,65.69,205.44Z"/><path class="cls-1" d="M108.57,181.57l-.37,0a67.59,67.59,0,0,1-41-19.85,3.5,3.5,0,0,1,4.95-4.95,60.66,60.66,0,0,0,36.82,17.84,3.5,3.5,0,0,1-.35,7Z"/><path class="cls-1" d="M147.67,186.39a23.65,23.65,0,0,1-23.2-19,3.5,3.5,0,0,1,6.86-1.38,16.64,16.64,0,0,0,22.72,12.12c.44-.18.85-.37,1.28-.59a3.5,3.5,0,0,1,3.23,6.21c-.61.32-1.21.6-1.82.85A23.53,23.53,0,0,1,147.67,186.39Z"/><path class="cls-1" d="M175.19,195.85a23,23,0,0,1-3.78-.31,23.85,23.85,0,0,1-3.83-1,23.45,23.45,0,0,1-13.81-12.49,3.5,3.5,0,1,1,6.36-2.93,16.49,16.49,0,0,0,9.72,8.8,17.22,17.22,0,0,0,2.7.68,16.72,16.72,0,0,0,16.89-7.74,16,16,0,0,0,1.46-3,3.5,3.5,0,1,1,6.59,2.36,23.59,23.59,0,0,1-2.07,4.33A23.83,23.83,0,0,1,175.19,195.85Z"/></svg>