<svg id="Layer_1" data-name="Layer 1" xmlns="http://www.w3.org/2000/svg" viewBox="0 0 303.31 303.31"><defs><style>.cls-1{fill:#1b1b1b;}</style></defs><path class="cls-1" d="M100,90.33a4,4,0,0,1-4-4V55.91a4,4,0,0,1,8,0V86.33A4,4,0,0,1,100,90.33Z"/><path class="cls-1" d="M203.38,90.33a4,4,0,0,1-4-4V55.91a4,4,0,1,1,8,0V86.33A4,4,0,0,1,203.38,90.33Z"/><path class="cls-1" d="M146.94,68.28c-27,0-53.55-1-79-3a4,4,0,1,1,.62-8c25.23,2,51.6,3,78.37,3,30.66,0,60.71-1.31,89.34-3.9a4,4,0,1,1,.72,8C208.14,67,177.83,68.28,146.94,68.28Z"/><path class="cls-1" d="M250.25,63a4,4,0,0,1-.41-8C261,53.87,272,52.46,282.66,50.86a4,4,0,1,1,1.19,7.91c-10.75,1.62-21.91,3-33.17,4.23Z"/><path class="cls-1" d="M54.67,64.13l-.37,0c-11.95-1.11-23.58-2.44-34.58-4a4,4,0,1,1,1.08-7.92C31.69,53.73,43.21,55,55,56.15a4,4,0,0,1-.37,8Z"/><path class="cls-1" d="M240.12,260.09H217.65a3.5,3.5,0,0,1,0-7h22.47a6.19,6.19,0,0,0,6.18-6.19V118.77a29,29,0,0,0-28.94-28.94h-2.49a3.5,3.5,0,0,1,0-7h2.49a36,36,0,0,1,35.94,35.94V246.9A13.2,13.2,0,0,1,240.12,260.09Z"/><path class="cls-1" d="M84.92,260.09H63.64A13.21,13.21,0,0,1,50.45,246.9V118.77A36,36,0,0,1,86.39,82.83h3.67a3.5,3.5,0,0,1,0,7H86.39a29,29,0,0,0-28.94,28.94V246.9a6.2,6.2,0,0,0,6.19,6.19H84.92a3.5,3.5,0,1,1,0,7Z"/><path class="cls-1" d="M118.39,89.83H87.86a3.5,3.5,0,0,1,0-7h30.53a3.5,3.5,0,0,1,0,7Z"/><path class="cls-1" d="M217.24,89.83H184.81a3.5,3.5,0,0,1,0-7h32.43a3.5,3.5,0,0,1,0,7Z"/><path class="cls-1" d="M217.65,289.25H84.92a3.5,3.5,0,0,1-3.5-3.5V128a3.5,3.5,0,0,1,7,0V282.25H214.15v-136a3.5,3.5,0,0,1,7,0V285.75A3.5,3.5,0,0,1,217.65,289.25Z"/><path class="cls-1" d="M217.66,132.1a3.5,3.5,0,0,1-3.5-3.5V128a3.5,3.5,0,0,1,7,0v.59A3.5,3.5,0,0,1,217.66,132.1Z"/><path class="cls-1" d="M151.61,115.24a38,38,0,0,1-36.6-28,3.5,3.5,0,0,1,6.76-1.83,30.91,30.91,0,0,0,59.66,0,3.5,3.5,0,0,1,6.76,1.83A37.94,37.94,0,0,1,151.61,115.24Z"/></svg>