<svg id="Layer_1" data-name="Layer 1" xmlns="http://www.w3.org/2000/svg" viewBox="0 0 303.31 303.31"><defs><style>.cls-1{fill:#1b1b1b;}</style></defs><path class="cls-1" d="M138.3,58.6l-.34,0a3.5,3.5,0,0,1-3.15-3.82l.11-1.15,1.3-11.45a3.5,3.5,0,0,1,6.95.79l-1.39,12.49A3.5,3.5,0,0,1,138.3,58.6Z"/><path class="cls-1" d="M95,92.78A3.51,3.51,0,0,1,92,91.22a67.8,67.8,0,0,1-8.47-56.9,3.5,3.5,0,0,1,6.72,2,60.79,60.79,0,0,0,6.46,49.29l35.77-3.33,1-8.65.24-2.56a3.5,3.5,0,0,1,7,.66l-.25,2.63-1.32,11.51A3.49,3.49,0,0,1,136,89l-40.73,3.8Z"/><path class="cls-1" d="M166.56,118.44a3.48,3.48,0,0,1-2.48-1L84.45,37.78a3.5,3.5,0,0,1,5-5L169,112.46a3.49,3.49,0,0,1,0,5A3.46,3.46,0,0,1,166.56,118.44Z"/><path class="cls-1" d="M166.56,118.44a3.4,3.4,0,0,1-1-.15A3.49,3.49,0,0,1,163.2,114a60.79,60.79,0,0,0-15.09-60.19,59.46,59.46,0,0,0-10.28-8.24,60.9,60.9,0,0,0-48.06-7.37,60.78,60.78,0,0,0,8.1,49.19,3.5,3.5,0,1,1-5.82,3.88,67.77,67.77,0,0,1-8.48-56.9A3.52,3.52,0,0,1,85.94,32a67.93,67.93,0,0,1,55.63,7.65,66.42,66.42,0,0,1,11.49,9.21,67.77,67.77,0,0,1,16.85,67.11A3.49,3.49,0,0,1,166.56,118.44Z"/><path class="cls-1" d="M148.14,121.09A67.28,67.28,0,0,1,83.57,34.32a3.5,3.5,0,0,1,6.72,2,60.8,60.8,0,0,0,7.58,51,59.48,59.48,0,0,0,7.51,9.15,60.79,60.79,0,0,0,60.19,15.09,3.5,3.5,0,0,1,2,6.71A68.91,68.91,0,0,1,148.14,121.09Z"/><path class="cls-1" d="M203.87,57.27a3.5,3.5,0,0,1-3.48-3.16L200.28,53,199,41.62a3.5,3.5,0,0,1,7-.79l1.4,12.6a3.49,3.49,0,0,1-3.14,3.82Z"/><path class="cls-1" d="M247.22,91.45l-.32,0-40.73-3.8A3.5,3.5,0,0,1,203,84.52l-.14-1.28L201.7,73.08l-.25-2.7a3.5,3.5,0,1,1,7-.65l.24,2.62,1,8.58,35.78,3.34A60.89,60.89,0,0,0,251.89,35a3.5,3.5,0,1,1,6.71-2,67.76,67.76,0,0,1-8.47,56.9A3.5,3.5,0,0,1,247.22,91.45Z"/><path class="cls-1" d="M175.62,117.11a3.51,3.51,0,0,1-2.48-6l79.63-79.62a3.5,3.5,0,0,1,5,4.95l-79.63,79.62A3.46,3.46,0,0,1,175.62,117.11Z"/><path class="cls-1" d="M175.62,117.11a3.51,3.51,0,0,1-3.36-2.52,67.79,67.79,0,0,1,16.86-67.11,66.14,66.14,0,0,1,11.49-9.21,67.91,67.91,0,0,1,55.62-7.65A3.48,3.48,0,0,1,258.6,33a67.81,67.81,0,0,1-8.47,56.9A3.5,3.5,0,0,1,244.3,86a60.7,60.7,0,0,0,8.1-49.19,60.88,60.88,0,0,0-48,7.36,59.69,59.69,0,0,0-10.29,8.25A60.77,60.77,0,0,0,179,112.62a3.51,3.51,0,0,1-2.37,4.35A3.76,3.76,0,0,1,175.62,117.11Z"/><path class="cls-1" d="M194,119.76A68.91,68.91,0,0,1,174.63,117a3.5,3.5,0,1,1,2-6.72A60.8,60.8,0,0,0,236.8,95.16,59.93,59.93,0,0,0,244.3,86a60.82,60.82,0,0,0,7.59-51,3.5,3.5,0,1,1,6.71-2,67.81,67.81,0,0,1-8.47,56.9,66.37,66.37,0,0,1-8.38,10.22A67.4,67.4,0,0,1,194,119.76Z"/><path class="cls-1" d="M170.69,184.44a3.5,3.5,0,0,1-3.5-3.5V106.31a3.5,3.5,0,0,1,7,0v74.63A3.5,3.5,0,0,1,170.69,184.44Z"/><path class="cls-1" d="M45.17,264.5a3.14,3.14,0,0,1-.68-.07,3.44,3.44,0,0,1-1.14-.45,3.5,3.5,0,0,1-1.09-1,3.59,3.59,0,0,1-.52-2.63,3.2,3.2,0,0,1,.24-.74c7.73-18.43,25.48-31.34,45.82-33.63.17-29.8,25.45-54,56.49-54a58,58,0,0,1,28.24,7.28,58,58,0,0,1,7.34-.47c24.92,0,46.62,15.51,53.93,38.12a58.38,58.38,0,0,1,11.06-1.05c27.28,0,50.64,18.69,55.57,44.45l.06.39a3.68,3.68,0,0,1-.1,1.2,3.51,3.51,0,0,1-1.9,2.3,3.13,3.13,0,0,1-1.18.32l-.38,0H221.32a3.5,3.5,0,0,1,0-7h71.25c-5.86-20.33-25.26-34.68-47.71-34.68a52,52,0,0,0-12.65,1.56,3.46,3.46,0,0,1-1.66,0h0s0,0,0,0h-.17a3.42,3.42,0,0,1-1.82-1.28h-.09a3.3,3.3,0,0,1-.48-1.08h0c-5.42-21.26-25.19-36.1-48.09-36.1a52.15,52.15,0,0,0-7.5.55,3.46,3.46,0,0,1-1.53-.1h0a3.57,3.57,0,0,1-.77-.35,51.08,51.08,0,0,0-25.75-6.91c-27.29,0-49.49,21.22-49.49,47.31,0,.91,0,1.83.07,2.73a2.44,2.44,0,0,1,0,.47h-.07a3.44,3.44,0,0,1-1.12,1.88h0l0,0h-.55a3.43,3.43,0,0,1-1.52.43h0A49.85,49.85,0,0,0,50.77,257.5H201.59a3.5,3.5,0,1,1,0,7H45.17Z"/><path class="cls-1" d="M32,263.5a2.52,2.52,0,0,1-2.49-2.22c-.4-3.61-5.39-6.54-11.12-6.54s-10.71,2.93-11.12,6.54a2.5,2.5,0,0,1-5-.56c.7-6.26,7.62-11,16.08-11s15.38,4.72,16.09,11a2.49,2.49,0,0,1-2.2,2.76Z"/><path class="cls-1" d="M32,263.5H4.79a2.5,2.5,0,0,1,0-5H32a2.5,2.5,0,0,1,0,5Z"/></svg>