<svg id="Layer_1" data-name="Layer 1" xmlns="http://www.w3.org/2000/svg" viewBox="0 0 303.31 303.31"><defs><style>.cls-1{fill:#1d1d1b;}.cls-2{fill:#010101;}.cls-3{fill:none;}</style></defs><path class="cls-1" d="M32.42,77.46a3.5,3.5,0,0,1-3.5-3.5V32.11a3.5,3.5,0,0,1,3.5-3.5H78.05a3.5,3.5,0,0,1,0,7H35.92V74A3.5,3.5,0,0,1,32.42,77.46Z"/><path class="cls-1" d="M270.5,77.46A3.5,3.5,0,0,1,267,74V35.61H224.86a3.5,3.5,0,0,1,0-7H270.5a3.5,3.5,0,0,1,3.5,3.5V74A3.5,3.5,0,0,1,270.5,77.46Z"/><path class="cls-1" d="M81.21,273.76H35.58a3.5,3.5,0,0,1-3.5-3.5V228.41a3.5,3.5,0,0,1,7,0v38.35H81.21a3.5,3.5,0,0,1,0,7Z"/><path class="cls-1" d="M271.08,273.76H225.45a3.5,3.5,0,0,1,0-7h42.13V228.41a3.5,3.5,0,0,1,7,0v41.85A3.5,3.5,0,0,1,271.08,273.76Z"/><rect class="cls-2" x="109.28" y="50.59" width="6.92" height="6.92"/><rect class="cls-2" x="123.12" y="50.59" width="6.92" height="6.92"/><rect class="cls-2" x="143.88" y="50.59" width="6.92" height="6.92"/><rect class="cls-2" x="150.8" y="50.59" width="6.92" height="6.92"/><rect class="cls-2" x="157.72" y="50.59" width="6.92" height="6.92"/><rect class="cls-2" x="171.57" y="50.59" width="6.92" height="6.92"/><rect class="cls-2" x="178.49" y="50.59" width="6.92" height="6.92"/><rect class="cls-2" x="185.41" y="50.59" width="6.92" height="6.92"/><rect class="cls-2" x="192.33" y="50.59" width="6.92" height="6.92"/><rect class="cls-2" x="109.28" y="57.51" width="6.92" height="6.92"/><rect class="cls-2" x="130.04" y="57.51" width="6.92" height="6.92"/><rect class="cls-2" x="136.96" y="57.51" width="6.92" height="6.92"/><rect class="cls-2" x="143.88" y="57.51" width="6.92" height="6.92"/><rect class="cls-2" x="164.65" y="57.51" width="6.92" height="6.92"/><rect class="cls-2" x="178.49" y="57.51" width="6.92" height="6.92"/><rect class="cls-2" x="192.33" y="57.51" width="6.92" height="6.92"/><rect class="cls-2" x="116.2" y="64.43" width="6.92" height="6.92"/><rect class="cls-2" x="164.65" y="64.43" width="6.92" height="6.92"/><rect class="cls-2" x="178.49" y="64.43" width="6.92" height="6.92"/><rect class="cls-2" x="185.41" y="64.43" width="6.92" height="6.92"/><rect class="cls-2" x="109.28" y="71.36" width="6.92" height="6.92"/><rect class="cls-2" x="116.2" y="71.36" width="6.92" height="6.92"/><rect class="cls-2" x="130.04" y="71.36" width="6.92" height="6.92"/><rect class="cls-2" x="150.8" y="71.36" width="6.92" height="6.92"/><rect class="cls-2" x="157.72" y="71.36" width="6.92" height="6.92"/><rect class="cls-2" x="171.57" y="71.36" width="6.92" height="6.92"/><rect class="cls-2" x="192.33" y="71.36" width="6.92" height="6.92"/><rect class="cls-2" x="116.2" y="78.28" width="6.92" height="6.92"/><rect class="cls-2" x="130.04" y="78.28" width="6.92" height="6.92"/><rect class="cls-2" x="150.8" y="78.28" width="6.92" height="6.92"/><rect class="cls-2" x="164.65" y="78.28" width="6.92" height="6.92"/><rect class="cls-2" x="171.57" y="78.28" width="6.92" height="6.92"/><rect class="cls-2" x="178.49" y="78.28" width="6.92" height="6.92"/><rect class="cls-2" x="185.41" y="78.28" width="6.92" height="6.92"/><rect class="cls-2" x="123.12" y="85.2" width="6.92" height="6.92"/><rect class="cls-2" x="130.04" y="85.2" width="6.92" height="6.92"/><rect class="cls-2" x="136.96" y="85.2" width="6.92" height="6.92"/><rect class="cls-2" x="143.88" y="85.2" width="6.92" height="6.92"/><rect class="cls-2" x="157.72" y="85.2" width="6.92" height="6.92"/><rect class="cls-2" x="164.65" y="85.2" width="6.92" height="6.92"/><rect class="cls-2" x="185.41" y="85.2" width="6.92" height="6.92"/><rect class="cls-2" x="192.33" y="85.2" width="6.92" height="6.92"/><rect class="cls-2" x="109.28" y="92.12" width="6.92" height="6.92"/><rect class="cls-2" x="123.12" y="92.12" width="6.92" height="6.92"/><rect class="cls-2" x="136.96" y="92.12" width="6.92" height="6.92"/><rect class="cls-2" x="150.8" y="92.12" width="6.92" height="6.92"/><rect class="cls-2" x="164.65" y="92.12" width="6.92" height="6.92"/><rect class="cls-2" x="178.49" y="92.12" width="6.92" height="6.92"/><rect class="cls-2" x="192.33" y="92.12" width="6.92" height="6.92"/><rect class="cls-2" x="109.28" y="99.04" width="6.92" height="6.92"/><rect class="cls-2" x="157.72" y="99.04" width="6.92" height="6.92"/><rect class="cls-2" x="164.65" y="99.04" width="6.92" height="6.92"/><rect class="cls-2" x="171.57" y="99.04" width="6.92" height="6.92"/><rect class="cls-2" x="53.91" y="105.96" width="6.92" height="6.92"/><rect class="cls-2" x="67.75" y="105.96" width="6.92" height="6.92"/><rect class="cls-2" x="74.67" y="105.96" width="6.92" height="6.92"/><rect class="cls-2" x="88.51" y="105.96" width="6.92" height="6.92"/><rect class="cls-2" x="95.43" y="105.96" width="6.92" height="6.92"/><rect class="cls-2" x="102.35" y="105.96" width="6.92" height="6.92"/><rect class="cls-2" x="130.04" y="105.96" width="6.92" height="6.92"/><rect class="cls-2" x="136.96" y="105.96" width="6.92" height="6.92"/><rect class="cls-2" x="143.88" y="105.96" width="6.92" height="6.92"/><rect class="cls-2" x="157.72" y="105.96" width="6.92" height="6.92"/><rect class="cls-2" x="171.57" y="105.96" width="6.92" height="6.92"/><rect class="cls-2" x="178.49" y="105.96" width="6.92" height="6.92"/><rect class="cls-2" x="185.41" y="105.96" width="6.92" height="6.92"/><rect class="cls-2" x="206.17" y="105.96" width="6.92" height="6.92"/><rect class="cls-2" x="226.94" y="105.96" width="6.92" height="6.92"/><rect class="cls-2" x="240.78" y="105.96" width="6.92" height="6.92"/><rect class="cls-2" x="247.7" y="105.96" width="6.92" height="6.92"/><rect class="cls-2" x="60.83" y="112.88" width="6.92" height="6.92"/><rect class="cls-2" x="67.75" y="112.88" width="6.92" height="6.92"/><rect class="cls-2" x="74.67" y="112.88" width="6.92" height="6.92"/><rect class="cls-2" x="109.28" y="112.88" width="6.92" height="6.92"/><rect class="cls-2" x="130.04" y="112.88" width="6.92" height="6.92"/><rect class="cls-2" x="143.88" y="112.88" width="6.92" height="6.92"/><rect class="cls-2" x="150.8" y="112.88" width="6.92" height="6.92"/><rect class="cls-2" x="157.72" y="112.88" width="6.92" height="6.92"/><rect class="cls-2" x="185.41" y="112.88" width="6.92" height="6.92"/><rect class="cls-2" x="192.33" y="112.88" width="6.92" height="6.92"/><rect class="cls-2" x="199.25" y="112.88" width="6.92" height="6.92"/><rect class="cls-2" x="206.17" y="112.88" width="6.92" height="6.92"/><rect class="cls-2" x="213.09" y="112.88" width="6.92" height="6.92"/><rect class="cls-2" x="220.02" y="112.88" width="6.92" height="6.92"/><rect class="cls-2" x="247.7" y="112.88" width="6.92" height="6.92"/><rect class="cls-2" x="60.83" y="119.8" width="6.92" height="6.92"/><rect class="cls-2" x="67.75" y="119.8" width="6.92" height="6.92"/><rect class="cls-2" x="95.43" y="119.8" width="6.92" height="6.92"/><rect class="cls-2" x="102.35" y="119.8" width="6.92" height="6.92"/><rect class="cls-2" x="123.12" y="119.8" width="6.92" height="6.92"/><rect class="cls-2" x="143.88" y="119.8" width="6.92" height="6.92"/><rect class="cls-2" x="164.65" y="119.8" width="6.92" height="6.92"/><rect class="cls-2" x="171.57" y="119.8" width="6.92" height="6.92"/><rect class="cls-2" x="178.49" y="119.8" width="6.92" height="6.92"/><rect class="cls-2" x="213.09" y="119.8" width="6.92" height="6.92"/><rect class="cls-2" x="220.02" y="119.8" width="6.92" height="6.92"/><rect class="cls-2" x="233.86" y="119.8" width="6.92" height="6.92"/><rect class="cls-2" x="240.78" y="119.8" width="6.92" height="6.92"/><rect class="cls-2" x="60.83" y="126.73" width="6.92" height="6.92"/><rect class="cls-2" x="74.67" y="126.73" width="6.92" height="6.92"/><rect class="cls-2" x="81.59" y="126.73" width="6.92" height="6.92"/><rect class="cls-2" x="88.51" y="126.73" width="6.92" height="6.92"/><rect class="cls-2" x="116.2" y="126.73" width="6.92" height="6.92"/><rect class="cls-2" x="130.04" y="126.73" width="6.92" height="6.92"/><rect class="cls-2" x="164.65" y="126.73" width="6.92" height="6.92"/><rect class="cls-2" x="178.49" y="126.73" width="6.92" height="6.92"/><rect class="cls-2" x="192.33" y="126.73" width="6.92" height="6.92"/><rect class="cls-2" x="199.25" y="126.73" width="6.92" height="6.92"/><rect class="cls-2" x="213.09" y="126.73" width="6.92" height="6.92"/><rect class="cls-2" x="220.02" y="126.73" width="6.92" height="6.92"/><rect class="cls-2" x="226.94" y="126.73" width="6.92" height="6.92"/><rect class="cls-2" x="247.7" y="126.73" width="6.92" height="6.92"/><rect class="cls-2" x="74.67" y="133.65" width="6.92" height="6.92"/><rect class="cls-2" x="81.59" y="133.65" width="6.92" height="6.92"/><rect class="cls-2" x="88.51" y="133.65" width="6.92" height="6.92"/><rect class="cls-2" x="95.43" y="133.65" width="6.92" height="6.92"/><rect class="cls-2" x="102.35" y="133.65" width="6.92" height="6.92"/><rect class="cls-2" x="109.28" y="133.65" width="6.92" height="6.92"/><rect class="cls-2" x="130.04" y="133.65" width="6.92" height="6.92"/><rect class="cls-2" x="150.8" y="133.65" width="6.92" height="6.92"/><rect class="cls-2" x="157.72" y="133.65" width="6.92" height="6.92"/><rect class="cls-2" x="171.57" y="133.65" width="6.92" height="6.92"/><rect class="cls-2" x="226.94" y="133.65" width="6.92" height="6.92"/><rect class="cls-2" x="233.86" y="133.65" width="6.92" height="6.92"/><rect class="cls-2" x="74.67" y="140.57" width="6.92" height="6.92"/><rect class="cls-2" x="81.59" y="140.57" width="6.92" height="6.92"/><rect class="cls-2" x="102.35" y="140.57" width="6.92" height="6.92"/><rect class="cls-2" x="109.28" y="140.57" width="6.92" height="6.92"/><rect class="cls-2" x="116.2" y="140.57" width="6.92" height="6.92"/><rect class="cls-2" x="130.04" y="140.57" width="6.92" height="6.92"/><rect class="cls-2" x="150.8" y="140.57" width="6.92" height="6.92"/><rect class="cls-2" x="164.65" y="140.57" width="6.92" height="6.92"/><rect class="cls-2" x="171.57" y="140.57" width="6.92" height="6.92"/><rect class="cls-2" x="178.49" y="140.57" width="6.92" height="6.92"/><rect class="cls-2" x="185.41" y="140.57" width="6.92" height="6.92"/><rect class="cls-2" x="206.17" y="140.57" width="6.92" height="6.92"/><rect class="cls-2" x="240.78" y="140.57" width="6.92" height="6.92"/><rect class="cls-2" x="247.7" y="140.57" width="6.92" height="6.92"/><rect class="cls-2" x="53.91" y="147.49" width="6.92" height="6.92"/><rect class="cls-2" x="60.83" y="147.49" width="6.92" height="6.92"/><rect class="cls-2" x="74.67" y="147.49" width="6.92" height="6.92"/><rect class="cls-2" x="81.59" y="147.49" width="6.92" height="6.92"/><rect class="cls-2" x="95.43" y="147.49" width="6.92" height="6.92"/><rect class="cls-2" x="102.35" y="147.49" width="6.92" height="6.92"/><rect class="cls-2" x="109.28" y="147.49" width="6.92" height="6.92"/><rect class="cls-2" x="143.88" y="147.49" width="6.92" height="6.92"/><rect class="cls-2" x="157.72" y="147.49" width="6.92" height="6.92"/><rect class="cls-2" x="164.65" y="147.49" width="6.92" height="6.92"/><rect class="cls-2" x="185.41" y="147.49" width="6.92" height="6.92"/><rect class="cls-2" x="213.09" y="147.49" width="6.92" height="6.92"/><rect class="cls-2" x="226.94" y="147.49" width="6.92" height="6.92"/><rect class="cls-2" x="233.86" y="147.49" width="6.92" height="6.92"/><rect class="cls-2" x="240.78" y="147.49" width="6.92" height="6.92"/><rect class="cls-2" x="247.7" y="147.49" width="6.92" height="6.92"/><rect class="cls-2" x="53.91" y="154.41" width="6.92" height="6.92"/><rect class="cls-2" x="60.83" y="154.41" width="6.92" height="6.92"/><rect class="cls-2" x="67.75" y="154.41" width="6.92" height="6.92"/><rect class="cls-2" x="88.51" y="154.41" width="6.92" height="6.92"/><rect class="cls-2" x="102.35" y="154.41" width="6.92" height="6.92"/><rect class="cls-2" x="116.2" y="154.41" width="6.92" height="6.92"/><rect class="cls-2" x="130.04" y="154.41" width="6.92" height="6.92"/><rect class="cls-2" x="150.8" y="154.41" width="6.92" height="6.92"/><rect class="cls-2" x="164.65" y="154.41" width="6.92" height="6.92"/><rect class="cls-2" x="178.49" y="154.41" width="6.92" height="6.92"/><rect class="cls-2" x="185.41" y="154.41" width="6.92" height="6.92"/><rect class="cls-2" x="192.33" y="154.41" width="6.92" height="6.92"/><rect class="cls-2" x="199.25" y="154.41" width="6.92" height="6.92"/><rect class="cls-2" x="213.09" y="154.41" width="6.92" height="6.92"/><rect class="cls-2" x="220.02" y="154.41" width="6.92" height="6.92"/><rect class="cls-2" x="240.78" y="154.41" width="6.92" height="6.92"/><rect class="cls-2" x="53.91" y="161.33" width="6.92" height="6.92"/><rect class="cls-2" x="95.43" y="161.33" width="6.92" height="6.92"/><rect class="cls-2" x="102.35" y="161.33" width="6.92" height="6.92"/><rect class="cls-2" x="116.2" y="161.33" width="6.92" height="6.92"/><rect class="cls-2" x="130.04" y="161.33" width="6.92" height="6.92"/><rect class="cls-2" x="136.96" y="161.33" width="6.92" height="6.92"/><rect class="cls-2" x="150.8" y="161.33" width="6.92" height="6.92"/><rect class="cls-2" x="157.72" y="161.33" width="6.92" height="6.92"/><rect class="cls-2" x="164.65" y="161.33" width="6.92" height="6.92"/><rect class="cls-2" x="185.41" y="161.33" width="6.92" height="6.92"/><rect class="cls-2" x="192.33" y="161.33" width="6.92" height="6.92"/><rect class="cls-2" x="199.25" y="161.33" width="6.92" height="6.92"/><rect class="cls-2" x="213.09" y="161.33" width="6.92" height="6.92"/><rect class="cls-2" x="220.02" y="161.33" width="6.92" height="6.92"/><rect class="cls-2" x="240.78" y="161.33" width="6.92" height="6.92"/><rect class="cls-2" x="60.83" y="168.25" width="6.92" height="6.92"/><rect class="cls-2" x="67.75" y="168.25" width="6.92" height="6.92"/><rect class="cls-2" x="116.2" y="168.25" width="6.92" height="6.92"/><rect class="cls-2" x="150.8" y="168.25" width="6.92" height="6.92"/><rect class="cls-2" x="164.65" y="168.25" width="6.92" height="6.92"/><rect class="cls-2" x="171.57" y="168.25" width="6.92" height="6.92"/><rect class="cls-2" x="192.33" y="168.25" width="6.92" height="6.92"/><rect class="cls-2" x="213.09" y="168.25" width="6.92" height="6.92"/><rect class="cls-2" x="233.86" y="168.25" width="6.92" height="6.92"/><rect class="cls-2" x="240.78" y="168.25" width="6.92" height="6.92"/><rect class="cls-2" x="53.91" y="175.17" width="6.92" height="6.92"/><rect class="cls-2" x="88.51" y="175.17" width="6.92" height="6.92"/><rect class="cls-2" x="95.43" y="175.17" width="6.92" height="6.92"/><rect class="cls-2" x="102.35" y="175.17" width="6.92" height="6.92"/><rect class="cls-2" x="116.2" y="175.17" width="6.92" height="6.92"/><rect class="cls-2" x="123.12" y="175.17" width="6.92" height="6.92"/><rect class="cls-2" x="130.04" y="175.17" width="6.92" height="6.92"/><rect class="cls-2" x="136.96" y="175.17" width="6.92" height="6.92"/><rect class="cls-2" x="143.88" y="175.17" width="6.92" height="6.92"/><rect class="cls-2" x="150.8" y="175.17" width="6.92" height="6.92"/><rect class="cls-2" x="157.72" y="175.17" width="6.92" height="6.92"/><rect class="cls-2" x="164.65" y="175.17" width="6.92" height="6.92"/><rect class="cls-2" x="171.57" y="175.17" width="6.92" height="6.92"/><rect class="cls-2" x="192.33" y="175.17" width="6.92" height="6.92"/><rect class="cls-2" x="199.25" y="175.17" width="6.92" height="6.92"/><rect class="cls-2" x="213.09" y="175.17" width="6.92" height="6.92"/><rect class="cls-2" x="220.02" y="175.17" width="6.92" height="6.92"/><rect class="cls-2" x="226.94" y="175.17" width="6.92" height="6.92"/><rect class="cls-2" x="233.86" y="175.17" width="6.92" height="6.92"/><rect class="cls-2" x="67.75" y="182.1" width="6.92" height="6.92"/><rect class="cls-2" x="88.51" y="182.1" width="6.92" height="6.92"/><rect class="cls-2" x="136.96" y="182.1" width="6.92" height="6.92"/><rect class="cls-2" x="143.88" y="182.1" width="6.92" height="6.92"/><rect class="cls-2" x="150.8" y="182.1" width="6.92" height="6.92"/><rect class="cls-2" x="171.57" y="182.1" width="6.92" height="6.92"/><rect class="cls-2" x="199.25" y="182.1" width="6.92" height="6.92"/><rect class="cls-2" x="233.86" y="182.1" width="6.92" height="6.92"/><rect class="cls-2" x="60.83" y="189.02" width="6.92" height="6.92"/><rect class="cls-2" x="88.51" y="189.02" width="6.92" height="6.92"/><rect class="cls-2" x="95.43" y="189.02" width="6.92" height="6.92"/><rect class="cls-2" x="102.35" y="189.02" width="6.92" height="6.92"/><rect class="cls-2" x="116.2" y="189.02" width="6.92" height="6.92"/><rect class="cls-2" x="136.96" y="189.02" width="6.92" height="6.92"/><rect class="cls-2" x="143.88" y="189.02" width="6.92" height="6.92"/><rect class="cls-2" x="150.8" y="189.02" width="6.92" height="6.92"/><rect class="cls-2" x="164.65" y="189.02" width="6.92" height="6.92"/><rect class="cls-2" x="171.57" y="189.02" width="6.92" height="6.92"/><rect class="cls-2" x="178.49" y="189.02" width="6.92" height="6.92"/><rect class="cls-2" x="185.41" y="189.02" width="6.92" height="6.92"/><rect class="cls-2" x="192.33" y="189.02" width="6.92" height="6.92"/><rect class="cls-2" x="199.25" y="189.02" width="6.92" height="6.92"/><rect class="cls-2" x="206.17" y="189.02" width="6.92" height="6.92"/><rect class="cls-2" x="213.09" y="189.02" width="6.92" height="6.92"/><rect class="cls-2" x="220.02" y="189.02" width="6.92" height="6.92"/><rect class="cls-2" x="226.94" y="189.02" width="6.92" height="6.92"/><rect class="cls-2" x="233.86" y="189.02" width="6.92" height="6.92"/><rect class="cls-2" x="109.28" y="195.94" width="6.92" height="6.92"/><rect class="cls-2" x="116.2" y="195.94" width="6.92" height="6.92"/><rect class="cls-2" x="130.04" y="195.94" width="6.92" height="6.92"/><rect class="cls-2" x="157.72" y="195.94" width="6.92" height="6.92"/><rect class="cls-2" x="164.65" y="195.94" width="6.92" height="6.92"/><rect class="cls-2" x="171.57" y="195.94" width="6.92" height="6.92"/><rect class="cls-2" x="178.49" y="195.94" width="6.92" height="6.92"/><rect class="cls-2" x="192.33" y="195.94" width="6.92" height="6.92"/><rect class="cls-2" x="220.02" y="195.94" width="6.92" height="6.92"/><rect class="cls-2" x="226.94" y="195.94" width="6.92" height="6.92"/><rect class="cls-2" x="233.86" y="195.94" width="6.92" height="6.92"/><rect class="cls-2" x="240.78" y="195.94" width="6.92" height="6.92"/><rect class="cls-2" x="247.7" y="195.94" width="6.92" height="6.92"/><rect class="cls-2" x="109.28" y="202.86" width="6.92" height="6.92"/><rect class="cls-2" x="123.12" y="202.86" width="6.92" height="6.92"/><rect class="cls-2" x="130.04" y="202.86" width="6.92" height="6.92"/><rect class="cls-2" x="136.96" y="202.86" width="6.92" height="6.92"/><rect class="cls-2" x="150.8" y="202.86" width="6.92" height="6.92"/><rect class="cls-2" x="157.72" y="202.86" width="6.92" height="6.92"/><rect class="cls-2" x="178.49" y="202.86" width="6.92" height="6.92"/><rect class="cls-2" x="185.41" y="202.86" width="6.92" height="6.92"/><rect class="cls-2" x="192.33" y="202.86" width="6.92" height="6.92"/><rect class="cls-2" x="206.17" y="202.86" width="6.92" height="6.92"/><rect class="cls-2" x="220.02" y="202.86" width="6.92" height="6.92"/><rect class="cls-2" x="226.94" y="202.86" width="6.92" height="6.92"/><rect class="cls-2" x="240.78" y="202.86" width="6.92" height="6.92"/><rect class="cls-2" x="109.28" y="209.78" width="6.92" height="6.92"/><rect class="cls-2" x="123.12" y="209.78" width="6.92" height="6.92"/><rect class="cls-2" x="130.04" y="209.78" width="6.92" height="6.92"/><rect class="cls-2" x="143.88" y="209.78" width="6.92" height="6.92"/><rect class="cls-2" x="150.8" y="209.78" width="6.92" height="6.92"/><rect class="cls-2" x="157.72" y="209.78" width="6.92" height="6.92"/><rect class="cls-2" x="192.33" y="209.78" width="6.92" height="6.92"/><rect class="cls-2" x="220.02" y="209.78" width="6.92" height="6.92"/><rect class="cls-2" x="116.2" y="216.7" width="6.92" height="6.92"/><rect class="cls-2" x="136.96" y="216.7" width="6.92" height="6.92"/><rect class="cls-2" x="171.57" y="216.7" width="6.92" height="6.92"/><rect class="cls-2" x="192.33" y="216.7" width="6.92" height="6.92"/><rect class="cls-2" x="199.25" y="216.7" width="6.92" height="6.92"/><rect class="cls-2" x="206.17" y="216.7" width="6.92" height="6.92"/><rect class="cls-2" x="213.09" y="216.7" width="6.92" height="6.92"/><rect class="cls-2" x="220.02" y="216.7" width="6.92" height="6.92"/><rect class="cls-2" x="233.86" y="216.7" width="6.92" height="6.92"/><rect class="cls-2" x="247.7" y="216.7" width="6.92" height="6.92"/><rect class="cls-2" x="109.28" y="223.62" width="6.92" height="6.92"/><rect class="cls-2" x="123.12" y="223.62" width="6.92" height="6.92"/><rect class="cls-2" x="143.88" y="223.62" width="6.92" height="6.92"/><rect class="cls-2" x="192.33" y="223.62" width="6.92" height="6.92"/><rect class="cls-2" x="199.25" y="223.62" width="6.92" height="6.92"/><rect class="cls-2" x="213.09" y="223.62" width="6.92" height="6.92"/><rect class="cls-2" x="220.02" y="223.62" width="6.92" height="6.92"/><rect class="cls-2" x="226.94" y="223.62" width="6.92" height="6.92"/><rect class="cls-2" x="233.86" y="223.62" width="6.92" height="6.92"/><rect class="cls-2" x="240.78" y="223.62" width="6.92" height="6.92"/><rect class="cls-2" x="109.28" y="230.55" width="6.92" height="6.92"/><rect class="cls-2" x="116.2" y="230.55" width="6.92" height="6.92"/><rect class="cls-2" x="123.12" y="230.55" width="6.92" height="6.92"/><rect class="cls-2" x="130.04" y="230.55" width="6.92" height="6.92"/><rect class="cls-2" x="136.96" y="230.55" width="6.92" height="6.92"/><rect class="cls-2" x="143.88" y="230.55" width="6.92" height="6.92"/><rect class="cls-2" x="178.49" y="230.55" width="6.92" height="6.92"/><rect class="cls-2" x="192.33" y="230.55" width="6.92" height="6.92"/><rect class="cls-2" x="213.09" y="230.55" width="6.92" height="6.92"/><rect class="cls-2" x="233.86" y="230.55" width="6.92" height="6.92"/><rect class="cls-2" x="247.7" y="230.55" width="6.92" height="6.92"/><rect class="cls-2" x="123.12" y="237.47" width="6.92" height="6.92"/><rect class="cls-2" x="136.96" y="237.47" width="6.92" height="6.92"/><rect class="cls-2" x="143.88" y="237.47" width="6.92" height="6.92"/><rect class="cls-2" x="150.8" y="237.47" width="6.92" height="6.92"/><rect class="cls-2" x="164.65" y="237.47" width="6.92" height="6.92"/><rect class="cls-2" x="178.49" y="237.47" width="6.92" height="6.92"/><rect class="cls-2" x="192.33" y="237.47" width="6.92" height="6.92"/><rect class="cls-2" x="206.17" y="237.47" width="6.92" height="6.92"/><rect class="cls-2" x="226.94" y="237.47" width="6.92" height="6.92"/><rect class="cls-2" x="240.78" y="237.47" width="6.92" height="6.92"/><rect class="cls-2" x="109.28" y="244.39" width="6.92" height="6.92"/><rect class="cls-2" x="116.2" y="244.39" width="6.92" height="6.92"/><rect class="cls-2" x="123.12" y="244.39" width="6.92" height="6.92"/><rect class="cls-2" x="130.04" y="244.39" width="6.92" height="6.92"/><rect class="cls-2" x="150.8" y="244.39" width="6.92" height="6.92"/><rect class="cls-2" x="157.72" y="244.39" width="6.92" height="6.92"/><rect class="cls-2" x="185.41" y="244.39" width="6.92" height="6.92"/><rect class="cls-2" x="192.33" y="244.39" width="6.92" height="6.92"/><rect class="cls-2" x="213.09" y="244.39" width="6.92" height="6.92"/><rect class="cls-2" x="226.94" y="244.39" width="6.92" height="6.92"/><rect class="cls-2" x="240.78" y="244.39" width="6.92" height="6.92"/><rect class="cls-3" x="61.17" y="57.86" width="33.91" height="33.91"/><path class="cls-2" d="M95.09,50.59H53.91V99h48.44V50.59Zm0,41.18H61.17V57.86H95.09Z"/><rect class="cls-3" x="213.44" y="57.86" width="33.91" height="33.91"/><path class="cls-2" d="M247.36,50.59H206.17V99h48.45V50.59Zm0,41.18H213.44V57.86h33.92Z"/><rect class="cls-3" x="61.17" y="210.13" width="33.91" height="33.91"/><path class="cls-2" d="M95.09,202.86H53.91v48.45h48.44V202.86Zm0,41.18H61.17V210.13H95.09Z"/><rect class="cls-2" x="67.75" y="64.43" width="20.76" height="20.76"/><rect class="cls-2" x="220.02" y="64.43" width="20.76" height="20.76"/><rect class="cls-2" x="67.75" y="216.7" width="20.76" height="20.76"/></svg>