<svg id="Layer_1" data-name="Layer 1" xmlns="http://www.w3.org/2000/svg" viewBox="0 0 303.31 303.31"><defs><style>.cls-1{fill:#1b1b1b;}</style></defs><path class="cls-1" d="M200.28,280.34H111.47a19.62,19.62,0,0,1-19.6-19.59v-224a19.62,19.62,0,0,1,19.6-19.6h88.81a19.62,19.62,0,0,1,19.59,19.6v224A19.61,19.61,0,0,1,200.28,280.34ZM111.47,24.11a12.61,12.61,0,0,0-12.6,12.6v224a12.61,12.61,0,0,0,12.6,12.59h88.81a12.61,12.61,0,0,0,12.59-12.59v-224a12.61,12.61,0,0,0-12.59-12.6Z"/><path class="cls-1" d="M178.75,30.21H132a3.5,3.5,0,0,1-3.5-3.5v-6.1h7v2.6h39.77v-2.6h7v6.1A3.5,3.5,0,0,1,178.75,30.21Z"/><path class="cls-1" d="M139.09,137H120.85a4.64,4.64,0,0,1-4.63-4.63V114.09a4.63,4.63,0,0,1,4.63-4.63h18.24a4.63,4.63,0,0,1,4.63,4.63v18.24A4.64,4.64,0,0,1,139.09,137Zm-18-4.82H138.9V114.28H121Z"/><path class="cls-1" d="M139.09,137.46H120.85a5.13,5.13,0,0,1-5.13-5.13V114.09a5.13,5.13,0,0,1,5.13-5.13h18.24a5.13,5.13,0,0,1,5.13,5.13v18.24A5.13,5.13,0,0,1,139.09,137.46ZM120.85,110a4.13,4.13,0,0,0-4.13,4.13v18.24a4.13,4.13,0,0,0,4.13,4.13h18.24a4.13,4.13,0,0,0,4.13-4.13V114.09a4.13,4.13,0,0,0-4.13-4.13Zm18.55,22.68H120.54V113.78H139.4Zm-17.86-1H138.4V114.78H121.54Z"/><path class="cls-1" d="M139.61,188H121.36a4.64,4.64,0,0,1-4.63-4.63V165.12a4.64,4.64,0,0,1,4.63-4.63h18.25a4.64,4.64,0,0,1,4.63,4.63v18.25A4.64,4.64,0,0,1,139.61,188Zm-18.06-4.82h17.87V165.31H121.55Z"/><path class="cls-1" d="M139.61,188.5H121.36a5.14,5.14,0,0,1-5.13-5.13V165.12a5.15,5.15,0,0,1,5.13-5.13h18.25a5.14,5.14,0,0,1,5.13,5.13v18.25A5.13,5.13,0,0,1,139.61,188.5ZM121.36,161a4.14,4.14,0,0,0-4.13,4.13v18.25a4.14,4.14,0,0,0,4.13,4.13h18.25a4.14,4.14,0,0,0,4.13-4.13V165.12a4.14,4.14,0,0,0-4.13-4.13Zm18.56,22.69H121.05V164.81h18.87Zm-17.87-1h16.87V165.81H122.05Z"/><path class="cls-1" d="M190.64,137H172.4a4.64,4.64,0,0,1-4.63-4.63V114.09a4.63,4.63,0,0,1,4.63-4.63h18.24a4.63,4.63,0,0,1,4.63,4.63v18.24A4.63,4.63,0,0,1,190.64,137Zm-18-4.82h17.86V114.28H172.59Z"/><path class="cls-1" d="M190.64,137.46H172.4a5.13,5.13,0,0,1-5.13-5.13V114.09A5.13,5.13,0,0,1,172.4,109h18.24a5.13,5.13,0,0,1,5.13,5.13v18.24A5.13,5.13,0,0,1,190.64,137.46ZM172.4,110a4.13,4.13,0,0,0-4.13,4.13v18.24a4.13,4.13,0,0,0,4.13,4.13h18.24a4.13,4.13,0,0,0,4.13-4.13V114.09a4.13,4.13,0,0,0-4.13-4.13ZM191,132.64H172.09V113.78H191Zm-17.86-1H190V114.78H173.09Z"/><rect class="cls-1" x="167.06" y="171.77" width="5.37" height="5.5"/><path class="cls-1" d="M172.93,177.76h-6.37v-6.49h6.37Zm-5.37-1h4.37v-4.49h-4.37Z"/><path class="cls-1" d="M172.63,177.46h-5.78v-5.9h5.78Zm-5.37-.4h5V172h-5Z"/><path class="cls-1" d="M173.13,178h-6.78v-6.9h6.78Zm-5.37-1.4h4v-4.09h-4Z"/><rect class="cls-1" x="172.68" y="177.39" width="5.37" height="5.5"/><path class="cls-1" d="M178.55,183.38h-6.37v-6.49h6.37Zm-5.37-1h4.37v-4.49h-4.37Z"/><path class="cls-1" d="M178.25,183.08h-5.77v-5.89h5.77Zm-5.37-.4h5v-5.09h-5Z"/><path class="cls-1" d="M178.75,183.58H172v-6.89h6.77Zm-5.37-1.4h4v-4.09h-4Z"/><rect class="cls-1" x="178.3" y="171.77" width="5.37" height="5.5"/><path class="cls-1" d="M184.17,177.76H177.8v-6.49h6.37Zm-5.37-1h4.37v-4.49H178.8Z"/><path class="cls-1" d="M183.87,177.46H178.1v-5.9h5.77Zm-5.37-.4h5V172h-5Z"/><path class="cls-1" d="M184.37,178H177.6v-6.9h6.77Zm-5.37-1.4h4v-4.09h-4Z"/><rect class="cls-1" x="178.3" y="160.52" width="5.37" height="5.5"/><path class="cls-1" d="M184.17,166.52H177.8V160h6.37Zm-5.37-1h4.37V161H178.8Z"/><path class="cls-1" d="M183.87,166.22H178.1v-5.9h5.77Zm-5.37-.4h5v-5.1h-5Z"/><path class="cls-1" d="M184.37,166.72H177.6v-6.9h6.77Zm-5.37-1.4h4v-4.1h-4Z"/><rect class="cls-1" x="178.3" y="148.88" width="5.37" height="5.5"/><path class="cls-1" d="M184.17,154.87H177.8v-6.49h6.37Zm-5.37-1h4.37v-4.49H178.8Z"/><path class="cls-1" d="M183.87,154.57H178.1v-5.9h5.77Zm-5.37-.4h5v-5.09h-5Z"/><path class="cls-1" d="M184.37,155.07H177.6v-6.9h6.77Zm-5.37-1.4h4v-4.09h-4Z"/><rect class="cls-1" x="178.3" y="137.23" width="5.37" height="5.5"/><path class="cls-1" d="M184.17,143.23H177.8v-6.5h6.37Zm-5.37-1h4.37v-4.5H178.8Z"/><path class="cls-1" d="M183.87,142.93H178.1V137h5.77Zm-5.37-.41h5v-5.09h-5Z"/><path class="cls-1" d="M184.37,143.43H177.6v-6.9h6.77ZM179,142h4v-4.09h-4Z"/><rect class="cls-1" x="127.3" y="137.23" width="5.37" height="5.5"/><path class="cls-1" d="M133.17,143.23H126.8v-6.5h6.37Zm-5.37-1h4.37v-4.5H127.8Z"/><path class="cls-1" d="M132.87,142.93H127.1V137h5.77Zm-5.37-.41h5v-5.09h-5Z"/><path class="cls-1" d="M133.37,143.43H126.6v-6.9h6.77ZM128,142h4v-4.09h-4Z"/><rect class="cls-1" x="127.3" y="120.76" width="5.37" height="5.5"/><path class="cls-1" d="M133.17,126.76H126.8v-6.5h6.37Zm-5.37-1h4.37v-4.5H127.8Z"/><path class="cls-1" d="M132.87,126.46H127.1v-5.9h5.77Zm-5.37-.4h5V121h-5Z"/><path class="cls-1" d="M133.37,127H126.6v-6.9h6.77Zm-5.37-1.4h4v-4.09h-4Z"/><rect class="cls-1" x="127.3" y="171.77" width="5.37" height="5.5"/><path class="cls-1" d="M133.17,177.76H126.8v-6.49h6.37Zm-5.37-1h4.37v-4.49H127.8Z"/><path class="cls-1" d="M132.87,177.46H127.1v-5.9h5.77Zm-5.37-.4h5V172h-5Z"/><path class="cls-1" d="M133.37,178H126.6v-6.9h6.77Zm-5.37-1.4h4v-4.09h-4Z"/><rect class="cls-1" x="150.59" y="120.76" width="5.37" height="5.5"/><path class="cls-1" d="M156.46,126.76h-6.37v-6.5h6.37Zm-5.37-1h4.37v-4.5h-4.37Z"/><path class="cls-1" d="M156.16,126.46h-5.77v-5.9h5.77Zm-5.37-.4h5V121h-5Z"/><path class="cls-1" d="M156.66,127h-6.77v-6.9h6.77Zm-5.37-1.4h4v-4.09h-4Z"/><rect class="cls-1" x="178.3" y="120.76" width="5.37" height="5.5"/><path class="cls-1" d="M184.17,126.76H177.8v-6.5h6.37Zm-5.37-1h4.37v-4.5H178.8Z"/><path class="cls-1" d="M183.87,126.46H178.1v-5.9h5.77Zm-5.37-.4h5V121h-5Z"/><path class="cls-1" d="M184.37,127H177.6v-6.9h6.77Zm-5.37-1.4h4v-4.09h-4Z"/><rect class="cls-1" x="127.3" y="148.88" width="5.37" height="5.5"/><path class="cls-1" d="M133.17,154.87H126.8v-6.49h6.37Zm-5.37-1h4.37v-4.49H127.8Z"/><path class="cls-1" d="M132.87,154.57H127.1v-5.9h5.77Zm-5.37-.4h5v-5.09h-5Z"/><path class="cls-1" d="M133.37,155.07H126.6v-6.9h6.77Zm-5.37-1.4h4v-4.09h-4Z"/><rect class="cls-1" x="183.92" y="177.39" width="5.37" height="5.5"/><path class="cls-1" d="M189.8,183.38h-6.38v-6.49h6.38Zm-5.38-1h4.38v-4.49h-4.38Z"/><path class="cls-1" d="M189.5,183.08h-5.78v-5.89h5.78Zm-5.38-.4h5v-5.09h-5Z"/><path class="cls-1" d="M190,183.58h-6.78v-6.89H190Zm-5.38-1.4h4v-4.09h-4Z"/><rect class="cls-1" x="183.92" y="154.9" width="5.37" height="5.5"/><path class="cls-1" d="M189.8,160.89h-6.38V154.4h6.38Zm-5.38-1h4.38V155.4h-4.38Z"/><path class="cls-1" d="M189.5,160.6h-5.78v-5.9h5.78Zm-5.38-.41h5V155.1h-5Z"/><path class="cls-1" d="M190,161.1h-6.78v-6.9H190Zm-5.38-1.41h4V155.6h-4Z"/><rect class="cls-1" x="183.92" y="143.25" width="5.37" height="5.5"/><path class="cls-1" d="M189.8,149.25h-6.38v-6.5h6.38Zm-5.38-1h4.38v-4.5h-4.38Z"/><path class="cls-1" d="M189.5,149h-5.78v-5.9h5.78Zm-5.38-.4h5v-5.1h-5Z"/><path class="cls-1" d="M190,149.45h-6.78v-6.9H190Zm-5.38-1.4h4V144h-4Z"/><rect class="cls-1" x="133.32" y="143.25" width="5.37" height="5.5"/><path class="cls-1" d="M139.2,149.25h-6.38v-6.5h6.38Zm-5.38-1h4.38v-4.5h-4.38Z"/><path class="cls-1" d="M138.9,149h-5.78v-5.9h5.78Zm-5.38-.4h5v-5.1h-5Z"/><path class="cls-1" d="M139.4,149.45h-6.78v-6.9h6.78Zm-5.38-1.4h4V144h-4Z"/><rect class="cls-1" x="121.68" y="143.25" width="5.37" height="5.5"/><path class="cls-1" d="M127.55,149.25h-6.37v-6.5h6.37Zm-5.37-1h4.37v-4.5h-4.37Z"/><path class="cls-1" d="M127.25,149h-5.77v-5.9h5.77Zm-5.37-.4h5v-5.1h-5Z"/><path class="cls-1" d="M127.75,149.45H121v-6.9h6.77Zm-5.37-1.4h4V144h-4Z"/><rect class="cls-1" x="172.68" y="154.9" width="5.37" height="5.5"/><path class="cls-1" d="M178.55,160.89h-6.37V154.4h6.37Zm-5.37-1h4.37V155.4h-4.37Z"/><path class="cls-1" d="M178.25,160.6h-5.77v-5.9h5.77Zm-5.37-.41h5V155.1h-5Z"/><path class="cls-1" d="M178.75,161.1H172v-6.9h6.77Zm-5.37-1.41h4V155.6h-4Z"/><rect class="cls-1" x="150.19" y="166.02" width="5.37" height="16.99"/><path class="cls-1" d="M156.06,183.51h-6.37v-18h6.37Zm-5.37-1h4.37v-16h-4.37Z"/><path class="cls-1" d="M155.76,183.21H150V165.82h5.77Zm-5.37-.4h5V166.22h-5Z"/><path class="cls-1" d="M156.26,183.71h-6.77V165.32h6.77Zm-5.37-1.4h4V166.72h-4Z"/><rect class="cls-1" x="155.81" y="114.61" width="5.37" height="16.99"/><path class="cls-1" d="M161.68,132.11h-6.37v-18h6.37Zm-5.37-1h4.37v-16h-4.37Z"/><path class="cls-1" d="M161.39,131.81h-5.78v-17.4h5.78Zm-5.38-.4h5V114.82h-5Z"/><path class="cls-1" d="M161.89,132.31h-6.78v-18.4h6.78Zm-5.38-1.4h4V115.32h-4Z"/><rect class="cls-1" x="149.99" y="149.48" width="5.37" height="5.5" transform="translate(304.9 -0.45) rotate(90)"/><path class="cls-1" d="M155.92,155.41h-6.49V149h6.49Zm-5.49-1h4.49V150h-4.49Z"/><path class="cls-1" d="M155.62,155.11h-5.89v-5.77h5.89Zm-5.49-.4h5.09v-5h-5.09Z"/><path class="cls-1" d="M156.12,155.61h-6.89v-6.77h6.89Zm-5.49-1.4h4.09v-4h-4.09Z"/><rect class="cls-1" x="152.81" y="146.13" width="5.37" height="22.63" transform="translate(312.94 1.95) rotate(90)"/><path class="cls-1" d="M167.31,160.63H143.68v-6.37h23.63Zm-22.63-1h21.63v-4.37H144.68Z"/><path class="cls-1" d="M167,160.33H144v-5.77h23Zm-22.63-.4h22.23v-5H144.38Z"/><path class="cls-1" d="M167.51,160.83h-24v-6.77h24Zm-22.63-1.4h21.23v-4H144.88Z"/><rect class="cls-1" x="161.25" y="142.65" width="5.37" height="5.5" transform="translate(18.53 309.33) rotate(-90)"/><path class="cls-1" d="M167.18,148.59h-6.5v-6.38h6.5Zm-5.5-1h4.5v-4.38h-4.5Z"/><path class="cls-1" d="M166.88,148.29H161v-5.78h5.9Zm-5.49-.41h5.09v-5h-5.09Z"/><path class="cls-1" d="M167.38,148.79h-6.9V142h6.9Zm-5.49-1.41H166v-4h-4.09Z"/><rect class="cls-1" x="152.81" y="128.86" width="5.37" height="22.63" transform="translate(15.31 295.67) rotate(-90)"/><path class="cls-1" d="M167.31,143.36H143.68V137h23.63Zm-22.63-1h21.63V138H144.68Z"/><path class="cls-1" d="M167,143.07H144v-5.78h23Zm-22.63-.41h22.23v-5H144.38Z"/><path class="cls-1" d="M167.51,143.57h-24v-6.78h24Zm-22.63-1.41h21.23v-4H144.88Z"/><path class="cls-1" d="M201.63,198.49H172a3.5,3.5,0,1,1,0-7h26.11V165.38a3.5,3.5,0,0,1,7,0V195A3.5,3.5,0,0,1,201.63,198.49Z"/><path class="cls-1" d="M201.63,131a3.5,3.5,0,0,1-3.5-3.5V106H172a3.5,3.5,0,0,1,0-7h29.61a3.5,3.5,0,0,1,3.5,3.5v25A3.5,3.5,0,0,1,201.63,131Z"/><path class="cls-1" d="M109.1,131a3.5,3.5,0,0,1-3.5-3.5v-25a3.5,3.5,0,0,1,3.5-3.5h25a3.5,3.5,0,0,1,0,7H112.6v21.49A3.5,3.5,0,0,1,109.1,131Z"/><path class="cls-1" d="M134.08,198.49h-25a3.5,3.5,0,0,1-3.5-3.5V165.38a3.5,3.5,0,0,1,7,0v26.11h21.48a3.5,3.5,0,1,1,0,7Z"/></svg>