<svg id="Layer_1" data-name="Layer 1" xmlns="http://www.w3.org/2000/svg" viewBox="0 0 303.31 303.31"><defs><style>.cls-1{fill:#1b1b1b;}</style></defs><path class="cls-1" d="M235.48,83.86a5.61,5.61,0,0,1,0,.58,3.9,3.9,0,0,1-.33,1.2,2.14,2.14,0,0,1-.17.3,3.08,3.08,0,0,1-.37.5,0,0,0,0,0,0,0l-.26.29s0,0,0,0L230.51,91l-.09-.36-.26-1c-.41-1.55-.85-3-1.31-4.27l0,0h0c0-.07,0-.15-.08-.22s-.15-.43-.23-.65a0,0,0,0,1,0,0l0-.06,0-.09-.1-.27c-.05-.12-.09-.23-.13-.35s-.05-.14-.08-.2,0,0,0,0a1,1,0,0,1,0-.1A2.77,2.77,0,0,0,228,83l-.12-.29c0-.09-.07-.18-.11-.28l0-.07s0-.11-.07-.17l0-.07,0-.07-.1-.24c-.19-.45-.38-.89-.58-1.32l-.22-.47c-.06-.13-.11-.25-.17-.37l-.11-.24a2.1,2.1,0,0,0-.13-.26l-.15-.32a0,0,0,0,1,0,0l0-.06-.13-.27-.08-.17-.09-.18c-.24-.48-.51-1-.85-1.61,0,0,0,0,0,0l-.28-.5-.11-.19-.2-.36-.13-.22,0-.06-.07-.11c-.27-.48-.56-1-.85-1.43a1.63,1.63,0,0,0-.11-.17c-.08-.14-.17-.28-.26-.42h0c-.17-.28-.35-.54-.53-.81,0,0,0,0,0,0l-.35-.53-.34-.5-.11-.16-.1-.14-.23-.34c-.07-.11-.15-.21-.22-.31l0,0a.21.21,0,0,1-.06-.08h0a.47.47,0,0,1-.06-.09h0l-.52-.71a.39.39,0,0,1-.08-.1c-.26-.36-.54-.72-.82-1.08-.12-.16-.24-.32-.38-.48l-.09-.11c-.21-.28-.43-.55-.66-.82s-.29-.36-.45-.53l-.05,0c-.17-.21-.35-.43-.55-.64l-.37-.42-.05-.06-.1-.11-.31-.34-.24-.26,0,0L216,64.1l-.29-.32-.07-.07q-.33-.37-.69-.72l-.11-.11-.15-.16-.11-.1-.27-.27c-.21-.22-.42-.43-.64-.64l-.65-.62c-.23-.23-.46-.44-.7-.65-.46-.42-.92-.83-1.39-1.22a3.48,3.48,0,0,0-.3-.26l-.09-.08c-.38-.33-.77-.65-1.16-1-.22-.19-.43-.36-.65-.52l-.11-.08-.1-.07-.15-.12a1.84,1.84,0,0,0-.22-.17L208,56.9l0,0a3.19,3.19,0,0,0-.43-.32l-.72-.53a.48.48,0,0,0-.15-.11h0c-.44-.34-.89-.65-1.35-.95l-.25-.17a.42.42,0,0,0-.12-.08c-.29-.21-.59-.4-.89-.58L204,54l-.14-.09-.25-.16-.07,0-.48-.31,0,0,0,0-.46-.27-.05,0-.59-.35-.24-.14-.2-.12-.15-.09-.32-.18-.06,0-.79-.44-.34-.19-.21-.11c-.58-.31-1.17-.61-1.79-.92l-.43-.2h0l-.55-.26-.21-.1-.59-.27-.15-.07h0l-.05,0a4.68,4.68,0,0,0-.45-.2l-.08,0-.18-.08c-.24-.11-.47-.21-.71-.3l-.05,0-.08,0-.1,0h0l-.15-.06-.32-.14-.2-.08-.32-.13-.09,0h0l-.07,0-.85-.33-.19-.07a2.75,2.75,0,0,1-.49-.23l0,0a3.46,3.46,0,0,1-1.12-1,0,0,0,0,0,0,0,3.12,3.12,0,0,1-.4-.82.13.13,0,0,1,0-.08.5.5,0,0,1,0-.13,1.31,1.31,0,0,1-.06-.27.07.07,0,0,1,0-.05s0,0,0-.06,0-.06,0-.09a2.73,2.73,0,0,1,0-.41,3.11,3.11,0,0,1,0-.43.69.69,0,0,1,0-.2,2.44,2.44,0,0,1,.16-.57.06.06,0,0,0,0,0,.36.36,0,0,1,0-.09,1.33,1.33,0,0,1,.11-.24l.07-.12,0-.06.09-.14s0,0,0,0a1.37,1.37,0,0,1,.15-.21.44.44,0,0,1,.09-.11.32.32,0,0,1,.08-.09,2.9,2.9,0,0,1,.36-.34s0,0,0,0l.19-.14h0l0,0,.07,0s0,0,.06,0,0,0,0,0,0,0,.06,0l.13-.07,0,0h0l0,0,0,0,.12,0h0l.07,0,.17-.06.18-.05s0,0,0,0h.05l.23-.05h.06l.19,0h.44a3.44,3.44,0,0,1,.45.05s0,0,0,0h0l.27.07h0l.29.1.3.11,0,0c1.09.41,2.17.85,3.23,1.31h0l1.59.71,0,0h0c.56.27,1.12.53,1.67.81a4.74,4.74,0,0,1,.5.26A2.69,2.69,0,0,1,202,45l.8.42h0l.09,0c.46.24.91.49,1.36.75l.34.19.3.18.51.3.42.25.13.07.3.19.3.18.19.12.06,0,.14.08.15.1.06,0,.34.21.32.21c.17.1.33.22.5.33l.38.25.07,0,.07,0,.73.5c.33.22.69.48,1,.74,0,0,0,0,0,0l0,0,.23.17,1.24.91.78.6.1.09.33.26.29.24.26.2.7.58.26.21.27.24.26.22,0,0c.32.27.63.55.94.83s.29.25.43.38l.11.1.68.63.3.29.3.28.19.18.19.19.41.4c.09.09.16.17.24.24l.39.4.06,0,.17.18a1.89,1.89,0,0,0,.2.2l.43.45,0,.06c.15.15.29.31.44.47l.2.22c.23.24.45.48.67.73l.07.07v0l0,0h0l.72.84.14.16.14.16.3.36.3.36h0l.21.25.22.27.2.24.71.91q.24.3.45.6a3.92,3.92,0,0,1,.25.32l.25.34.07.09.22.3.23.33,0,0a.61.61,0,0,1,.07.1l.29.4c.08.12.17.24.25.37l0,0,0,0,0,0c0,.07.09.14.14.21h0l.09.14s.06.1.09.14c.2.29.4.59.58.87h0c.2.3.39.59.56.87.06.08.11.17.16.25s.2.32.3.48c.23.36.46.76.7,1.16l.24.41c.07.11.13.22.19.33l.36.64a.24.24,0,0,1,.06.11c.31.55.6,1.1.89,1.66l.61,1.19c.05.09.09.18.13.27.16.33.32.65.46,1s.23.49.34.73c.3.65.57,1.27.83,1.89l0,.07.34.82a.14.14,0,0,1,0,.06c.12.29.23.59.34.88.23.59.45,1.18.66,1.78l.06.17a.61.61,0,0,1,0,.11l.06.28A1,1,0,0,1,235.48,83.86Z"/><path class="cls-1" d="M230.25,92l-.58-2.24c-.38-1.45-.8-2.82-1.28-4.2l0-.06-.06-.15,0-.12c0-.16-.11-.32-.17-.48l-.23-.61-.13-.35-.08-.2-.07-.18s0-.1-.07-.18l-.13-.3-.07-.2L227,82q-.27-.64-.57-1.29c-.08-.18-.14-.32-.21-.46l-.28-.6a1.67,1.67,0,0,0-.11-.23l0-.08h-.18l-.06-.48-.07-.16.38-.37-.45.22-.09-.18c-.23-.45-.49-.94-.81-1.52l0-.05,0-.15-.23-.41s0-.06-.07-.11l-.48-.83c-.27-.48-.55-.95-.84-1.42l.35-.38-.41.29-.06-.09a4.11,4.11,0,0,0-.24-.39l-.08-.14-.33-.51-.21-.32-.12-.18-.15-.23-.26-.37-.08-.12a1.86,1.86,0,0,1-.12-.18l-.33-.47a1,1,0,0,0-.12-.17l-.08-.12a.68.68,0,0,1-.13-.18l0,0v0l-.51-.7a.46.46,0,0,1-.13-.18c-.22-.28-.49-.64-.77-1-.12-.16-.23-.31-.36-.46l-.11-.14c-.21-.27-.42-.53-.64-.79l-.13-.15c-.1-.13-.2-.25-.31-.37l-.07-.07c-.16-.2-.34-.41-.53-.61s-.24-.29-.37-.43l-.46-.51-.23-.25-.17-.18-.2-.22-.16-.17c-.23-.26-.45-.49-.68-.71l-.65-.65c-.21-.22-.41-.42-.63-.63l-.42-.4-.23-.22c-.23-.23-.45-.43-.68-.63-.47-.43-.92-.83-1.38-1.21a2.87,2.87,0,0,0-.3-.26l-.12-.11c-.35-.3-.74-.62-1.12-.91-.23-.2-.43-.36-.64-.52l.19-.48-.28.42-.3-.23a1,1,0,0,0-.16-.12l-.11-.09-.08-.07a3.34,3.34,0,0,0-.34-.25l-.76-.56h-.06l-.12-.12c-.43-.33-.87-.63-1.32-.92l-.27-.19-.12-.07a7.79,7.79,0,0,0-.85-.56l-.11-.08-.2-.13-.07,0a.57.57,0,0,0-.13-.08l-.11-.07-.45-.29-.29-.18-.23-.13-.23-.14-.41-.24-.23-.13-1-.6-.49-.27-.25-.14-.31-.16c-.57-.31-1.15-.6-1.77-.91l-.4-.19-.3-.16-.26-.11-.12-.06-.66-.31-.08,0h0l-.1-.05c-.18-.08-.32-.15-.46-.2l-.29-.13c-.22-.1-.43-.2-.65-.28h-.05l-.72-.32-.19-.08L193,49l-.13-.06h-.08l-.1,0-.88-.34-.1,0a3.45,3.45,0,0,1-.66-.3l-.07,0A3.76,3.76,0,0,1,189.78,47l-.09-.15a3.25,3.25,0,0,1-.37-.75l0-.15a.7.7,0,0,1-.05-.18.4.4,0,0,1,0-.13l0,0v-.23s0,0,0-.08a2.81,2.81,0,0,1,0-.5,4.19,4.19,0,0,1,0-.5,1,1,0,0,1,0-.27,2.13,2.13,0,0,1,.15-.56l0-.07.06-.14c0-.1.09-.2.13-.28l.5.15-.44-.25,0-.09,0,0v-.15l.16-.1a1.13,1.13,0,0,1,.1-.13.85.85,0,0,1,.14-.17s0-.06.14-.14a1.79,1.79,0,0,1,.31-.3l.12-.15h.08l0,0,.14-.09,0-.09.16,0,.06,0,.08,0,.09-.09h.1a.35.35,0,0,1,.13-.05l.12,0,.21-.07.07-.1.17,0h0l.09,0,0,0,.69,0h.19l.45,0h.22l0,.05.12,0h.06l.33.12a2.67,2.67,0,0,0,.26.09l.14.06c1,.38,2,.8,3.09,1.25l.11,0,.23.11,1.31.58h.08l.1.09.42.2c.4.19.81.38,1.2.58.18.09.36.18.54.29a2,2,0,0,1,.37.18l.69.36h0l.12.08c.51.27,1,.52,1.43.79l.12.07.19.1L205,46c.08,0,.16.09.24.15l.48.28.44.26.09.05.35.22a1.79,1.79,0,0,1,.19.11l.32.2.13.07.19.13.24.16.48.3.32.21.18.12.39.26.87.59c.32.21.67.47,1,.72l.15.11.12.09.42.31.89.65c.26.19.52.4.79.61l.72.59a1.29,1.29,0,0,1,.18.14l1,.85.21.18.08.08.22.18,0,0,.06,0c.31.26.62.54.92.81l.47.41-.26.45.34-.37c.26.23.49.45.71.66l.3.29.31.29.18.17.08.08.09.09c.16.15.3.28.44.43l.09.09a.71.71,0,0,0,.13.12l.42.44.22.22.17.17.46.48.08.09.27.29.15.16.13.14.07.07.66.72h0l.05.06.17.12v.08l.65.76.11.13.15.17,2,2.44.47.61.24.31.33.44a2.83,2.83,0,0,0,.2.28l.24.35.07.08,0,.07.22.31.16.23.14.21.08.1s0,.08.06.11l.09.1s.08.12.12.18l.05.09c.16.24.32.46.46.68h.23v.36c.18.26.34.51.49.76a1.11,1.11,0,0,1,.12.18c.11.16.18.28.25.39l.09.16.5.81.21.35c.08.13.16.28.24.42l.2.34.33.59a1.28,1.28,0,0,1,.11.2c.3.54.59,1.08.87,1.63l.2.39c.14.27.28.54.41.81a1.57,1.57,0,0,1,.14.29l.09.18c.13.27.26.53.37.79s.18.37.27.56l.07.16c.3.66.58,1.28.84,1.91l0,.1c.11.26.21.52.33.78l0,.12c.09.22.17.44.25.65l.07.19c.23.59.46,1.19.67,1.8,0,0,0,.1.06.17l.1.44a1.1,1.1,0,0,1,.06.39c0,.2,0,.4,0,.62a4.25,4.25,0,0,1-.38,1.37,2,2,0,0,1-.21.38,4.43,4.43,0,0,1-.29.42l0,0-.1.1-.41.46Zm-.94-6.82c.51,1.43.94,2.84,1.33,4.32l.12.45,3.07-3.39v-.31h.27V86h.27l.18-.27a1.57,1.57,0,0,0,.14-.25,3.12,3.12,0,0,0,.29-1,4.17,4.17,0,0,0,0-.5v0a.68.68,0,0,0,0-.15l-.14-.51c-.21-.62-.43-1.2-.66-1.79l-.07-.19c-.09-.23-.17-.46-.27-.68l0-.1c-.12-.27-.22-.51-.31-.75l.42-.29-.46.19c-.26-.61-.53-1.23-.83-1.87l-.07-.17c-.09-.18-.17-.37-.26-.55s-.24-.52-.37-.77l-.09-.2-.12-.25q-.21-.42-.42-.81l-.2-.39c-.28-.55-.57-1.1-.88-1.64l-.42-.75a3.14,3.14,0,0,0-.18-.31c-.08-.16-.16-.29-.24-.42l-.21-.36-.49-.79-.1-.17c-.06-.1-.12-.2-.19-.3l-.05-.09-.09-.14c-.15-.24-.29-.46-.44-.68h0l-.14-.23-.58-.86-.05-.09-.06-.08-.07-.1a2.17,2.17,0,0,1-.15-.22l-.09-.12-.13-.2-.15-.22-.22-.3-.16-.23a2.46,2.46,0,0,1-.21-.28c-.05-.06-.12-.17-.2-.28s0,0-.08-.1l-.23-.32A3.45,3.45,0,0,0,225,65c-.17-.24-.31-.44-.46-.63L222.63,62l-.11-.13-.15-.16-.88-1-.64-.7-.11-.12-.25-.28-.28-.29-.08-.09-.4-.42a2.27,2.27,0,0,1-.22-.22l-.08-.08.29-.43-.38.33c-.18-.17-.3-.3-.43-.43l-.16-.15-.08-.09-.39-.38-.16-.15a1.72,1.72,0,0,0-.2-.2l-.32-.3-.3-.29-.68-.63-.09-.08c-.16-.15-.28-.26-.43-.38l-.9-.8-.13-.1a1.68,1.68,0,0,0-.21-.18l-.12-.11-.16-.14-1-.86-.14-.1-.8-.66-.72-.55-.88-.65-.44-.32-.12-.08-.16-.13c-.3-.21-.65-.46-1-.67l-.88-.61-.36-.22-.21-.15-.28-.18-.46-.3-.22-.13-.69-.44a.83.83,0,0,0-.16-.09l-.33-.21-.11-.06-.43-.25-.52-.31-.19-.12-.11-.06-.21-.11-.11-.07-1.35-.75h0l-.11-.06-.73-.38a3.69,3.69,0,0,0-.39-.2,5.79,5.79,0,0,0-.54-.28l-1.19-.58-.6-.28-1.28-.58-.24-.1c-1.08-.47-2.16-.91-3.21-1.3l-.11,0L194,42l-.18-.06-.09,0-.07,0-.28-.06-.27,0h-.2l-.44,0h-.05l-.25.25-.13-.12-.42.16-.07.15h-.1l-.18.18-.06-.06h0l-.15.12-.2.21-.16.19-.05.06v0l-.14.19,0,0a.81.81,0,0,1-.06.13.88.88,0,0,0-.1.19l0,.08s0,.08,0,.11a1.62,1.62,0,0,0-.12.43l0,.19a2.17,2.17,0,0,0,0,.36,1.77,1.77,0,0,0,0,.33l0,.23a.94.94,0,0,0,0,.16l.07.22a3,3,0,0,0,.34.69l.07.11a3,3,0,0,0,.9.79l.07,0a2,2,0,0,0,.36.17l.11,0c.39.14.67.25,1,.37l.19.06.18.08.14,0,.18.08.37.16.08,0,.25.11.08,0c.2.08.44.18.69.3l.28.13a2.84,2.84,0,0,1,.38.16l.11,0,.11.05-.12.49.22-.45.54.25.14.06.65.31.19.1.24.11c.62.32,1.22.62,1.8.93l.22.12.36.2.48.26.83.47.24.14.2.12.44.26.15.09.31.18.27.17c.21.12.36.22.52.33a1,1,0,0,1,.22.14l.11.07.1.06.12.08c.33.2.64.4.94.62,0,0,.08,0,.18.13l.11.06c.53.35.94.63,1.31.91h0l.09.1a.87.87,0,0,1,.22.17l.67.48a2.94,2.94,0,0,1,.41.31l.1.08.27.21-.17.5.27-.42.13.09a.75.75,0,0,1,.16.13,6.18,6.18,0,0,1,.62.49c.38.29.78.62,1.16,1a4.51,4.51,0,0,1,.42.37c.44.36.91.78,1.37,1.2.24.21.48.43.72.67l.21.2.44.42c.22.2.43.42.65.64l.26.27h0l.11.09.26.28c.24.23.48.48.71.74l.16.16c.07.08.14.15.21.24l.18.19.22.24.48.56a3.4,3.4,0,0,1,.36.38c.19.2.38.43.55.65a4.9,4.9,0,0,1,.39.43l.11.14c.23.27.46.55.68.84l.09.11c.12.14.25.31.37.48.28.36.57.72.83,1.09l.08.09.52.72.25.34.16.23.31.46a1.36,1.36,0,0,0,.1.14l.1.14.27.4.14.21.19.29.14.21c.14.22.29.43.42.66l.08.12.19.32a1.06,1.06,0,0,1,.12.2c.28.43.57.92.84,1.41l.08.13.15.25.2.36a.91.91,0,0,1,.06.11c.15.25.24.42.34.6l0,.07c.34.61.6,1.12.84,1.6l.5,1s.08.16.13.27l.1.22.12.25.06.13c.07.13.14.29.22.48.2.43.39.87.59,1.33l.11.26.11.26-.42.29.46-.19a2.47,2.47,0,0,1,.12.31c0,.07.07.16.1.25a1.88,1.88,0,0,1,.12.3h0l0,.07a.77.77,0,0,1,.07.16l0,.1c0,.11.07.21.12.32l.23.62c.06.17.13.34.18.52,0,0,0,0,0,.1h0l0,0-.43.25Zm-1.12-1.84-.08,0ZM195.55,50.05h0Zm-2.44-2.11h0Z"/><path class="cls-1" d="M196.43,44.27l.87,6h0l-.55-.26-.21-.1-.59-.27-.15-.07h0l-.05,0a4.68,4.68,0,0,0-.45-.2l-.08,0-.18-.08c-.24-.11-.47-.21-.71-.3l-.05,0-.08,0-.1,0h0l-.15-.06-.32-.14c-1.06.84-2.09,1.72-3.09,2.63l-.85-5.91a.07.07,0,0,1,0-.05s0,0,0-.06,0-.06,0-.09a2.73,2.73,0,0,1,0-.41,3.11,3.11,0,0,1,0-.43.69.69,0,0,1,0-.2,2.44,2.44,0,0,1,.16-.57.06.06,0,0,0,0,0,.36.36,0,0,1,0-.09,1.33,1.33,0,0,1,.11-.24.31.31,0,0,1,.05-.1l0,0a.06.06,0,0,1,0,0l0,0,.09-.14s0,0,0,0a1.37,1.37,0,0,1,.15-.21.44.44,0,0,1,.09-.11.32.32,0,0,1,.08-.09,2.9,2.9,0,0,1,.36-.34s0,0,0,0L191,42l.08,0h0l0,0h0l.06,0s0,0,.06,0,0,0,0,0,0,0,.06,0l.13-.07,0,0h0l0,0,0,0h0a.45.45,0,0,1,.11,0h0l.07,0,.09,0,.06,0h0l.08,0,.1,0s0,0,0,0h.05a.27.27,0,0,1,.12,0l.08,0h.09l.19,0h.44a3.44,3.44,0,0,1,.45.05s0,0,0,0h0l.27.07h0a2.33,2.33,0,0,1,.32.1l.2.08.06,0,0,0A3.44,3.44,0,0,1,196.43,44.27Z"/><path class="cls-1" d="M190.14,52.29l-1-6.94s0,0,0-.08a2.81,2.81,0,0,1,0-.5,4.19,4.19,0,0,1,0-.5,1,1,0,0,1,0-.27,2.13,2.13,0,0,1,.15-.56l0-.07.06-.14a1.63,1.63,0,0,1,.11-.23v0l0-.2.11-.08v-.11l.16-.1a1.13,1.13,0,0,1,.1-.13.85.85,0,0,1,.14-.17s0-.06.14-.14a1.79,1.79,0,0,1,.31-.3l.13-.15v-.2l.45-.06,0,0v-.09l.51-.14.11,0,.11,0h0l.07-.1.17,0h0l.07,0,.07,0,.44,0h.42l.47,0h.22l0,.05.12,0h0a2.25,2.25,0,0,1,.4.12l.4.18a4,4,0,0,1,2.09,2.94h0l.87,6V51l-.72-.28a5.12,5.12,0,0,0-.53-.25l-.12-.06-.66-.31-.08,0h0l-.1-.05c-.18-.08-.32-.15-.46-.2l-.29-.13c-.22-.1-.43-.2-.65-.28h-.05l-.44-.2c-.94.75-1.89,1.57-2.83,2.42Zm0-7.14h0l.74,5.14c.8-.71,1.61-1.39,2.42-2l.23-.19.6.27.08,0,.25.11.08,0c.2.08.44.18.69.3l.28.13a2.84,2.84,0,0,1,.38.16l.11,0,.11.05-.12.49.22-.45.48.23-.74-5.13a3,3,0,0,0-1.6-2.21l-.26-.11-.23-.08-.12,0-.31-.06-.27,0H193l-.12,0h-.19l0,0-.26,0-.24.24-.06-.06v0l-.49.06-.07.15h-.1l-.18.18-.07-.07,0,0,0,0h0l-.11.08-.21.07a.5.5,0,0,0,.29-.1l0,0a1.92,1.92,0,0,0-.29.28l-.16.19-.05.06v0l-.24.35c0,.1-.07.15-.09.2l0,.08s0,.08,0,.11a1.62,1.62,0,0,0-.12.43l0,.19a2.17,2.17,0,0,0,0,.36,1.77,1.77,0,0,0,0,.33Zm5.43,4.9h0Z"/><path class="cls-1" d="M235.44,83.57l-.06-.28a.61.61,0,0,0,0-.11l0-.11-.06-.16a.88.88,0,0,0,0-.15c-.09-.25-.18-.51-.28-.75a0,0,0,0,0,0,0h0s0,0,0,0c-.09-.24-.18-.48-.28-.72s-.08-.24-.13-.36l-.21-.52a.14.14,0,0,0,0-.06l-.16-.4,0-.11,0-.06s0,0,0-.06l0-.07-.06-.12,0-.07c-.26-.62-.53-1.24-.83-1.89l-.14-.33a3.73,3.73,0,0,0-.2-.4c-.14-.32-.3-.64-.46-1,0-.09-.08-.18-.13-.27l-.14-.28-.07-.15-.21-.42-.23-.43c-.16-.3-.32-.62-.51-1s-.22-.41-.34-.61a.24.24,0,0,0-.06-.11l-.06-.12-.3-.52c-.06-.11-.12-.22-.19-.33l-.24-.41c-.24-.4-.47-.8-.7-1.16-.1-.16-.19-.32-.3-.48s-.1-.17-.16-.25c-.17-.28-.36-.57-.56-.87h0c-.18-.28-.38-.58-.58-.87,0,0,0-.09-.09-.14l-.1-.14c0-.07-.1-.14-.14-.21l0,0,0,0,0,0c-.17-.26-.35-.51-.54-.77a.61.61,0,0,0-.07-.1l0,0-.23-.33-.22-.3-.07-.09-.25-.34a3.92,3.92,0,0,0-.25-.32q-.21-.3-.45-.6l-.71-.91-.2-.24-.22-.27-.21-.25h0l-.3-.36-.3-.36-.14-.16-.14-.16-.72-.84h0l0,0v0l-.07-.07c-.22-.25-.44-.49-.67-.73l-.2-.22c-.15-.16-.29-.32-.44-.47l0-.06-.43-.45a1.89,1.89,0,0,1-.2-.2l-.17-.18-.06,0-.39-.4c-.08-.07-.15-.15-.24-.24l-.41-.4-.19-.19-.19-.18-.3-.28-.3-.29-.68-.63-.11-.1c-.14-.13-.27-.25-.43-.38s-.62-.56-.94-.83l0,0-.26-.22-.27-.24-.26-.21-.7-.58-.26-.2-.29-.24-.33-.26L213,52l-.08-.05-.18-.14-.52-.41-1.24-.91-.23-.17,0,0,0,0c-.36-.26-.72-.52-1-.74l-.73-.5-.07,0-.07,0-.38-.25c-.17-.11-.33-.23-.5-.33l-.32-.21-.34-.21-.06,0-.15-.1-.14-.08-.06,0-.19-.12-.3-.18-.43-.26-.42-.25-.51-.3-.3-.18-.34-.19c-.45-.26-.9-.51-1.36-.75l-.09,0h0L202,45a2.69,2.69,0,0,0-.38-.19,4.74,4.74,0,0,0-.5-.26c-.55-.28-1.11-.54-1.67-.81h0l0,0-.8-.36-.62-.28-.14-.06h0c-.3-.14-.58-.27-.88-.38l0,0-.3-.13h0l-.51-.21-.49-.19h-.06l-1-.39-.2-.08a2.33,2.33,0,0,0-.32-.1h0l-.27-.07h0s0,0,0,0a3.44,3.44,0,0,0-.45-.05h-.44l-.19,0h-.09l-.08,0a.27.27,0,0,0-.12,0h-.05s0,0,0,0l-.1,0-.08,0h0l-.06,0-.09,0-.07,0h0a.45.45,0,0,0-.11,0h0l0,0,0,0h0l0,0-.13.07s0,0-.06,0,0,0,0,0,0,0-.06,0l-.06,0h0l0,0h0L191,42l-.11.09s0,0,0,0a69.51,69.51,0,0,0-25.29,37.16,3.44,3.44,0,1,0,6.63,1.8,62.56,62.56,0,0,1,18.3-29.77c1-.91,2-1.79,3.09-2.63l.32.14.15.06h0l.1,0,.08,0,.05,0c.24.09.47.19.71.3l.18.08.08,0a4.68,4.68,0,0,1,.45.2l.05,0h0l.15.07.59.27.21.1.55.26h0l.43.2c.62.31,1.21.61,1.79.92l.21.11.34.19.79.44.06,0,.32.18.15.09.2.12.24.14.59.35.05,0,.73.45.29.18.07,0,.25.16L204,54l.13.09c.3.18.6.37.89.58l.07,0,.05,0,.25.17.31.22c.35.24.7.48,1,.73h0l0,0,.1.07.72.53.43.32,0,0,.08.07a1.84,1.84,0,0,1,.22.17l.15.12.1.07.11.08.39.32,0,0,.22.17.15.13.1.08.66.54.25.2.09.08.21.19.09.07c.47.4.93.81,1.39,1.22l.66.62,0,0,.65.62c.22.21.43.42.64.64l.27.27.26.26.11.11.18.19.44.46.07.07.07.07.29.32.13.13,0,0,.24.26.31.34.1.11.05.06.37.42.12.15c.15.16.29.32.43.49l.05,0c.16.17.3.35.45.53l.36.46.1.12.2.24.09.11.38.48c.26.33.51.67.76,1l.06.07.15.21.06.08.39.52h0a.47.47,0,0,0,.06.09h0a.21.21,0,0,0,.06.08l0,0c.07.1.15.2.22.31l.23.34.1.14.11.16.34.5.35.53s0,0,0,0c.16.25.32.49.47.74l.06.07h0c.09.14.18.28.26.42a1.63,1.63,0,0,1,.11.17c.29.47.58,1,.85,1.43l0,.05,0,.06,0,.06a1.59,1.59,0,0,1,.13.22c.07.11.13.22.18.31l0,0,.11.19.28.5s0,0,0,0c.34.62.61,1.13.85,1.61l.09.18.08.17.13.27,0,.06a0,0,0,0,0,0,0l.15.32a2.1,2.1,0,0,1,.13.26l.11.24c.06.12.11.24.17.37l.22.47c.2.43.39.87.58,1.32l.1.24,0,.07,0,.07c0,.06.05.12.07.17l0,.07c0,.1.08.19.11.28L228,83a2.77,2.77,0,0,1,.1.26,1,1,0,0,0,0,.1s0,0,0,0,.05.13.08.2.08.23.13.35l.1.27,0,.09,0,.06a0,0,0,0,0,0,0c.08.22.16.43.23.65s0,.15.08.22h0l0,0a3.42,3.42,0,0,0,3.21,2.24,3.46,3.46,0,0,0,2.27-.85s0,0,0,0l.26-.29a0,0,0,0,1,0,0,3.59,3.59,0,0,0,.37-.5,2.14,2.14,0,0,0,.17-.3,1.78,1.78,0,0,0,.12-.29,2.56,2.56,0,0,0,.17-.6c0-.1,0-.21,0-.31a5.61,5.61,0,0,0,0-.58A1,1,0,0,0,235.44,83.57Z"/><path class="cls-1" d="M232.06,88.1a3.93,3.93,0,0,1-3.67-2.54l0-.06-.06-.15,0-.12c0-.16-.11-.32-.17-.48l-.23-.61-.13-.35-.08-.2-.07-.18s0-.1-.07-.18l-.13-.3-.07-.2L227,82q-.27-.64-.57-1.29c-.08-.18-.14-.32-.21-.46l-.28-.6a1.67,1.67,0,0,0-.11-.23l0-.08h-.18l-.06-.48-.07-.16.38-.37-.45.22-.09-.18c-.23-.45-.49-.94-.81-1.52l0-.05,0-.15-.23-.41s0-.06-.07-.11l-.08-.14a2.54,2.54,0,0,0-.16-.28l-.11-.2-.14-.24c-.26-.45-.54-.92-.83-1.39l.35-.38-.41.29-.06-.09a4.11,4.11,0,0,0-.24-.39l-.07-.1-.33-.53-.22-.34-.12-.18-.15-.23-.26-.37-.08-.12a1.86,1.86,0,0,1-.12-.18l-.33-.47a1,1,0,0,0-.12-.17l-.08-.12a.68.68,0,0,1-.13-.18.56.56,0,0,1-.05-.08l-.37-.49.34-.38-.41.29-.15-.21c-.3-.4-.55-.73-.81-1.06l-1.24-1.54c-.1-.13-.2-.25-.31-.37l-.07-.07c-.13-.16-.27-.32-.41-.47l-.14-.18-.35-.39-.46-.51-.23-.25-.17-.18-.2-.22-.24-.25-.43-.45-.18-.19-.11-.11-.24-.24-.29-.29c-.21-.22-.41-.42-.63-.63l-.42-.4-.28-.26c-.2-.18-.43-.39-.65-.61-.45-.4-.91-.81-1.37-1.2l-.09-.07-.21-.19-.11-.1-.44-.35-.43-.35-.15-.13-.15-.12-.05,0-.14-.11c-.14-.11-.27-.21-.39-.32l-.11-.07.24-.45-.33.38-.2-.16a1,1,0,0,0-.16-.12l-.11-.09-.08-.07-.16-.11-.23-.18-.89-.64-1-.7-.29-.21.19-.48-.28.42-.21-.15-.11-.08c-.28-.2-.57-.38-.86-.55l-.11-.08-.2-.13-.07,0a.57.57,0,0,0-.13-.08L202,53.42l-.41-.24-.23-.13-1-.6-.49-.27-.25-.14-.31-.16c-.57-.31-1.15-.6-1.77-.91l-.4-.19-.3-.16-.26-.11-.12-.06-.66-.31-.08,0h0l-.1-.05c-.18-.08-.32-.15-.46-.2l-.29-.13c-.22-.1-.43-.2-.65-.28h-.05l-.44-.2c-.94.75-1.89,1.57-2.83,2.42a61.75,61.75,0,0,0-18.15,29.53,3.94,3.94,0,0,1-7.6-2.06,70.07,70.07,0,0,1,25.43-37.39l.13-.15v-.2l.5-.1v-.07l.51-.14.11,0,.11,0h0l.07-.1.17,0h0l.07,0,.07,0,.44,0h.42l.47,0h.22l0,.05.12,0h0a2.25,2.25,0,0,1,.4.12l.21.09,1,.36h.14l.08.08.93.38a2.33,2.33,0,0,1,.33.14l.09,0c.25.09.48.2.73.31l.12,0,.14.06c.24.1.45.19.65.29l1.33.62c.4.19.81.38,1.2.58.18.09.36.18.54.29a2,2,0,0,1,.37.18l.69.36h0l.12.08c.51.27,1,.52,1.43.79l.12.07.19.1L205,46c.08,0,.16.09.24.15l.48.28.44.26.43.26.2.12.32.2.13.07.19.13.24.16.48.3.32.21.18.12.39.26.87.59c.32.21.68.47,1,.73l.06.05h0l.17.13.42.31.89.65.53.42.14.11.08.05.76.62a1.29,1.29,0,0,1,.18.14l1,.85.21.18.08.08.22.18,0,0,.06,0c.31.26.62.54.92.81l.47.41-.26.45.34-.37c.26.23.49.45.71.66l.3.29.31.29.18.17.08.08.09.09c.16.15.3.28.44.43l.09.09a.71.71,0,0,0,.13.12l.42.44.22.22.17.17.46.48.08.09.27.29.15.16.13.14.07.07.66.72h0l.05.06.17.12v.08l.65.76.11.13.15.17,2,2.44.47.61.24.31.33.44a2.83,2.83,0,0,0,.2.28l.24.35.07.08,0,.07c.19.26.37.52.54.79l.09.11a.91.91,0,0,0,.11.16l-.3.44.39-.31.09.14c.16.24.32.46.46.68h.23v.36c.18.26.34.51.49.76a1.11,1.11,0,0,1,.12.18c.11.16.18.28.25.39l.09.16.5.81.21.35c.08.13.16.28.24.42l.2.34.33.6a.4.4,0,0,1,.1.18c.12.19.22.39.33.59s.23.43.34.64l.24.46.15.27.35.7c0,.06.05.11.07.16a1.77,1.77,0,0,1,.15.31l.09.18c.13.27.26.53.37.79a2.44,2.44,0,0,1,.17.33l.18.41c.29.64.57,1.26.83,1.89l.12.25a1,1,0,0,1,0,.11l.45,1.11.14.38c.08.19.16.4.24.61l.08.11v.12l.21.56.05.13c0,.06,0,.14.07.22l0,.09a.42.42,0,0,1,0,.1l.1.45a1.35,1.35,0,0,1,.06.41c0,.18,0,.39,0,.61s0,.27,0,.38a3,3,0,0,1-.2.69,1.35,1.35,0,0,1-.14.32,1.82,1.82,0,0,1-.2.36,3.52,3.52,0,0,1-.29.42h0l-.08.09,0,0-.46.47a4,4,0,0,1-2.46.86Zm-2.75-2.92A3,3,0,0,0,233,87a3.14,3.14,0,0,0,.83-.44v-.26h.27V86h.27l.18-.27a1.57,1.57,0,0,0,.14-.25,1,1,0,0,0,.1-.22,2.19,2.19,0,0,0,.15-.53c0-.1,0-.19,0-.26a4.68,4.68,0,0,0,0-.53.74.74,0,0,0,0-.18l-.27-.92c-.07-.18-.13-.36-.2-.53l-.07-.08v-.11l-.26-.65c0-.15-.08-.25-.12-.36l-.6-1.47c-.26-.61-.53-1.23-.83-1.87l-.15-.35a2,2,0,0,0-.16-.33c-.14-.31-.26-.56-.39-.81l-.09-.2-.12-.25c0-.06-.07-.13-.11-.2l-.32-.66a2.57,2.57,0,0,1-.15-.29l-.24-.46-.34-.63c-.11-.21-.22-.4-.33-.59l-.42-.76c-.07-.11-.12-.21-.19-.31s-.16-.29-.24-.42l-.21-.36-.49-.79-.1-.17c-.06-.1-.12-.2-.19-.3l-.05-.09-.09-.14c-.15-.24-.29-.46-.44-.68h0l-.14-.23-.58-.86-.05-.09a.76.76,0,0,1-.1-.14c-.08-.11-.14-.19-.18-.26l-.09-.13a.33.33,0,0,0,.08.11c-.23-.33-.4-.57-.59-.82l-.15-.23a2.46,2.46,0,0,1-.21-.28c-.05-.06-.12-.17-.2-.28s0,0-.08-.1l-.23-.32A3.45,3.45,0,0,0,225,65c-.17-.24-.31-.44-.46-.63L222.63,62l-.11-.13-.15-.16-.88-1-.64-.7-.11-.12-.25-.28-.28-.29-.08-.09-.4-.42a2.27,2.27,0,0,1-.22-.22l-.08-.08.29-.43-.38.33c-.18-.17-.3-.3-.43-.43l-.16-.15-.08-.09-.39-.38-.16-.15a1.72,1.72,0,0,0-.2-.2l-.32-.3-.3-.29-.68-.63-.09-.08c-.16-.15-.28-.26-.43-.38l-.9-.8-.13-.1a1.68,1.68,0,0,0-.21-.18l-.12-.11-.16-.14-1-.86-.14-.1-1-.79c-.19-.16-.36-.3-.53-.42s-.58-.43-.87-.65l-.44-.32-.12-.08-.11-.09c-.35-.25-.7-.5-1-.71l-.88-.61-.36-.22-.21-.15-.28-.18-.46-.3-.22-.13-.69-.44a.83.83,0,0,0-.16-.09l-.45-.28-.42-.24-.52-.31-.19-.12-.11-.06-.21-.11-.11-.07-1.35-.75h0l-.11-.06-.73-.38a3.69,3.69,0,0,0-.39-.2,5.79,5.79,0,0,0-.54-.28l-1.19-.58-1.33-.61-.59-.27-.22-.09c-.28-.13-.55-.25-.84-.36l-.14-.07-.12,0-.12-.05-1.14-.46-.93-.35-.21-.08-.23-.08-.12,0-.31-.06-.27,0H193l-.12,0h-.19l0,0-.26,0-.24.24-.06-.06v0l-.5.09v.19h-.23l-.11.11-.07-.07,0,0,0,0h0l-.11.08-.21.07a.5.5,0,0,0,.29-.1l0,0a69,69,0,0,0-25.11,36.89,2.93,2.93,0,1,0,5.66,1.54,62.83,62.83,0,0,1,18.45-30c1-.94,2.08-1.83,3.12-2.65l.23-.19.6.27.08,0,.25.11.08,0c.2.08.44.18.69.3l.28.13a2.84,2.84,0,0,1,.38.16l.11,0,.11.05-.12.49.22-.45.54.25.14.06.65.31.19.1.24.11c.62.32,1.22.62,1.8.93l.22.12.36.2.48.26.83.47.24.14.2.12.44.26,1.23.76a1.12,1.12,0,0,1,.24.15l.11.07.1.06.12.08c.33.2.64.4.94.62l.13.08a.91.91,0,0,0,.16.11l.39.28.91.63h.05l.2.19.78.56.2.16.24.17.07.06.27.21-.17.5.27-.42L209,57l.37.3.14.11.14.11.14.12a.94.94,0,0,1,.14.12,4.23,4.23,0,0,1,.41.33l.59.49.18.16.09.07c.47.4.93.81,1.38,1.21l.68.64.27.25.44.42c.22.2.43.42.65.64l.26.27a2.46,2.46,0,0,1,.28.28l.09.09.21.22c.12.12.28.28.42.44l.24.24c.07.08.14.15.21.24l.18.19.22.24.48.56a3.4,3.4,0,0,1,.36.38l.09.12c.17.18.32.34.46.52s.27.3.39.44l.48.61.11.13.65.82q.4.51.78,1l.91,1.23.16.23.31.46a1.36,1.36,0,0,0,.1.14l.1.14.27.4.14.21.19.29.16.25.32.51.16.23.19.32a1.06,1.06,0,0,1,.12.2c.28.43.57.92.84,1.41l.08.13a1.47,1.47,0,0,1,.16.28,2,2,0,0,1,.16.26l0,.08,0,.1c.15.25.24.42.34.6l0,.07c.34.61.6,1.12.84,1.6l.5,1s.08.16.13.27l.1.22.12.25.06.13c.07.13.14.29.22.48.2.43.39.87.59,1.33l.11.26.11.26-.42.29.46-.19a2.47,2.47,0,0,1,.12.31c0,.07.07.16.1.25a1.88,1.88,0,0,1,.12.3h0l0,.07a.77.77,0,0,1,.07.16l0,.1c0,.11.07.21.12.32l.23.62c.06.17.13.34.18.52,0,0,0,0,0,.1h0l0,0-.43.25Zm-1.12-1.84-.08,0ZM206.34,56.27h0Zm-10.79-6.22h0Z"/><path class="cls-1" d="M220.81,70h0Zm17.67,26c-.2-1.41-.46-2.86-.76-4.3-.07-.32-.14-.65-.22-1s-.09-.43-.14-.64l-.12-.5c-.06-.25-.12-.49-.17-.71l-.26-1c-.49-1.79-1-3.38-1.49-4.82l-.06-.16a.88.88,0,0,0,0-.15c-.09-.25-.18-.51-.28-.75a0,0,0,0,0,0,0h0s0,0,0,0c0-.16-.11-.32-.17-.47l-.08-.21c0-.14-.1-.27-.16-.4a.19.19,0,0,0,0-.07c-.06-.15-.12-.3-.19-.45a.14.14,0,0,0,0-.06l-.16-.4,0-.11,0-.06s0,0,0-.06l0-.07-.06-.12,0-.07c-.24-.59-.49-1.17-.74-1.72l-.09-.17-.14-.33a3.73,3.73,0,0,0-.2-.4c-.14-.32-.3-.64-.46-1,0-.09-.08-.18-.13-.27l-.14-.28-.07-.15-.21-.42-.19-.34a.36.36,0,0,0,0-.09c-.16-.3-.32-.62-.51-1s-.22-.41-.34-.61a.24.24,0,0,0-.06-.11l-.06-.12-.3-.52c-.06-.11-.12-.22-.19-.33l-.24-.41c-.24-.4-.47-.8-.7-1.16-.1-.16-.19-.32-.3-.48s-.1-.17-.16-.25c-.17-.28-.36-.57-.56-.87h0c-.18-.28-.38-.58-.58-.87,0,0,0-.09-.09-.14l-.09-.14-.15-.21,0,0,0,0,0,0c-.08-.13-.17-.25-.25-.37l-.29-.4a.61.61,0,0,0-.07-.1l0,0-.23-.33-.22-.3-.07-.09-.25-.34a3.92,3.92,0,0,0-.25-.32q-.21-.3-.45-.6l-.71-.91-.2-.24-.22-.27-.21-.25h0l-.3-.36-.31-.36-.13-.16-.14-.16c-.09-.1-.19-.2-.28-.31s-.3-.36-.46-.54l0,0v0l-.07-.07c-.22-.25-.44-.49-.67-.73l-.2-.22c-.15-.16-.29-.32-.44-.47l0-.06-.43-.45a1.89,1.89,0,0,1-.2-.2l-.17-.18-.06,0-.39-.4c-.08-.07-.15-.15-.24-.24l-.41-.4-.19-.19-.19-.18-.3-.28-.3-.29-.68-.63-.11-.1c-.14-.13-.27-.25-.43-.38s-.62-.56-.94-.83l0,0-.26-.22-.27-.24-.26-.21-.7-.58-.26-.2-.29-.24-.33-.26-.18-.14-.18-.14-.52-.41-1.24-.91-.23-.17,0,0,0,0c-.36-.26-.72-.52-1-.74l-.73-.5-.07,0-.07,0-.38-.25c-.17-.11-.33-.23-.5-.33l-.32-.21-.34-.21-.06,0-.15-.1-.14-.08-.06,0-.19-.12-.3-.18-.3-.19-.13-.07-.42-.25-.51-.3-.3-.18-.34-.19c-.45-.26-.9-.51-1.36-.75l-.09,0h0L202,45a2.69,2.69,0,0,0-.38-.19,4.74,4.74,0,0,0-.5-.26c-.55-.28-1.11-.54-1.67-.81h0l0,0-.8-.36-.62-.28-.14-.06h0c-.3-.14-.58-.27-.88-.38l0,0-.3-.13h0l-.51-.21-.49-.19h-.06l-1-.39-.2-.08a2.33,2.33,0,0,0-.32-.1h0l-.27-.07h0s0,0,0,0a3.44,3.44,0,0,0-.45-.05h-.26a.25.25,0,0,0-.12,0h-.06l-.19,0h-.09l-.08,0a.27.27,0,0,0-.12,0h-.05s0,0,0,0l-.1,0-.08,0h0l-.06,0-.09,0-.07,0h0l-.12,0,0,0,0,0h0l0,0-.13.07s0,0-.06,0,0,0,0,0,0,0-.06,0l-.06,0h0l0,0L191,42l-.11.09s0,0,0,0a2.9,2.9,0,0,0-.36.34.32.32,0,0,0-.08.09.44.44,0,0,0-.09.11,1.37,1.37,0,0,0-.15.21s0,0,0,0l-.09.14,0,0,0,.06a.31.31,0,0,0-.05.1,1.33,1.33,0,0,0-.11.24.36.36,0,0,0,0,.09.06.06,0,0,1,0,0,2.44,2.44,0,0,0-.16.57.69.69,0,0,0,0,.2,3.11,3.11,0,0,0,0,.43,2.73,2.73,0,0,0,0,.41s0,.06,0,.09,0,0,0,.06a.07.07,0,0,0,0,.05,1.31,1.31,0,0,0,.06.27.5.5,0,0,0,0,.13.13.13,0,0,0,0,.08,3.12,3.12,0,0,0,.4.82,0,0,0,0,1,0,0,3.46,3.46,0,0,0,1.12,1l0,0a3.82,3.82,0,0,0,.46.21l.22.09c.28.11.57.21.85.33l.07,0h0l.09,0,.32.13.2.08.32.14.15.06h0l.1,0,.08,0,.05,0c.24.09.47.19.71.3l.18.08.08,0a4.68,4.68,0,0,1,.45.2l.05,0h0l.15.07.59.27.21.1.55.25h0l.43.21c.62.31,1.21.61,1.79.92l.21.11.34.19.79.44.06,0,.32.18.15.09.2.12.24.14.59.35.05,0,.46.27,0,0,0,0,.19.13.29.18.07,0,.25.16L204,54l.13.09c.3.18.6.37.89.58l.07,0,.05,0,.25.17.31.22c.35.24.7.48,1,.73h0l0,0,.1.07.72.53.43.32,0,0,.08.07a1.84,1.84,0,0,1,.22.17l.15.12.1.07.11.08.39.32,0,0,.22.17.15.13.1.08.66.54.25.2.09.08.21.19.09.07c.47.4.93.81,1.39,1.22l.66.62,0,0,.65.62c.22.21.43.42.64.64l.27.27.11.1.15.16.11.11.18.19.44.46.07.07.07.07.29.32.13.13,0,0,.08.1.16.16.31.34.1.11.05.06.37.42.12.15c.15.16.29.32.43.49l.05,0c.16.17.3.35.45.53l.36.46.1.12.2.24.09.11.38.48c.26.33.51.67.76,1l.06.07a.39.39,0,0,0,.08.1l.07.11.06.08.39.52h0a.47.47,0,0,0,.06.09h0a.21.21,0,0,0,.06.08l0,0c.07.1.15.2.22.31l.23.34.1.14.11.16.34.5.35.53s0,0,0,0c.18.27.36.53.53.81h0c.09.14.18.28.26.42a1.63,1.63,0,0,1,.11.17c.29.47.58,1,.85,1.43l0,.05,0,.06,0,.06a1.59,1.59,0,0,1,.13.22l.2.36.11.19.28.5s0,0,0,0c.34.62.61,1.13.85,1.61l.09.18.08.17.13.27,0,.06a0,0,0,0,0,0,0l.15.32a2.1,2.1,0,0,1,.13.26l.11.24c.06.12.11.24.17.37l.22.47c.2.43.39.87.58,1.32l.1.24,0,.07,0,.07c0,.06.05.12.07.17l0,.07c0,.1.08.19.11.28L228,83a2.77,2.77,0,0,1,.1.26,1,1,0,0,0,0,.1s0,0,0,0,.05.13.08.2.08.23.13.35l.1.27,0,.09,0,.06a0,0,0,0,0,0,0c.08.22.16.43.23.65s0,.15.08.22h0l0,0c.46,1.31.9,2.72,1.31,4.27l.26,1,.09.36a2.25,2.25,0,0,0,.05.22l.11.49c0,.16.08.32.11.48l0,.11c.07.29.13.59.19.87.27,1.28.5,2.57.68,3.85a59.44,59.44,0,0,1,.25,15.37c-.14,1.28-.3,2.47-.5,3.64a3.43,3.43,0,0,0,2.81,4,3.9,3.9,0,0,0,.58.05,3.42,3.42,0,0,0,3.38-2.86c.23-1.31.41-2.64.56-4A66.56,66.56,0,0,0,238.48,96Z"/><path class="cls-1" d="M234.82,120.51a3.77,3.77,0,0,1-.66-.06,3.93,3.93,0,0,1-3.23-4.53c.19-1.11.35-2.29.5-3.61a58.93,58.93,0,0,0-.25-15.25c-.17-1.23-.4-2.52-.67-3.82l0-.22c0-.21-.09-.42-.14-.63l0-.14c0-.15-.07-.29-.11-.44l-.11-.51A2.23,2.23,0,0,1,230,91l-.34-1.28c-.38-1.45-.8-2.82-1.28-4.2l0-.06-.06-.15,0-.12c0-.16-.11-.32-.17-.48l-.23-.61-.13-.35-.08-.2-.07-.18s0-.1-.07-.18l-.13-.3-.07-.2L227,82q-.27-.64-.57-1.29c-.08-.18-.14-.32-.21-.46l-.28-.6a1.67,1.67,0,0,0-.11-.23l0-.08h-.18l-.06-.48-.07-.16.38-.37-.45.22-.09-.18c-.23-.45-.49-.94-.81-1.52l0-.05,0-.15-.23-.41s0-.06-.07-.11l-.25-.44-.1-.18-.14-.24c-.26-.45-.54-.92-.83-1.39l.35-.38-.41.29-.06-.09a4.11,4.11,0,0,0-.24-.39l-.08-.14-.33-.51-.21-.32-.12-.18-.15-.23-.26-.37-.08-.12a1.86,1.86,0,0,1-.12-.18l-.33-.47a1,1,0,0,0-.12-.17l-.08-.12a.68.68,0,0,1-.13-.18v0l-.84-.82h.23l0,0h0c-.29-.39-.54-.72-.8-1l-1.24-1.54c-.1-.13-.2-.25-.31-.37l-.07-.07c-.13-.16-.27-.32-.41-.47l-.14-.18-.35-.39-.86-.94-.2-.22-.24-.25-.43-.45-.18-.19-.64-.64c-.21-.22-.41-.42-.63-.63l-.42-.4-.28-.26c-.2-.18-.43-.39-.65-.61-.45-.4-.91-.81-1.37-1.2l-.09-.07-.21-.19-.11-.1-.44-.35-.43-.35-.15-.13-.15-.12-.05,0-.14-.11c-.14-.11-.27-.21-.39-.32l-.11-.07.24-.45-.33.38-.2-.16a1,1,0,0,0-.16-.12l-.11-.09-.08-.07-.16-.11-.23-.18-.89-.64-1-.7-.29-.21.19-.48-.28.42-.21-.15-.11-.08c-.28-.2-.57-.38-.86-.55l-.11-.08-.2-.13-.07,0a.57.57,0,0,0-.13-.08l-.85-.54-.23-.13-.23-.14-.41-.24-.23-.13-1-.6-.49-.27-.25-.14-.31-.16c-.57-.31-1.15-.6-1.77-.91l-.42-.21-.28-.14a1.59,1.59,0,0,1-.27-.12l-.11,0-.66-.31-.08,0h0l-.1-.05c-.18-.08-.32-.15-.46-.2l-.29-.13c-.22-.1-.43-.2-.65-.28h-.05l-.72-.32-.19-.08L193,49l-.13-.06h-.08l-.1,0-.57-.22-.54-.22a3.82,3.82,0,0,1-.51-.23l-.09-.06A3.76,3.76,0,0,1,189.78,47l-.09-.15a3.25,3.25,0,0,1-.37-.75l0-.15a.7.7,0,0,1-.05-.18.4.4,0,0,1,0-.13l0,0v-.23s0,0,0-.08a2.81,2.81,0,0,1,0-.5,4.19,4.19,0,0,1,0-.5,1,1,0,0,1,0-.27,2.13,2.13,0,0,1,.15-.56l0-.07.06-.14a1.63,1.63,0,0,1,.11-.23.36.36,0,0,1,0-.09v-.14l.11-.08v-.11l.16-.1a1.13,1.13,0,0,1,.1-.13.85.85,0,0,1,.14-.17s0-.06.14-.14a1.79,1.79,0,0,1,.31-.3l.13-.15v-.2l.54-.1,0,0,.09-.09h.1a.35.35,0,0,1,.13-.05l.1,0,.11,0,.11,0h0l.07-.1.17,0h0l.07,0,.07,0,.51,0h.35l.47,0h.22l0,.05.12,0h0a2.25,2.25,0,0,1,.4.12l.21.09,1,.36h.14l.08.08.93.38a2.33,2.33,0,0,1,.33.14l.09,0c.25.09.48.2.73.31l.12,0,.14.06c.24.1.45.19.65.29l1.33.62c.4.19.81.38,1.2.58.18.09.36.18.54.29a2,2,0,0,1,.37.18l.69.36h0l.12.08c.51.27,1,.52,1.43.79l.12.07.19.1L205,46c.08,0,.16.09.24.15l.48.28.44.26.09.05.35.22a1.79,1.79,0,0,1,.19.11l.32.2.13.07.19.13.24.16.48.3.32.21.18.12.39.26.87.59c.32.21.68.47,1,.73l.06.05h0l.17.13.42.31.89.65.53.42.15.12.83.66a1.29,1.29,0,0,1,.18.14l1,.85.21.18.08.08.22.18,0,0,.06,0c.31.26.62.54.92.81l.47.41-.26.45.34-.37c.26.23.49.45.71.66l.3.29.31.29.18.17.08.08.09.09c.16.15.3.28.44.43l.09.09a.71.71,0,0,0,.13.12l.42.44.22.22.17.17.46.48.08.09.27.29.15.16.13.14.07.07c.23.25.46.49.68.75l.22.15v.09c.15.16.27.3.39.45l.16.18.1.11.12.14,2.12,2.61.47.61.24.31.33.44a2.83,2.83,0,0,0,.2.28l.24.35.07.08,0,.07.22.31.16.23.14.21.23.32a1.25,1.25,0,0,1,.12.17l.05.09c.16.24.32.46.46.68h.23v.36c.18.26.34.51.49.76a1.11,1.11,0,0,1,.12.18c.11.16.18.28.25.39l.09.16.5.81.21.35c.08.13.16.28.24.42l.2.34.33.6a.4.4,0,0,1,.1.18c.12.19.22.39.33.59s.23.43.34.64l.24.48s.09.15.16.26l.34.69c0,.06.05.11.07.16a1.77,1.77,0,0,1,.15.31l.09.18c.13.27.26.53.37.79a2.44,2.44,0,0,1,.17.33l.18.41a.49.49,0,0,1,.07.14c.26.57.52,1.16.76,1.75l.12.25a1,1,0,0,1,0,.11l.26.63c.06.13.11.27.17.41l0,.11.15.38.07.2c.05.12.1.25.14.38l.08.1v.12l.21.56.05.13c0,.06,0,.14.07.22l0,.09c.52,1.44,1,3,1.51,4.86l.55,2.22c0,.22.11.45.15.67s.12.53.18.8l0,.15c.32,1.52.58,3,.77,4.34a66.65,66.65,0,0,1,.28,17.23c-.16,1.47-.34,2.81-.56,4.07A3.92,3.92,0,0,1,234.82,120.51Zm-5.51-35.33c.51,1.43.94,2.84,1.33,4.32l.35,1.35,0,.17.12.55c0,.16.09.33.12.5s.12.53.17.74l.05.23c.27,1.32.5,2.62.68,3.88a60,60,0,0,1,.25,15.5c-.14,1.34-.31,2.54-.5,3.66a2.94,2.94,0,0,0,2.4,3.39,3,3,0,0,0,3.38-2.4c.22-1.24.4-2.55.56-4a66.06,66.06,0,0,0-.28-17h0c-.19-1.34-.44-2.78-.75-4.27l0-.14q-.08-.4-.18-.81c0-.23-.09-.44-.14-.64l-.55-2.2c-.49-1.8-1-3.37-1.47-4.78l-.16-.45c-.07-.18-.13-.36-.2-.53l-.07-.08v-.12l-.15-.39-.08-.22a3.17,3.17,0,0,0-.15-.37l0-.14c-.06-.14-.11-.26-.17-.38l-.4-1c-.23-.58-.48-1.16-.73-1.7a1.33,1.33,0,0,0-.06-.12l-.18-.4a2,2,0,0,0-.16-.33c-.14-.31-.26-.56-.39-.81l-.09-.2-.12-.25c0-.06-.07-.13-.11-.2l-.32-.66c-.05-.1-.11-.2-.18-.32l-.21-.43-.34-.63c-.11-.21-.22-.4-.33-.59l-.42-.76c-.07-.11-.12-.21-.19-.31s-.16-.29-.24-.42l-.21-.36-.49-.79-.1-.17c-.06-.1-.12-.2-.19-.3l-.05-.09-.09-.14c-.15-.24-.29-.46-.44-.68h0l-.14-.23-.58-.86-.05-.09-.11-.17-.25-.34-.14-.21-.15-.22-.22-.3-.16-.23a2.46,2.46,0,0,1-.21-.28c-.05-.06-.12-.17-.2-.28s0,0-.08-.1l-.23-.32A3.45,3.45,0,0,0,225,65c-.17-.24-.31-.44-.46-.63l-2.08-2.55-.12-.13-.09-.11-.21-.23c-.15-.19-.29-.35-.45-.53l0,0-.06-.07-.67-.73-.11-.12-.25-.28-.28-.29-.08-.09-.4-.42a2.27,2.27,0,0,1-.22-.22l-.08-.08.29-.43-.38.33c-.18-.17-.3-.3-.43-.43l-.16-.15-.08-.09-.39-.38-.16-.15a1.72,1.72,0,0,0-.2-.2l-.32-.3-.3-.29-.68-.63-.09-.08c-.16-.15-.28-.26-.43-.38l-.9-.8-.13-.1a1.68,1.68,0,0,0-.21-.18l-.12-.11-.16-.14-1-.86-.14-.1-1-.79c-.19-.16-.36-.3-.53-.42s-.58-.43-.87-.65l-.44-.32-.12-.08-.11-.09c-.35-.25-.7-.5-1-.71l-.88-.61-.36-.22-.21-.15-.28-.18-.46-.3-.22-.13-.69-.44a.83.83,0,0,0-.16-.09l-.33-.21-.11-.06-.43-.25-.52-.31-.19-.12-.11-.06-.21-.11-.11-.07-1.35-.75h0l-.11-.06-.73-.38a3.69,3.69,0,0,0-.39-.2,5.79,5.79,0,0,0-.54-.28l-1.19-.58-1.33-.61-.59-.27-.22-.09c-.28-.13-.55-.25-.84-.36l-.14-.07-.12,0-.12-.05-1.14-.46-.93-.35-.21-.08-.23-.08-.12,0-.31-.06-.27,0H193l-.12,0h-.19l0,0-.26,0-.24.24-.13-.12-.43.19v.19h-.23l-.11.11-.06-.06-.1.07a2.29,2.29,0,0,0-.27.27l-.16.19-.05.06v0l-.14.19,0,0-.06.1c-.05.11-.08.16-.1.22l0,.08s0,.08,0,.11a1.62,1.62,0,0,0-.12.43l0,.19a2.17,2.17,0,0,0,0,.36,1.77,1.77,0,0,0,0,.33l0,.23a.94.94,0,0,0,0,.16l.07.22a3,3,0,0,0,.34.69l.07.11a3,3,0,0,0,.9.79l.06,0c.12,0,.23.11.35.15l.53.21.56.22.18.06.18.08.14,0,.18.08.37.16.08,0,.25.11.08,0c.2.08.44.18.69.3l.28.13a2.84,2.84,0,0,1,.38.16l.11,0,.11.05-.12.49.22-.45.54.25.23.11c.19.09.36.17.54.24l.3.16.14.07c.63.32,1.23.62,1.81.93l.22.12.36.2.48.26.83.47.24.14.2.12.44.26.15.09.31.18.77.49a1.12,1.12,0,0,1,.24.15l.11.07.1.06.12.08c.33.2.64.4.94.62l.13.08a.91.91,0,0,0,.16.11l.39.28.91.63h.05l.2.19.78.56.2.16.24.17.07.06.27.21-.17.5.27-.42L209,57l.37.3.14.11.14.11.14.12a.94.94,0,0,1,.14.12,4.23,4.23,0,0,1,.41.33l.59.49.18.16.09.07c.47.4.93.81,1.38,1.21l.68.64.27.25.44.42c.22.2.43.42.65.64l.26.27h0l.11.09.26.28.21.22c.12.12.28.28.42.44l.24.24c.07.08.14.15.21.24l.19.2a.21.21,0,0,1,0,.06l.65.73a3.4,3.4,0,0,1,.36.38l.09.12c.17.18.32.34.46.52s.27.3.39.44l.48.61.11.13.65.82q.4.51.78,1l.18.25-.31.41.39-.3.25.32h.26l0,.41.11.14.16.23.31.46a1.36,1.36,0,0,0,.1.14l.1.14.27.4.14.21.19.29.14.21c.14.22.29.43.42.66l.08.12.19.32a1.06,1.06,0,0,1,.12.2c.28.43.57.92.84,1.41l.08.13a1.47,1.47,0,0,1,.16.28l.19.33a.91.91,0,0,1,.06.11c.15.25.24.42.34.6l0,.07c.34.61.6,1.12.84,1.6l.5,1s.08.16.13.27l.1.22.12.25.06.13c.07.13.14.29.22.48.2.43.39.87.59,1.33l.11.26.11.26-.42.29.46-.19a2.47,2.47,0,0,1,.12.31c0,.07.07.16.1.25a1.88,1.88,0,0,1,.12.3h0l0,.07a.77.77,0,0,1,.07.16l0,.1c0,.11.07.21.12.32l.23.62c.06.17.13.34.18.52,0,0,0,0,0,.1h0l0,0-.43.25Zm-1.12-1.84-.08,0Zm-7.83-14-.16.11h.06Zm6.28-2.17Zm-4.33-7.1,0,0Zm-16-3.85h0Zm-10.79-6.22h0Zm-2.44-2.11h0Zm-1.88-5.51,0,0s0,0,0,0Z"/><path class="cls-1" d="M212,291.3H94a3.43,3.43,0,0,1-3.43-3.43V268.8a3.44,3.44,0,1,1,6.87,0v15.63h111.1V268.8a3.44,3.44,0,1,1,6.87,0v19.07A3.43,3.43,0,0,1,212,291.3Z"/><path class="cls-1" d="M212,291.8H94a3.93,3.93,0,0,1-3.93-3.93V268.8a3.94,3.94,0,1,1,7.87,0v15.13H208V268.8a3.94,3.94,0,1,1,7.87,0v19.07A3.94,3.94,0,0,1,212,291.8ZM94,265.86a2.94,2.94,0,0,0-2.93,2.94v19.07A2.93,2.93,0,0,0,94,290.8H212a2.94,2.94,0,0,0,2.94-2.93V268.8a2.94,2.94,0,1,0-5.87,0v16.13H96.94V268.8A2.94,2.94,0,0,0,94,265.86Z"/><path class="cls-1" d="M33.94,155.1a3.44,3.44,0,0,1-3.4-3.06,50.77,50.77,0,0,1-.29-5.79,62.8,62.8,0,0,1,13-38.28A69.58,69.58,0,0,1,77,84.05a69.54,69.54,0,0,1,10-2.63,73.44,73.44,0,0,1,12.36-1.24h1.31A75.07,75.07,0,0,1,122,83.24a3.44,3.44,0,0,1-2,6.59,68,68,0,0,0-19.34-2.78H99.43a66.27,66.27,0,0,0-11.16,1.12,62,62,0,0,0-9.11,2.39,62.77,62.77,0,0,0-30.41,21.57,56,56,0,0,0-11.63,34.12,47.32,47.32,0,0,0,.24,5,3.43,3.43,0,0,1-3,3.79Z"/><path class="cls-1" d="M33.94,155.6a3.93,3.93,0,0,1-3.9-3.51,51.69,51.69,0,0,1-.29-5.84,63.27,63.27,0,0,1,13.13-38.58,70.11,70.11,0,0,1,33.94-24.1,70.58,70.58,0,0,1,10.11-2.64,73.15,73.15,0,0,1,12.44-1.25h1.31a75.75,75.75,0,0,1,21.43,3.08,3.94,3.94,0,0,1,2.66,4.89,4,4,0,0,1-4.89,2.66,67.68,67.68,0,0,0-19.2-2.76H99.43a65.1,65.1,0,0,0-11.07,1.11,65.06,65.06,0,0,0-39.21,23.77,55.49,55.49,0,0,0-11.53,33.82,46.21,46.21,0,0,0,.24,5,3.93,3.93,0,0,1-3.48,4.33A3.25,3.25,0,0,1,33.94,155.6Zm66.74-74.92H99.37a72.36,72.36,0,0,0-12.26,1.23,68.35,68.35,0,0,0-10,2.61,69.19,69.19,0,0,0-33.46,23.75,62.29,62.29,0,0,0-12.93,38A52.19,52.19,0,0,0,31,152a2.94,2.94,0,0,0,5.84-.64,45.46,45.46,0,0,1-.25-5.09,56.52,56.52,0,0,1,11.73-34.43A63.32,63.32,0,0,1,79,90.08a64.45,64.45,0,0,1,9.17-2.4,65.88,65.88,0,0,1,11.24-1.13h1.26a68.58,68.58,0,0,1,19.48,2.8,2.94,2.94,0,0,0,3.65-2,2.94,2.94,0,0,0-2-3.64A74.5,74.5,0,0,0,100.68,80.68Z"/><path class="cls-1" d="M141.46,76.54a3.42,3.42,0,0,1-3.33-2.62L122.3,8.83A3.44,3.44,0,0,1,129,7.21L144.8,72.29a3.43,3.43,0,0,1-2.52,4.15A3.34,3.34,0,0,1,141.46,76.54Z"/><path class="cls-1" d="M141.46,77a3.93,3.93,0,0,1-3.82-3L121.82,9a3.93,3.93,0,1,1,7.64-1.86l15.83,65.08a4,4,0,0,1-2.9,4.76A4.08,4.08,0,0,1,141.46,77Zm-15.81-72a2.74,2.74,0,0,0-.7.09,2.93,2.93,0,0,0-2.16,3.54L138.61,73.8A2.93,2.93,0,0,0,141.46,76a3.27,3.27,0,0,0,.7-.08,3,3,0,0,0,2.16-3.55L128.49,7.32a3,3,0,0,0-2.84-2.24Z"/><path class="cls-1" d="M182.64,155.15H137.16a3.44,3.44,0,0,1-3.24-2.31l-14.66-42.13c-3-8.55-3.55-17.68-1.58-25.06,1.89-7.1,5.87-11.72,11.22-13l11.62-2.83h0l.11,0L152.14,67c6.82-1.67,14.15,2.55,19.6,11.28a.22.22,0,0,1,0,.08,46.57,46.57,0,0,1,6.35,17.73c0,.09,0,.17,0,.25v.06L186,151.23a3.43,3.43,0,0,1-3.4,3.92Zm-43-6.87h39.08l-7.29-50.92v-.1a.43.43,0,0,1,0-.11A40.53,40.53,0,0,0,166,82l-.06-.09c-3.69-5.91-8.46-9.14-12.15-8.24l-11.3,2.74-.27.07-.09,0L130.52,79.3c-2.75.67-5,3.63-6.21,8.12-1.59,6-1.06,13.86,1.43,21Z"/><path class="cls-1" d="M182.64,155.65H137.16a3.93,3.93,0,0,1-3.71-2.64l-14.67-42.14c-3-8.63-3.58-17.87-1.59-25.35,2-7.28,6.06-12,11.59-13.38L152,66.49c7-1.72,14.57,2.58,20.15,11.5l.05.09A47.44,47.44,0,0,1,178.64,96c0,.07,0,.17,0,.26l7.86,54.9a3.93,3.93,0,0,1-3.9,4.49ZM155.1,67.12a11.92,11.92,0,0,0-2.84.34L129,73.11c-5.16,1.26-9,5.76-10.86,12.67-1.94,7.29-1.37,16.31,1.57,24.76l14.66,42.14a2.94,2.94,0,0,0,2.77,2h45.48a2.94,2.94,0,0,0,2.91-3.35L177.7,96.45c0-.14,0-.21,0-.29a46.52,46.52,0,0,0-6.28-17.56C166.75,71.21,160.85,67.12,155.1,67.12Zm24.16,81.66h-40l-14-40.17c-2.52-7.26-3.06-15.23-1.44-21.32,1.25-4.67,3.64-7.76,6.57-8.48L142.08,76a.86.86,0,0,0,.23-.06l11.34-2.75c3.89-1,8.88,2.37,12.69,8.46l.06.1a41.06,41.06,0,0,1,5.45,15.36l0,.11Zm-39.3-1h38.15l-7.25-50.56a40,40,0,0,0-5.32-15l0-.09c-3.58-5.71-8.13-8.87-11.61-8l-11.3,2.75-.29.07-11.65,2.84c-2.56.62-4.69,3.45-5.84,7.76-1.58,5.9-1,13.66,1.42,20.74Z"/><path class="cls-1" d="M133.27,78.53A3.44,3.44,0,0,1,129.94,76c-4.84-19-16-35.37-32.32-47.49a3.43,3.43,0,0,1,4.1-5.51C119.3,36,131.36,53.76,136.6,74.25a3.43,3.43,0,0,1-2.48,4.17A3.1,3.1,0,0,1,133.27,78.53Z"/><path class="cls-1" d="M133.27,79a3.94,3.94,0,0,1-3.81-3c-4.82-18.83-15.93-35.16-32.14-47.21a3.94,3.94,0,0,1,4.7-6.32c17.67,13.15,29.79,31,35.06,51.58a3.93,3.93,0,0,1-2.83,4.79A4,4,0,0,1,133.27,79ZM99.68,22.77a2.94,2.94,0,0,0-1.76,5.29c16.39,12.19,27.63,28.7,32.51,47.76A2.93,2.93,0,0,0,133.27,78a3,3,0,0,0,.73-.09,2.92,2.92,0,0,0,2.11-3.57c-5.21-20.38-17.2-38-34.69-51A2.91,2.91,0,0,0,99.68,22.77Z"/><path class="cls-1" d="M150.06,74.45a3.44,3.44,0,0,1-3.35-2.66c-4.75-20.61-2.18-41.91,7.43-61.59a3.44,3.44,0,0,1,6.18,3c-8.92,18.26-11.31,38-6.91,57a3.45,3.45,0,0,1-3.35,4.21Z"/><path class="cls-1" d="M150.06,75a3.91,3.91,0,0,1-3.83-3C141.45,51.18,144,29.77,153.7,10a3.93,3.93,0,0,1,7.07,3.45c-8.87,18.15-11.24,37.76-6.88,56.7a3.94,3.94,0,0,1-2.95,4.72A3.77,3.77,0,0,1,150.06,75Zm7.18-66.18a3,3,0,0,0-2.65,1.65C145,30,142.47,51.18,147.2,71.67a2.94,2.94,0,0,0,5.72-1.32c-4.42-19.16-2-39,7-57.35a2.94,2.94,0,0,0-2.63-4.23Z"/><path class="cls-1" d="M160.67,138.58a3.43,3.43,0,0,1-.81-6.77l16.77-4.08a3.43,3.43,0,0,1,1.63,6.67l-16.78,4.08A3.21,3.21,0,0,1,160.67,138.58Z"/><path class="cls-1" d="M160.67,139.08a3.94,3.94,0,0,1-.93-7.76l16.78-4.08a3.94,3.94,0,0,1,1.86,7.65L161.6,139A4.15,4.15,0,0,1,160.67,139.08Zm16.78-11a3.42,3.42,0,0,0-.7.08L160,132.29a2.94,2.94,0,0,0,.69,5.79,2.67,2.67,0,0,0,.69-.09l16.78-4.07a2.93,2.93,0,0,0,.83-5.36A2.87,2.87,0,0,0,177.45,128.13Z"/><path class="cls-1" d="M127.14,120.53a3.43,3.43,0,0,1-.81-6.77L141.77,110a3.43,3.43,0,1,1,1.62,6.67L128,120.43A3.34,3.34,0,0,1,127.14,120.53Z"/><path class="cls-1" d="M127.14,121a3.93,3.93,0,0,1-.92-7.76l15.43-3.75a3.94,3.94,0,0,1,1.86,7.65l-15.44,3.75A4.08,4.08,0,0,1,127.14,121Zm15.44-10.62a3.42,3.42,0,0,0-.7.08l-15.43,3.75a2.94,2.94,0,0,0,.69,5.79,3.27,3.27,0,0,0,.7-.08l15.43-3.76a2.87,2.87,0,0,0,1.81-1.32,2.92,2.92,0,0,0-1-4A2.82,2.82,0,0,0,142.58,110.41Z"/><path class="cls-1" d="M168.07,110.58a3.43,3.43,0,0,1-.81-6.77l6.71-1.64a3.44,3.44,0,0,1,1.63,6.68l-6.71,1.63A3.29,3.29,0,0,1,168.07,110.58Z"/><path class="cls-1" d="M168.07,111.08a3.94,3.94,0,0,1-.92-7.76l6.71-1.63a3.87,3.87,0,0,1,3,.46,3.93,3.93,0,0,1-1.11,7.18L169,111A4.24,4.24,0,0,1,168.07,111.08Zm6.72-8.5a2.84,2.84,0,0,0-.7.08l-6.71,1.63a2.94,2.94,0,0,0,.69,5.79,2.74,2.74,0,0,0,.7-.09l6.71-1.63a2.93,2.93,0,0,0-.69-5.78Z"/><path class="cls-1" d="M141.07,90.14a3.43,3.43,0,0,1-.81-6.77L147,81.73a3.44,3.44,0,0,1,1.63,6.68L141.89,90A3.34,3.34,0,0,1,141.07,90.14Z"/><path class="cls-1" d="M141.07,90.64a3.94,3.94,0,0,1-.92-7.76l6.71-1.63a3.93,3.93,0,0,1,4.75,2.89,3.92,3.92,0,0,1-2.89,4.75L142,90.52A3.79,3.79,0,0,1,141.07,90.64Zm6.72-8.51a2.8,2.8,0,0,0-.7.09l-6.71,1.63a2.93,2.93,0,1,0,1.39,5.7l6.71-1.63a2.89,2.89,0,0,0,1.81-1.32,2.93,2.93,0,0,0-1-4A3,3,0,0,0,147.79,82.13Z"/><path class="cls-1" d="M200.89,155.15a3.44,3.44,0,0,1-3.43-3.27c0-.6,0-1.17,0-1.61a35.34,35.34,0,0,1,7.35-21.58,40.41,40.41,0,0,1,24.54-14.91,40.82,40.82,0,0,1,5.24-.63h.15c.51,0,1,0,1.53,0H237a41.73,41.73,0,0,1,18.27,4.19,42.32,42.32,0,0,1,6.37,3.91,36,36,0,0,1,14.89,29.08V151a3.44,3.44,0,0,1-6.87,0v-.72a29.08,29.08,0,0,0-12.13-23.58,36.41,36.41,0,0,0-5.3-3.26A34.84,34.84,0,0,0,237,120h-.68c-.4,0-.83,0-1.26,0h-.17a32.5,32.5,0,0,0-4.28.53,31.35,31.35,0,0,0-4.7,1.22,32.25,32.25,0,0,0-15.62,11.08,28.53,28.53,0,0,0-5.95,17.43c0,.43,0,.86,0,1.28a3.45,3.45,0,0,1-3.26,3.6Z"/><path class="cls-1" d="M200.89,155.65A3.94,3.94,0,0,1,197,151.9c0-.6,0-1.19,0-1.63a35.79,35.79,0,0,1,7.45-21.88,39.49,39.49,0,0,1,19.14-13.61,38.89,38.89,0,0,1,5.71-1.49,40.22,40.22,0,0,1,5.3-.64h.17l1.53,0H237a41.09,41.09,0,0,1,24.94,8.2A36.48,36.48,0,0,1,277,150.27V151a3.94,3.94,0,0,1-7.87,0v-.72a28.66,28.66,0,0,0-11.94-23.18A33,33,0,0,0,237,120.46h-.68c-.39,0-.81,0-1.24,0h-.18a31.77,31.77,0,0,0-4.19.52,30.9,30.9,0,0,0-4.64,1.21,31.73,31.73,0,0,0-15.39,10.91,28.08,28.08,0,0,0-5.84,17.12c0,.42,0,.84,0,1.26a3.93,3.93,0,0,1-3.74,4.11Zm35.35-42.06c-.49,0-1,0-1.5,0h-.15a38.26,38.26,0,0,0-5.17.63,36.49,36.49,0,0,0-5.58,1.45A38.53,38.53,0,0,0,205.17,129a34.86,34.86,0,0,0-7.24,21.28c0,.43,0,1,0,1.59a2.93,2.93,0,0,0,2.93,2.79H201a2.94,2.94,0,0,0,2.79-3.08c0-.43,0-.86,0-1.3a29.06,29.06,0,0,1,6-17.73,32.75,32.75,0,0,1,15.86-11.25,31.41,31.41,0,0,1,4.77-1.24,33.63,33.63,0,0,1,4.34-.54H235c.45,0,.89-.05,1.29-.05H237a34,34,0,0,1,20.82,6.83,30.32,30.32,0,0,1,12,19.45,29.89,29.89,0,0,1,.36,4.53V151a2.94,2.94,0,0,0,5.87,0v-.72a36.71,36.71,0,0,0-.43-5.43,36.21,36.21,0,0,0-14.26-23.25,42.64,42.64,0,0,0-6.29-3.87,41.32,41.32,0,0,0-18-4.13Z"/><path class="cls-1" d="M226.84,272.23H76.48A67.14,67.14,0,0,1,9.41,205.16V148.28H137.16v6.87H16.27v50a60.27,60.27,0,0,0,60.21,60.2H226.84a60.27,60.27,0,0,0,60.2-60.2v-50H182.64v-6.87H293.91v56.88A67.15,67.15,0,0,1,226.84,272.23Z"/><path class="cls-1" d="M226.84,272.73H76.48A67.64,67.64,0,0,1,8.91,205.16V147.78H137.66v7.87H16.77v49.51a59.77,59.77,0,0,0,59.71,59.7H226.84a59.77,59.77,0,0,0,59.7-59.7V155.65H182.14v-7.87H294.41v57.38A67.65,67.65,0,0,1,226.84,272.73ZM9.91,148.78v56.38a66.64,66.64,0,0,0,66.57,66.57H226.84a66.65,66.65,0,0,0,66.57-66.57V148.78H183.14v5.87h104.4v50.51a60.77,60.77,0,0,1-60.7,60.7H76.48a60.78,60.78,0,0,1-60.71-60.7V154.65H136.66v-5.87Z"/><path class="cls-1" d="M107.6,131.16a3.5,3.5,0,0,1-3.5-3.5,3.65,3.65,0,0,1,1-2.52,3.51,3.51,0,1,1,2.46,6Z"/><path class="cls-1" d="M68.83,137.35a3.49,3.49,0,0,1-3.5-3.5,3.64,3.64,0,0,1,.39-1.61,3.5,3.5,0,0,1,5.65-.91,3.57,3.57,0,0,1-2.54,6Z"/><path class="cls-1" d="M82.11,116.14a3.5,3.5,0,0,1-3.5-3.5,3.55,3.55,0,0,1,.37-1.57,3.59,3.59,0,0,1,.62-.88,3.5,3.5,0,1,1,2.51,6Z"/></svg>