<svg id="Layer_1" data-name="Layer 1" xmlns="http://www.w3.org/2000/svg" viewBox="0 0 303.31 303.31"><defs><style>.cls-1{fill:#1b1b1b;}</style></defs><path class="cls-1" d="M219.29,222.55H202.36a3.5,3.5,0,0,1,0-7h16.93a3.79,3.79,0,0,0,3.79-3.79V115.23a21,21,0,0,0-20.94-20.94h-1.88a3.5,3.5,0,0,1,0-7h1.88a28,28,0,0,1,27.94,27.94v96.53A10.8,10.8,0,0,1,219.29,222.55Z"/><path class="cls-1" d="M102.35,222.55h-16a10.8,10.8,0,0,1-10.8-10.79V115.23a28,28,0,0,1,27.94-27.94h2.77a3.5,3.5,0,0,1,0,7h-2.77a21,21,0,0,0-20.94,20.94v96.53a3.8,3.8,0,0,0,3.8,3.79h16a3.5,3.5,0,0,1,0,7Z"/><path class="cls-1" d="M171.06,94.29H135.55a3.5,3.5,0,0,1,0-7h35.51a3.5,3.5,0,0,1,0,7Z"/><path class="cls-1" d="M202.36,244.53h-100a3.5,3.5,0,0,1-3.5-3.5V122.18a3.5,3.5,0,0,1,7,0V237.53h93V136a3.5,3.5,0,0,1,7,0V241A3.5,3.5,0,0,1,202.36,244.53Z"/><path class="cls-1" d="M202.36,126.13a3.5,3.5,0,0,1-3.5-3.5v-.45a3.5,3.5,0,0,1,7,0v.45A3.5,3.5,0,0,1,202.36,126.13Z"/><path class="cls-1" d="M201,94.29h-.76a3.5,3.5,0,0,1-3.5-3.5,3.47,3.47,0,0,1,.63-2A14.9,14.9,0,0,0,182.63,75.9H123.88a14.91,14.91,0,0,0-14.76,12.91,3.49,3.49,0,0,1-2.88,5.48h-.75a3.5,3.5,0,0,1-3.5-3.5A21.92,21.92,0,0,1,123.88,68.9h58.75a21.88,21.88,0,0,1,21.88,21.36v0c0,.17,0,.33,0,.49A3.5,3.5,0,0,1,201,94.29Z"/><path class="cls-1" d="M153.2,122.1a3.51,3.51,0,0,1-3-1.63L120.92,74.28a3.5,3.5,0,0,1,5.91-3.75l29.32,46.19a3.51,3.51,0,0,1-3,5.38Z"/><path class="cls-1" d="M152.73,122.1a3.47,3.47,0,0,1-1.8-.5L104.44,93.8a3.5,3.5,0,1,1,3.59-6l46.5,27.8a3.51,3.51,0,0,1-1.8,6.51Z"/><path class="cls-1" d="M153.87,122.1a3.51,3.51,0,0,1-1.81-6.51L199.5,87.17a3.5,3.5,0,0,1,3.58,6l-1,.61-46.4,27.81A3.44,3.44,0,0,1,153.87,122.1Z"/><path class="cls-1" d="M153.57,122.1a3.51,3.51,0,0,1-3-5.37l29.06-46.19a3.5,3.5,0,1,1,5.92,3.73l-29.06,46.19A3.48,3.48,0,0,1,153.57,122.1Z"/><path class="cls-1" d="M185.77,222.55a3.5,3.5,0,0,1-3.5-3.5V199.34a21,21,0,0,1-17.15-17.15H141.83a21,21,0,0,1-17.14,17.15v19.71a3.5,3.5,0,0,1-7,0V196.13a3.5,3.5,0,0,1,3.5-3.5,14,14,0,0,0,13.93-13.94,3.5,3.5,0,0,1,3.5-3.5h29.71a3.5,3.5,0,0,1,3.5,3.5,14,14,0,0,0,13.94,13.94,3.5,3.5,0,0,1,3.5,3.5v22.92A3.5,3.5,0,0,1,185.77,222.55Z"/><path class="cls-1" d="M135.54,145a3.5,3.5,0,0,1-3.5-3.5V110.08a3.5,3.5,0,0,1,7,0v31.39A3.5,3.5,0,0,1,135.54,145Z"/><path class="cls-1" d="M171,145a3.5,3.5,0,0,1-3.5-3.5V108.28a3.5,3.5,0,0,1,7,0v33.19A3.5,3.5,0,0,1,171,145Z"/><path class="cls-1" d="M153.09,285.3A130.67,130.67,0,0,1,22.32,154.54a135,135,0,0,1,1.1-17.08,3.5,3.5,0,1,1,6.94.88,128.77,128.77,0,0,0-1,16.2A123.78,123.78,0,0,0,270,195.22a3.5,3.5,0,1,1,6.62,2.3A130.82,130.82,0,0,1,153.09,285.3Z"/><path class="cls-1" d="M279.57,172.11a3.49,3.49,0,0,1-3.5-3.49v0a2.55,2.55,0,0,1,0-.39,125.11,125.11,0,0,0,.76-13.67A123.78,123.78,0,0,0,35.59,115.59a3.5,3.5,0,1,1-6.65-2.2A130.77,130.77,0,0,1,283.05,169,3.5,3.5,0,0,1,279.57,172.11Z"/><path class="cls-1" d="M38.05,164.27a3.5,3.5,0,0,1-3.15-2l-8.66-17.85L15.11,160.87a3.5,3.5,0,0,1-5.8-3.93l14.53-21.45a3.51,3.51,0,0,1,6.05.44L41.2,159.24a3.51,3.51,0,0,1-3.15,5Z"/><path class="cls-1" d="M279,172.59h-.25a3.51,3.51,0,0,1-2.9-2l-11.31-23.31a3.5,3.5,0,1,1,6.3-3.06l8.66,17.86,11.13-16.43a3.5,3.5,0,0,1,5.8,3.93l-14.53,21.44A3.51,3.51,0,0,1,279,172.59Z"/></svg>