<svg id="Layer_1" data-name="Layer 1" xmlns="http://www.w3.org/2000/svg" viewBox="0 0 303.31 303.31"><defs><style>.cls-1{fill:#1b1b1b;}</style></defs><path class="cls-1" d="M180.59,128.9h-9.74a3.5,3.5,0,0,1,0-7h9.74a1.09,1.09,0,0,0,1.08-1V97.72a1.08,1.08,0,0,0-1.08-1.09H138.13a1.08,1.08,0,0,0-1.08,1.09V120.8a.22.22,0,0,1,0,.08,1.09,1.09,0,0,0,1.07,1h22.19a3.5,3.5,0,0,1,0,7H138.13a8.08,8.08,0,0,1-8.06-7.57c0-.17,0-.35,0-.52V97.72a8.09,8.09,0,0,1,8.08-8.09h42.46a8.09,8.09,0,0,1,8.08,8.09v23.09c0,.17,0,.35,0,.52A8.09,8.09,0,0,1,180.59,128.9ZM137,120.63c0,.06,0,.11,0,.17A1.09,1.09,0,0,0,137,120.63Zm44.65,0v0Z"/><path class="cls-1" d="M241.42,221.13H116.65a3.5,3.5,0,1,1,0-7H241.42a10,10,0,0,0,9.8-7.83,3.5,3.5,0,0,1,6.83,1.54A16.94,16.94,0,0,1,241.42,221.13Z"/><path class="cls-1" d="M97.34,221.13h-20a16.94,16.94,0,0,1-16.63-13.29,3.5,3.5,0,0,1,6.83-1.54,10,10,0,0,0,9.8,7.83h20a3.5,3.5,0,1,1,0,7Z"/><path class="cls-1" d="M83.2,270.8a3.49,3.49,0,0,1-3.5-3.5V237.24a3.5,3.5,0,0,1,7,0V267.3A3.5,3.5,0,0,1,83.2,270.8Z"/><path class="cls-1" d="M107.75,248a3.5,3.5,0,0,1-3.5-3.5v-9.84a3.5,3.5,0,1,1,7,0v9.84A3.5,3.5,0,0,1,107.75,248Z"/><path class="cls-1" d="M107.75,294.13a3.5,3.5,0,0,1-3.5-3.5V256.24a3.5,3.5,0,0,1,7,0v34.39A3.5,3.5,0,0,1,107.75,294.13Z"/><path class="cls-1" d="M134,285.08a3.5,3.5,0,0,1-3.5-3.5V234.65a3.5,3.5,0,0,1,7,0v46.93A3.5,3.5,0,0,1,134,285.08Z"/><path class="cls-1" d="M160.15,256.24a3.5,3.5,0,0,1-3.5-3.5V234.65a3.5,3.5,0,0,1,7,0v18.09A3.5,3.5,0,0,1,160.15,256.24Z"/><path class="cls-1" d="M160.15,300.55a3.5,3.5,0,0,1-3.5-3.5V266.16a3.5,3.5,0,0,1,7,0v30.89A3.49,3.49,0,0,1,160.15,300.55Z"/><path class="cls-1" d="M186.36,292.28a3.5,3.5,0,0,1-3.5-3.5V234.65a3.5,3.5,0,1,1,7,0v54.13A3.5,3.5,0,0,1,186.36,292.28Z"/><path class="cls-1" d="M212.56,260.36a3.5,3.5,0,0,1-3.5-3.5V234.65a3.5,3.5,0,0,1,7,0v22.21A3.5,3.5,0,0,1,212.56,260.36Z"/><path class="cls-1" d="M212.56,285.08a3.5,3.5,0,0,1-3.5-3.5v-8.15a3.5,3.5,0,0,1,7,0v8.15A3.5,3.5,0,0,1,212.56,285.08Z"/><path class="cls-1" d="M238.76,270.8a3.5,3.5,0,0,1-3.5-3.5V234.65a3.5,3.5,0,1,1,7,0V267.3A3.49,3.49,0,0,1,238.76,270.8Z"/><path class="cls-1" d="M144.88,96.63a3.5,3.5,0,0,1-3.5-3.5V89.91a35.64,35.64,0,0,0-35.59-35.6H64.67a3.5,3.5,0,0,1,0-7h41.12a42.65,42.65,0,0,1,42.59,42.6v3.22A3.5,3.5,0,0,1,144.88,96.63Z"/><path class="cls-1" d="M174.11,96.63a3.5,3.5,0,0,1-3.5-3.5V81.45A55.7,55.7,0,0,0,115,25.8h-.62a3.5,3.5,0,0,1,0-7H115a62.71,62.71,0,0,1,62.63,62.65V93.13A3.5,3.5,0,0,1,174.11,96.63Z"/><path class="cls-1" d="M96.94,25.8H64.67a3.5,3.5,0,0,1,0-7H96.94a3.5,3.5,0,0,1,0,7Z"/><path class="cls-1" d="M64.67,66.29a3.5,3.5,0,0,1-3.5-3.5V9.35a3.5,3.5,0,1,1,7,0V62.79A3.5,3.5,0,0,1,64.67,66.29Z"/><path class="cls-1" d="M267.91,209.57H53.16a3.51,3.51,0,0,1-3.45-4.14,112.93,112.93,0,0,1,83-88.46,3.5,3.5,0,1,1,1.73,6.78,105.92,105.92,0,0,0-77,78.82H263.61a105.58,105.58,0,0,0-79.22-79.37,3.5,3.5,0,1,1,1.57-6.82,112.56,112.56,0,0,1,85.39,89.05,3.51,3.51,0,0,1-3.44,4.14Z"/></svg>