<svg id="Layer_1" data-name="Layer 1" xmlns="http://www.w3.org/2000/svg" viewBox="0 0 303.31 303.31"><defs><style>.cls-1{fill:#1b1b1b;}</style></defs><path class="cls-1" d="M73.15,286.59a3.5,3.5,0,0,1-3.5-3.5V27.68a3.5,3.5,0,0,1,7,0V283.09A3.5,3.5,0,0,1,73.15,286.59Z"/><path class="cls-1" d="M227.71,286.59a3.5,3.5,0,0,1-3.5-3.5V27.68a3.5,3.5,0,0,1,7,0V283.09A3.5,3.5,0,0,1,227.71,286.59Z"/><path class="cls-1" d="M252.77,93.84H47.49a3.5,3.5,0,0,1-3.5-3.5V46.18a3.5,3.5,0,0,1,3.5-3.5H252.77a3.5,3.5,0,0,1,3.5,3.5V90.34A3.5,3.5,0,0,1,252.77,93.84ZM51,86.84H249.27V49.68H51Z"/><path class="cls-1" d="M252.77,178.58H47.49a3.5,3.5,0,0,1-3.5-3.5V130.92a3.5,3.5,0,0,1,3.5-3.5H252.77a3.5,3.5,0,0,1,3.5,3.5v44.16A3.5,3.5,0,0,1,252.77,178.58ZM51,171.58H249.27V134.42H51Z"/><path class="cls-1" d="M252.77,263.32H47.49a3.5,3.5,0,0,1-3.5-3.5V215.66a3.5,3.5,0,0,1,3.5-3.5H252.77a3.5,3.5,0,0,1,3.5,3.5v44.16A3.5,3.5,0,0,1,252.77,263.32ZM51,256.32H249.27V219.16H51Z"/><path class="cls-1" d="M227.71,71.16H166.84a3.5,3.5,0,0,1,0-7h60.87a3.5,3.5,0,0,1,0,7Z"/><path class="cls-1" d="M252.77,71.16h-9.55a3.5,3.5,0,0,1,0-7h9.55a3.5,3.5,0,0,1,0,7Z"/><path class="cls-1" d="M58.08,149.94H47.49a3.5,3.5,0,0,1,0-7H58.08a3.5,3.5,0,0,1,0,7Z"/><path class="cls-1" d="M58.08,246.61H47.49a3.5,3.5,0,0,1,0-7H58.08a3.5,3.5,0,0,1,0,7Z"/><path class="cls-1" d="M252.77,246.61h-9.55a3.5,3.5,0,0,1,0-7h9.55a3.5,3.5,0,0,1,0,7Z"/><path class="cls-1" d="M227.71,246.61h-31a3.5,3.5,0,0,1,0-7h31a3.5,3.5,0,1,1,0,7Z"/></svg>