<svg id="Layer_1" data-name="Layer 1" xmlns="http://www.w3.org/2000/svg" viewBox="0 0 303.31 303.31"><defs><style>.cls-1{fill:#1b1b1b;}</style></defs><path class="cls-1" d="M143.08,239.35a3.5,3.5,0,0,1-3.5-3.5V196.16a3.5,3.5,0,0,1,7,0v39.69A3.5,3.5,0,0,1,143.08,239.35Z"/><path class="cls-1" d="M58.48,294.66a3.5,3.5,0,0,1-3.5-3.5v-95a3.5,3.5,0,0,1,7,0v95A3.5,3.5,0,0,1,58.48,294.66Z"/><path class="cls-1" d="M143.08,182.66a3.5,3.5,0,0,1-3.5-3.5V132c0-.83,0-1.66-.09-2.47A38.79,38.79,0,0,0,62,132v47.21a3.5,3.5,0,0,1-7,0V132a45.8,45.8,0,0,1,91.5-2.93c.06.95.1,1.94.1,2.93v47.21A3.5,3.5,0,0,1,143.08,182.66Z"/><path class="cls-1" d="M74.48,294.66a3.5,3.5,0,0,1-3.5-3.5V131.66a30.5,30.5,0,1,1,61,0l.26,53.28a3.49,3.49,0,0,1-3.48,3.52h0a3.51,3.51,0,0,1-3.5-3.49l-.26-53.3a23.5,23.5,0,1,0-47,0v159.5A3.5,3.5,0,0,1,74.48,294.66Z"/><path class="cls-1" d="M143,182.66a3.5,3.5,0,0,1-3.5-3.5V129.25a3.5,3.5,0,0,1,7,0v49.91A3.5,3.5,0,0,1,143,182.66Z"/><path class="cls-1" d="M172.48,266.66a33.12,33.12,0,0,1-32.9-30.56c-.06-.78-.1-1.61-.1-2.44v-37.5a3.5,3.5,0,0,1,7,0v37.5c0,.64,0,1.27.08,1.89A26,26,0,0,0,190.85,252a25.84,25.84,0,0,0,7.63-18.36v-68.5a3.5,3.5,0,0,1,7,0v68.5a33.07,33.07,0,0,1-33,33Z"/><path class="cls-1" d="M224.89,168.66h-32.8a9.62,9.62,0,0,1-9.61-9.6v-14.9a3.5,3.5,0,0,1,7,0v14.9a2.65,2.65,0,0,0,2.61,2.6h32.8a2.64,2.64,0,0,0,2.59-2.6v-14.9a3.5,3.5,0,0,1,7,0v14.9A9.61,9.61,0,0,1,224.89,168.66Z"/><path class="cls-1" d="M249.88,87.66H229a3.5,3.5,0,0,1,0-7h20.85a2.61,2.61,0,0,0,2.61-2.61V67.26a2.61,2.61,0,0,0-2.61-2.6H162.09a2.6,2.6,0,0,0-2.6,2.6V78.05a2.64,2.64,0,0,0,2.6,2.61h53.29a3.5,3.5,0,0,1,0,7H162.09a9.61,9.61,0,0,1-9.6-9.61V67.26a9.61,9.61,0,0,1,9.6-9.6h87.79a9.62,9.62,0,0,1,9.61,9.6V78.05A9.62,9.62,0,0,1,249.88,87.66Z"/><path class="cls-1" d="M236.29,147.66h-58.6a18.23,18.23,0,0,1-18.21-18.2V84.86c0-.3,0-.58,0-.86a3.5,3.5,0,0,1,7,.31c0,.18,0,.36,0,.55v44.6a11.22,11.22,0,0,0,11.21,11.2h58.6a11.21,11.21,0,0,0,11.19-11.2V115.41a3.5,3.5,0,0,1,7,0v14.05A18.22,18.22,0,0,1,236.29,147.66Z"/><path class="cls-1" d="M251,117.91a3.5,3.5,0,0,1-3.5-3.5V85.72c0-.51,0-1,0-1.5a3.5,3.5,0,1,1,7-.13c0,.53,0,1.07,0,1.63v28.69A3.5,3.5,0,0,1,251,117.91Z"/><path class="cls-1" d="M190,64.66a3.5,3.5,0,0,1-3.5-3.5v-41a4.5,4.5,0,1,0-9,0v41a3.5,3.5,0,0,1-7,0v-41a11.5,11.5,0,1,1,23,0v41A3.5,3.5,0,0,1,190,64.66Z"/><path class="cls-1" d="M240,64.66a3.5,3.5,0,0,1-3.5-3.5v-41a4.5,4.5,0,1,0-9,0v41a3.5,3.5,0,0,1-7,0v-41a11.5,11.5,0,1,1,23,0v41A3.5,3.5,0,0,1,240,64.66Z"/><path class="cls-1" d="M172.76,281.68a48.66,48.66,0,0,1-30-10.31,45.45,45.45,0,0,1-17.45-32.55c-.07-1.08-.11-2-.11-2.93V132a3.5,3.5,0,1,1,7,0v103.9c0,.74,0,1.54.1,2.46a38.36,38.36,0,0,0,14.79,27.51,41.59,41.59,0,0,0,25.63,8.82c22.32,0,40.48-17.41,40.48-38.79V165.16a3.5,3.5,0,1,1,7,0v70.73C220.24,261.13,198.94,281.68,172.76,281.68Z"/><path class="cls-1" d="M220.38,130.79a3.48,3.48,0,0,1-2.48-1L191.64,103.5a3.5,3.5,0,0,1,5-5l26.26,26.26a3.49,3.49,0,0,1,0,4.95A3.46,3.46,0,0,1,220.38,130.79Z"/><path class="cls-1" d="M194.12,130.79a3.51,3.51,0,0,1-2.48-6L217.9,98.55a3.5,3.5,0,0,1,4.95,5l-26.26,26.26A3.46,3.46,0,0,1,194.12,130.79Z"/></svg>