<svg id="Layer_1" data-name="Layer 1" xmlns="http://www.w3.org/2000/svg" viewBox="0 0 303.31 303.31"><defs><style>.cls-1{fill:#1b1b1b;}</style></defs><path class="cls-1" d="M215.83,72.38h-54a3.5,3.5,0,0,1,0-7h54a3.5,3.5,0,1,1,0,7Z"/><path class="cls-1" d="M215.83,222.82h-54a3.5,3.5,0,0,1,0-7h54a3.5,3.5,0,0,1,0,7Z"/><path class="cls-1" d="M162,259.64H100.65a19,19,0,0,1-19-19v-191a19,19,0,0,1,19-19H162a3.49,3.49,0,0,1,3.5,3.5v222A3.5,3.5,0,0,1,162,259.64Zm-61.34-222a12,12,0,0,0-12,12v191a12,12,0,0,0,12,12h57.84V37.6Z"/><path class="cls-1" d="M224.54,259.64H161.8a3.5,3.5,0,0,1-3.5-3.5V34.1a3.5,3.5,0,0,1,3.5-3.5h62.74a17.65,17.65,0,0,1,17.63,17.63V242A17.65,17.65,0,0,1,224.54,259.64Zm-59.24-7h59.24A10.65,10.65,0,0,0,235.17,242V48.23A10.64,10.64,0,0,0,224.54,37.6H165.3Z"/><path class="cls-1" d="M137.65,161.68a3.5,3.5,0,0,1-3.5-3.5V115.35a3.5,3.5,0,0,1,7,0v42.83A3.5,3.5,0,0,1,137.65,161.68Z"/><path class="cls-1" d="M200.35,90.48a3.52,3.52,0,0,1-2.26-.82,3.72,3.72,0,0,0-2.22-.71H161.8a3.5,3.5,0,0,1,0-7h34.07a10.79,10.79,0,0,1,6.56,2.21,3.14,3.14,0,0,1,.56.53,3.49,3.49,0,0,1-2.64,5.79Z"/><path class="cls-1" d="M195.87,163.62H161.8a3.5,3.5,0,0,1,0-7h34.07a3.86,3.86,0,0,0,3.86-3.87v-31a3.5,3.5,0,0,1,7,0v31A10.87,10.87,0,0,1,195.87,163.62Z"/><path class="cls-1" d="M213.63,132.55a10.81,10.81,0,0,1-7.68-3.18l-5.19-5.18a3.5,3.5,0,0,1,5-5l5.19,5.18a3.87,3.87,0,0,0,5.47,0l5.65-5.66a3.86,3.86,0,0,0,0-5.46L199.28,90.55a3.13,3.13,0,0,0-.71-.56,3.82,3.82,0,0,1-.72-.55,3.5,3.5,0,0,1,4.46-5.36,10,10,0,0,1,1.92,1.52L227,108.35a10.86,10.86,0,0,1,0,15.36l-5.65,5.66A10.85,10.85,0,0,1,213.63,132.55Z"/><path class="cls-1" d="M175.16,89a3.5,3.5,0,0,1-3.5-3.5V69a3.5,3.5,0,1,1,7,0V85.46A3.5,3.5,0,0,1,175.16,89Z"/><path class="cls-1" d="M209.37,272.71a3.5,3.5,0,0,1-3.5-3.5V256.39a3.5,3.5,0,0,1,7,0v12.82A3.5,3.5,0,0,1,209.37,272.71Z"/><path class="cls-1" d="M113.22,272.71a3.5,3.5,0,0,1-3.5-3.5V256.39a3.5,3.5,0,0,1,7,0v12.82A3.5,3.5,0,0,1,113.22,272.71Z"/></svg>